<svg width="832" height="80" viewBox="0 0 832 80" fill="none" xmlns="http://www.w3.org/2000/svg">
<rect x="0.5" y="0.5" width="257" height="79" rx="6.5" fill="white" stroke="#DDDDDD"/>
<path d="M35.9773 24.2727V33H34.9545L30.1989 26.1477H30.1136V33H29.0568V24.2727H30.0795L34.8523 31.142H34.9375V24.2727H35.9773ZM40.6999 33.1364C40.0692 33.1364 39.5252 32.9972 39.0678 32.7188C38.6133 32.4375 38.2624 32.0455 38.0153 31.5426C37.771 31.0369 37.6488 30.4489 37.6488 29.7784C37.6488 29.108 37.771 28.517 38.0153 28.0057C38.2624 27.4915 38.6062 27.0909 39.0465 26.804C39.4897 26.5142 40.0067 26.3693 40.5977 26.3693C40.9386 26.3693 41.2752 26.4261 41.6076 26.5398C41.94 26.6534 42.2425 26.8381 42.5153 27.0938C42.788 27.3466 43.0053 27.6818 43.1673 28.0994C43.3292 28.517 43.4102 29.0312 43.4102 29.642V30.0682H38.3647V29.1989H42.3874C42.3874 28.8295 42.3136 28.5 42.1658 28.2102C42.021 27.9205 41.8136 27.6918 41.5437 27.5241C41.2766 27.3565 40.9613 27.2727 40.5977 27.2727C40.1971 27.2727 39.8505 27.3722 39.5579 27.571C39.2681 27.767 39.0451 28.0227 38.8888 28.3381C38.7326 28.6534 38.6545 28.9915 38.6545 29.3523V29.9318C38.6545 30.4261 38.7397 30.8452 38.9102 31.1889C39.0835 31.5298 39.3235 31.7898 39.6303 31.9688C39.9371 32.1449 40.2937 32.233 40.6999 32.233C40.9641 32.233 41.2028 32.196 41.4158 32.1222C41.6317 32.0455 41.8178 31.9318 41.9741 31.7812C42.1303 31.6278 42.2511 31.4375 42.3363 31.2102L43.3079 31.483C43.2056 31.8125 43.0337 32.1023 42.7923 32.3523C42.5508 32.5994 42.2525 32.7926 41.8974 32.9318C41.5423 33.0682 41.1431 33.1364 40.6999 33.1364ZM46.4229 33L44.4286 26.4545H45.4854L46.9002 31.4659H46.9684L48.3661 26.4545H49.44L50.8207 31.4489H50.8888L52.3036 26.4545H53.3604L51.3661 33H50.3775L48.9457 27.9716H48.8434L47.4116 33H46.4229ZM60.5366 33.1364C59.9911 33.1364 59.5096 32.9986 59.092 32.723C58.6744 32.4446 58.3477 32.0526 58.1119 31.5469C57.8761 31.0384 57.7582 30.4375 57.7582 29.7443C57.7582 29.0568 57.8761 28.4602 58.1119 27.9545C58.3477 27.4489 58.6758 27.0582 59.0962 26.7827C59.5167 26.5071 60.0025 26.3693 60.5536 26.3693C60.9798 26.3693 61.3164 26.4403 61.5636 26.5824C61.8136 26.7216 62.0039 26.8807 62.1346 27.0597C62.2681 27.2358 62.3718 27.3807 62.4457 27.4943H62.5309V24.2727H63.5366V33H62.565V31.9943H62.4457C62.3718 32.1136 62.2667 32.2642 62.1303 32.446C61.994 32.625 61.7994 32.7855 61.5465 32.9276C61.2937 33.0668 60.957 33.1364 60.5366 33.1364ZM60.6729 32.233C61.0763 32.233 61.4173 32.1278 61.6957 31.9176C61.9741 31.7045 62.1857 31.4105 62.3306 31.0355C62.4755 30.6577 62.5479 30.2216 62.5479 29.7273C62.5479 29.2386 62.4769 28.8111 62.3349 28.4446C62.1928 28.0753 61.9826 27.7884 61.7042 27.5838C61.4258 27.3764 61.082 27.2727 60.6729 27.2727C60.2468 27.2727 59.8917 27.3821 59.6076 27.6009C59.3263 27.8168 59.1147 28.1108 58.9727 28.483C58.8335 28.8523 58.7638 29.267 58.7638 29.7273C58.7638 30.1932 58.8349 30.6165 58.9769 30.9972C59.1218 31.375 59.3349 31.6761 59.6161 31.9006C59.9002 32.1222 60.2525 32.233 60.6729 32.233ZM68.2624 33.1364C67.6317 33.1364 67.0877 32.9972 66.6303 32.7188C66.1758 32.4375 65.8249 32.0455 65.5778 31.5426C65.3335 31.0369 65.2113 30.4489 65.2113 29.7784C65.2113 29.108 65.3335 28.517 65.5778 28.0057C65.8249 27.4915 66.1687 27.0909 66.609 26.804C67.0522 26.5142 67.5692 26.3693 68.1602 26.3693C68.5011 26.3693 68.8377 26.4261 69.1701 26.5398C69.5025 26.6534 69.805 26.8381 70.0778 27.0938C70.3505 27.3466 70.5678 27.6818 70.7298 28.0994C70.8917 28.517 70.9727 29.0312 70.9727 29.642V30.0682H65.9272V29.1989H69.9499C69.9499 28.8295 69.8761 28.5 69.7283 28.2102C69.5835 27.9205 69.3761 27.6918 69.1062 27.5241C68.8391 27.3565 68.5238 27.2727 68.1602 27.2727C67.7596 27.2727 67.413 27.3722 67.1204 27.571C66.8306 27.767 66.6076 28.0227 66.4513 28.3381C66.2951 28.6534 66.217 28.9915 66.217 29.3523V29.9318C66.217 30.4261 66.3022 30.8452 66.4727 31.1889C66.646 31.5298 66.886 31.7898 67.1928 31.9688C67.4996 32.1449 67.8562 32.233 68.2624 32.233C68.5266 32.233 68.7653 32.196 68.9783 32.1222C69.1942 32.0455 69.3803 31.9318 69.5366 31.7812C69.6928 31.6278 69.8136 31.4375 69.8988 31.2102L70.8704 31.483C70.7681 31.8125 70.5962 32.1023 70.3548 32.3523C70.1133 32.5994 69.815 32.7926 69.4599 32.9318C69.1048 33.0682 68.7056 33.1364 68.2624 33.1364ZM77.1388 27.9205L76.2354 28.1761C76.1786 28.0256 76.0948 27.8793 75.984 27.7372C75.8761 27.5923 75.7283 27.473 75.5408 27.3793C75.3533 27.2855 75.1133 27.2386 74.8207 27.2386C74.4201 27.2386 74.0863 27.331 73.8192 27.5156C73.555 27.6974 73.4229 27.929 73.4229 28.2102C73.4229 28.4602 73.5138 28.6577 73.6957 28.8026C73.8775 28.9474 74.1616 29.0682 74.5479 29.1648L75.5195 29.4034C76.1048 29.5455 76.5408 29.7628 76.8278 30.0554C77.1147 30.3452 77.2582 30.7187 77.2582 31.1761C77.2582 31.5511 77.1502 31.8864 76.9343 32.1818C76.7212 32.4773 76.4229 32.7102 76.0394 32.8807C75.6559 33.0511 75.2099 33.1364 74.7013 33.1364C74.0337 33.1364 73.4812 32.9915 73.0437 32.7017C72.6062 32.4119 72.3292 31.9886 72.2127 31.4318L73.1673 31.1932C73.2582 31.5455 73.43 31.8097 73.6829 31.9858C73.9386 32.1619 74.2724 32.25 74.6843 32.25C75.1531 32.25 75.5252 32.1506 75.8008 31.9517C76.0792 31.75 76.2184 31.5085 76.2184 31.2273C76.2184 31 76.1388 30.8097 75.9798 30.6562C75.8207 30.5 75.5763 30.3835 75.2468 30.3068L74.1559 30.0511C73.5565 29.9091 73.1161 29.6889 72.8349 29.3906C72.5565 29.0895 72.4173 28.7131 72.4173 28.2614C72.4173 27.892 72.521 27.5653 72.7283 27.2812C72.9386 26.9972 73.2241 26.7741 73.5849 26.6122C73.9485 26.4503 74.3604 26.3693 74.8207 26.3693C75.4684 26.3693 75.9769 26.5114 76.3462 26.7955C76.7184 27.0795 76.9826 27.4545 77.1388 27.9205ZM78.772 33V26.4545H79.7777V33H78.772ZM79.2834 25.3636C79.0874 25.3636 78.9183 25.2969 78.7763 25.1634C78.6371 25.0298 78.5675 24.8693 78.5675 24.6818C78.5675 24.4943 78.6371 24.3338 78.7763 24.2003C78.9183 24.0668 79.0874 24 79.2834 24C79.4794 24 79.647 24.0668 79.7862 24.2003C79.9283 24.3338 79.9993 24.4943 79.9993 24.6818C79.9993 24.8693 79.9283 25.0298 79.7862 25.1634C79.647 25.2969 79.4794 25.3636 79.2834 25.3636ZM84.2617 35.5909C83.7759 35.5909 83.3583 35.5284 83.0089 35.4034C82.6594 35.2812 82.3683 35.1193 82.1353 34.9176C81.9052 34.7188 81.7219 34.5057 81.5856 34.2784L82.3867 33.7159C82.4776 33.8352 82.5927 33.9716 82.7319 34.125C82.8711 34.2812 83.0614 34.4162 83.3029 34.5298C83.5472 34.6463 83.8668 34.7045 84.2617 34.7045C84.7901 34.7045 85.2262 34.5767 85.57 34.321C85.9137 34.0653 86.0856 33.6648 86.0856 33.1193V31.7898H86.0004C85.9265 31.9091 85.8214 32.0568 85.685 32.233C85.5515 32.4062 85.3583 32.5611 85.1055 32.6974C84.8555 32.831 84.5174 32.8977 84.0913 32.8977C83.5629 32.8977 83.0884 32.7727 82.668 32.5227C82.2504 32.2727 81.9194 31.9091 81.6751 31.4318C81.4336 30.9545 81.3129 30.375 81.3129 29.6932C81.3129 29.0227 81.4308 28.4389 81.6665 27.9418C81.9023 27.4418 82.2305 27.0554 82.6509 26.7827C83.0714 26.5071 83.5572 26.3693 84.1083 26.3693C84.5344 26.3693 84.8725 26.4403 85.1225 26.5824C85.3754 26.7216 85.5685 26.8807 85.7021 27.0597C85.8384 27.2358 85.9435 27.3807 86.0174 27.4943H86.1197V26.4545H87.0913V33.1875C87.0913 33.75 86.9634 34.2074 86.7077 34.5597C86.4549 34.9148 86.114 35.1747 85.685 35.3395C85.2589 35.5071 84.7844 35.5909 84.2617 35.5909ZM84.2276 31.9943C84.631 31.9943 84.9719 31.902 85.2504 31.7173C85.5288 31.5327 85.7404 31.267 85.8853 30.9205C86.0302 30.5739 86.1026 30.1591 86.1026 29.6761C86.1026 29.2045 86.0316 28.7884 85.8896 28.4276C85.7475 28.0668 85.5373 27.7841 85.2589 27.5795C84.9805 27.375 84.6367 27.2727 84.2276 27.2727C83.8015 27.2727 83.4464 27.3807 83.1623 27.5966C82.881 27.8125 82.6694 28.1023 82.5273 28.4659C82.3881 28.8295 82.3185 29.233 82.3185 29.6761C82.3185 30.1307 82.3896 30.5327 82.5316 30.8821C82.6765 31.2287 82.8896 31.5014 83.1708 31.7003C83.4549 31.8963 83.8072 31.9943 84.2276 31.9943ZM89.9379 29.0625V33H88.9322V26.4545H89.9038V27.4773H89.989C90.1424 27.1449 90.3754 26.8778 90.6879 26.6761C91.0004 26.4716 91.4038 26.3693 91.8981 26.3693C92.3413 26.3693 92.729 26.4602 93.0614 26.642C93.3938 26.821 93.6523 27.0938 93.837 27.4602C94.0217 27.8239 94.114 28.2841 94.114 28.8409V33H93.1083V28.9091C93.1083 28.3949 92.9748 27.9943 92.7077 27.7074C92.4407 27.4176 92.0742 27.2727 91.6083 27.2727C91.2873 27.2727 91.0004 27.3423 90.7475 27.4815C90.4975 27.6207 90.3001 27.8239 90.1552 28.0909C90.0103 28.358 89.9379 28.6818 89.9379 29.0625ZM102.241 26.4545V27.3068H98.7131V26.4545H102.241ZM99.7699 33V25.5511C99.7699 25.1761 99.858 24.8636 100.034 24.6136C100.21 24.3636 100.439 24.1761 100.72 24.0511C101.001 23.9261 101.298 23.8636 101.611 23.8636C101.858 23.8636 102.06 23.8835 102.216 23.9233C102.372 23.9631 102.489 24 102.565 24.0341L102.276 24.9034C102.224 24.8864 102.153 24.8651 102.062 24.8395C101.974 24.8139 101.858 24.8011 101.713 24.8011C101.381 24.8011 101.141 24.8849 100.993 25.0526C100.848 25.2202 100.776 25.4659 100.776 25.7898V33H99.7699ZM103.651 33V26.4545H104.657V33H103.651ZM104.162 25.3636C103.966 25.3636 103.797 25.2969 103.655 25.1634C103.516 25.0298 103.446 24.8693 103.446 24.6818C103.446 24.4943 103.516 24.3338 103.655 24.2003C103.797 24.0668 103.966 24 104.162 24C104.358 24 104.526 24.0668 104.665 24.2003C104.807 24.3338 104.878 24.4943 104.878 24.6818C104.878 24.8693 104.807 25.0298 104.665 25.1634C104.526 25.2969 104.358 25.3636 104.162 25.3636ZM107.504 24.2727V33H106.499V24.2727H107.504ZM112.091 33.1364C111.46 33.1364 110.916 32.9972 110.458 32.7188C110.004 32.4375 109.653 32.0455 109.406 31.5426C109.162 31.0369 109.039 30.4489 109.039 29.7784C109.039 29.108 109.162 28.517 109.406 28.0057C109.653 27.4915 109.997 27.0909 110.437 26.804C110.88 26.5142 111.397 26.3693 111.988 26.3693C112.329 26.3693 112.666 26.4261 112.998 26.5398C113.331 26.6534 113.633 26.8381 113.906 27.0938C114.179 27.3466 114.396 27.6818 114.558 28.0994C114.72 28.517 114.801 29.0312 114.801 29.642V30.0682H109.755V29.1989H113.778C113.778 28.8295 113.704 28.5 113.556 28.2102C113.412 27.9205 113.204 27.6918 112.934 27.5241C112.667 27.3565 112.352 27.2727 111.988 27.2727C111.588 27.2727 111.241 27.3722 110.949 27.571C110.659 27.767 110.436 28.0227 110.279 28.3381C110.123 28.6534 110.045 28.9915 110.045 29.3523V29.9318C110.045 30.4261 110.13 30.8452 110.301 31.1889C110.474 31.5298 110.714 31.7898 111.021 31.9688C111.328 32.1449 111.684 32.233 112.091 32.233C112.355 32.233 112.593 32.196 112.806 32.1222C113.022 32.0455 113.208 31.9318 113.365 31.7812C113.521 31.6278 113.642 31.4375 113.727 31.2102L114.699 31.483C114.596 31.8125 114.424 32.1023 114.183 32.3523C113.941 32.5994 113.643 32.7926 113.288 32.9318C112.933 33.0682 112.534 33.1364 112.091 33.1364Z" fill="black"/>
<path d="M223.955 48.8068V37.5568H225.864V48.8068H223.955ZM219.284 44.1364V42.2273H230.534V44.1364H219.284Z" fill="#333333"/>
<path d="M31.75 57H29.0568V48.2727H31.8693C32.7159 48.2727 33.4403 48.4474 34.0426 48.7969C34.6449 49.1435 35.1065 49.642 35.4276 50.2926C35.7486 50.9403 35.9091 51.7159 35.9091 52.6193C35.9091 53.5284 35.7472 54.3111 35.4233 54.9673C35.0994 55.6207 34.6278 56.1236 34.0085 56.4759C33.3892 56.8253 32.6364 57 31.75 57ZM30.1136 56.0625H31.6818C32.4034 56.0625 33.0014 55.9233 33.4759 55.6449C33.9503 55.3665 34.304 54.9702 34.5369 54.456C34.7699 53.9418 34.8864 53.3295 34.8864 52.6193C34.8864 51.9148 34.7713 51.3082 34.5412 50.7997C34.3111 50.2884 33.9673 49.8963 33.5099 49.6236C33.0526 49.348 32.483 49.2102 31.8011 49.2102H30.1136V56.0625ZM40.2898 57.1364C39.6591 57.1364 39.1151 56.9972 38.6577 56.7188C38.2031 56.4375 37.8523 56.0455 37.6051 55.5426C37.3608 55.0369 37.2386 54.4489 37.2386 53.7784C37.2386 53.108 37.3608 52.517 37.6051 52.0057C37.8523 51.4915 38.196 51.0909 38.6364 50.804C39.0795 50.5142 39.5966 50.3693 40.1875 50.3693C40.5284 50.3693 40.8651 50.4261 41.1974 50.5398C41.5298 50.6534 41.8324 50.8381 42.1051 51.0938C42.3778 51.3466 42.5952 51.6818 42.7571 52.0994C42.919 52.517 43 53.0312 43 53.642V54.0682H37.9545V53.1989H41.9773C41.9773 52.8295 41.9034 52.5 41.7557 52.2102C41.6108 51.9205 41.4034 51.6918 41.1335 51.5241C40.8665 51.3565 40.5511 51.2727 40.1875 51.2727C39.7869 51.2727 39.4403 51.3722 39.1477 51.571C38.858 51.767 38.6349 52.0227 38.4787 52.3381C38.3224 52.6534 38.2443 52.9915 38.2443 53.3523V53.9318C38.2443 54.4261 38.3295 54.8452 38.5 55.1889C38.6733 55.5298 38.9134 55.7898 39.2202 55.9688C39.527 56.1449 39.8835 56.233 40.2898 56.233C40.554 56.233 40.7926 56.196 41.0057 56.1222C41.2216 56.0455 41.4077 55.9318 41.5639 55.7812C41.7202 55.6278 41.8409 55.4375 41.9261 55.2102L42.8977 55.483C42.7955 55.8125 42.6236 56.1023 42.3821 56.3523C42.1406 56.5994 41.8423 56.7926 41.4872 56.9318C41.1321 57.0682 40.733 57.1364 40.2898 57.1364ZM49.1662 51.9205L48.2628 52.1761C48.206 52.0256 48.1222 51.8793 48.0114 51.7372C47.9034 51.5923 47.7557 51.473 47.5682 51.3793C47.3807 51.2855 47.1406 51.2386 46.848 51.2386C46.4474 51.2386 46.1136 51.331 45.8466 51.5156C45.5824 51.6974 45.4503 51.929 45.4503 52.2102C45.4503 52.4602 45.5412 52.6577 45.723 52.8026C45.9048 52.9474 46.1889 53.0682 46.5753 53.1648L47.5469 53.4034C48.1321 53.5455 48.5682 53.7628 48.8551 54.0554C49.142 54.3452 49.2855 54.7187 49.2855 55.1761C49.2855 55.5511 49.1776 55.8864 48.9616 56.1818C48.7486 56.4773 48.4503 56.7102 48.0668 56.8807C47.6832 57.0511 47.2372 57.1364 46.7287 57.1364C46.0611 57.1364 45.5085 56.9915 45.071 56.7017C44.6335 56.4119 44.3565 55.9886 44.2401 55.4318L45.1946 55.1932C45.2855 55.5455 45.4574 55.8097 45.7102 55.9858C45.9659 56.1619 46.2997 56.25 46.7116 56.25C47.1804 56.25 47.5526 56.1506 47.8281 55.9517C48.1065 55.75 48.2457 55.5085 48.2457 55.2273C48.2457 55 48.1662 54.8097 48.0071 54.6562C47.848 54.5 47.6037 54.3835 47.2741 54.3068L46.1832 54.0511C45.5838 53.9091 45.1435 53.6889 44.8622 53.3906C44.5838 53.0895 44.4446 52.7131 44.4446 52.2614C44.4446 51.892 44.5483 51.5653 44.7557 51.2812C44.9659 50.9972 45.2514 50.7741 45.6122 50.6122C45.9759 50.4503 46.3878 50.3693 46.848 50.3693C47.4957 50.3693 48.0043 50.5114 48.3736 50.7955C48.7457 51.0795 49.0099 51.4545 49.1662 51.9205ZM50.7994 57V50.4545H51.805V57H50.7994ZM51.3107 49.3636C51.1147 49.3636 50.9457 49.2969 50.8036 49.1634C50.6644 49.0298 50.5948 48.8693 50.5948 48.6818C50.5948 48.4943 50.6644 48.3338 50.8036 48.2003C50.9457 48.0668 51.1147 48 51.3107 48C51.5067 48 51.6744 48.0668 51.8136 48.2003C51.9556 48.3338 52.0266 48.4943 52.0266 48.6818C52.0266 48.8693 51.9556 49.0298 51.8136 49.1634C51.6744 49.2969 51.5067 49.3636 51.3107 49.3636ZM56.2891 59.5909C55.8033 59.5909 55.3857 59.5284 55.0362 59.4034C54.6868 59.2812 54.3956 59.1193 54.1626 58.9176C53.9325 58.7188 53.7493 58.5057 53.6129 58.2784L54.4141 57.7159C54.505 57.8352 54.62 57.9716 54.7592 58.125C54.8984 58.2812 55.0888 58.4162 55.3303 58.5298C55.5746 58.6463 55.8942 58.7045 56.2891 58.7045C56.8175 58.7045 57.2536 58.5767 57.5973 58.321C57.9411 58.0653 58.1129 57.6648 58.1129 57.1193V55.7898H58.0277C57.9538 55.9091 57.8487 56.0568 57.7124 56.233C57.5788 56.4062 57.3857 56.5611 57.1328 56.6974C56.8828 56.831 56.5447 56.8977 56.1186 56.8977C55.5902 56.8977 55.1158 56.7727 54.6953 56.5227C54.2777 56.2727 53.9467 55.9091 53.7024 55.4318C53.4609 54.9545 53.3402 54.375 53.3402 53.6932C53.3402 53.0227 53.4581 52.4389 53.6939 51.9418C53.9297 51.4418 54.2578 51.0554 54.6783 50.7827C55.0987 50.5071 55.5845 50.3693 56.1357 50.3693C56.5618 50.3693 56.8999 50.4403 57.1499 50.5824C57.4027 50.7216 57.5959 50.8807 57.7294 51.0597C57.8658 51.2358 57.9709 51.3807 58.0447 51.4943H58.147V50.4545H59.1186V57.1875C59.1186 57.75 58.9908 58.2074 58.7351 58.5597C58.4822 58.9148 58.1413 59.1747 57.7124 59.3395C57.2862 59.5071 56.8118 59.5909 56.2891 59.5909ZM56.255 55.9943C56.6584 55.9943 56.9993 55.902 57.2777 55.7173C57.5561 55.5327 57.7678 55.267 57.9126 54.9205C58.0575 54.5739 58.13 54.1591 58.13 53.6761C58.13 53.2045 58.0589 52.7884 57.9169 52.4276C57.7749 52.0668 57.5646 51.7841 57.2862 51.5795C57.0078 51.375 56.6641 51.2727 56.255 51.2727C55.8288 51.2727 55.4737 51.3807 55.1896 51.5966C54.9084 51.8125 54.6967 52.1023 54.5547 52.4659C54.4155 52.8295 54.3459 53.233 54.3459 53.6761C54.3459 54.1307 54.4169 54.5327 54.5589 54.8821C54.7038 55.2287 54.9169 55.5014 55.1982 55.7003C55.4822 55.8963 55.8345 55.9943 56.255 55.9943ZM61.9652 53.0625V57H60.9595V50.4545H61.9311V51.4773H62.0163C62.1697 51.1449 62.4027 50.8778 62.7152 50.6761C63.0277 50.4716 63.4311 50.3693 63.9254 50.3693C64.3686 50.3693 64.7564 50.4602 65.0888 50.642C65.4212 50.821 65.6797 51.0938 65.8643 51.4602C66.049 51.8239 66.1413 52.2841 66.1413 52.8409V57H65.1357V52.9091C65.1357 52.3949 65.0021 51.9943 64.7351 51.7074C64.468 51.4176 64.1016 51.2727 63.6357 51.2727C63.3146 51.2727 63.0277 51.3423 62.7749 51.4815C62.5249 51.6207 62.3274 51.8239 62.1825 52.0909C62.0376 52.358 61.9652 52.6818 61.9652 53.0625ZM73.2802 57.1534C72.8654 57.1534 72.489 57.0753 72.1509 56.919C71.8129 56.7599 71.5444 56.5312 71.3455 56.233C71.1467 55.9318 71.0472 55.5682 71.0472 55.142C71.0472 54.767 71.1211 54.4631 71.2688 54.2301C71.4165 53.9943 71.614 53.8097 71.8612 53.6761C72.1083 53.5426 72.381 53.4432 72.6793 53.3778C72.9805 53.3097 73.283 53.2557 73.587 53.2159C73.9847 53.1648 74.3072 53.1264 74.5543 53.1009C74.8043 53.0724 74.9862 53.0256 75.0998 52.9602C75.2163 52.8949 75.2745 52.7812 75.2745 52.6193V52.5852C75.2745 52.1648 75.1594 51.8381 74.9293 51.6051C74.7021 51.3722 74.3569 51.2557 73.8938 51.2557C73.4137 51.2557 73.0373 51.3608 72.7646 51.571C72.4918 51.7812 72.3001 52.0057 72.1893 52.2443L71.2347 51.9034C71.4052 51.5057 71.6325 51.196 71.9165 50.9744C72.2035 50.75 72.516 50.5937 72.854 50.5057C73.195 50.4148 73.5302 50.3693 73.8597 50.3693C74.07 50.3693 74.3114 50.3949 74.5842 50.446C74.8597 50.4943 75.1254 50.5952 75.381 50.7486C75.6396 50.902 75.854 51.1335 76.0245 51.4432C76.195 51.7528 76.2802 52.1676 76.2802 52.6875V57H75.2745V56.1136H75.2234C75.1552 56.2557 75.0415 56.4077 74.8825 56.5696C74.7234 56.7315 74.5117 56.8693 74.2475 56.983C73.9833 57.0966 73.6609 57.1534 73.2802 57.1534ZM73.4336 56.25C73.8313 56.25 74.1665 56.1719 74.4393 56.0156C74.7148 55.8594 74.9222 55.6577 75.0614 55.4105C75.2035 55.1634 75.2745 54.9034 75.2745 54.6307V53.7102C75.2319 53.7614 75.1381 53.8082 74.9933 53.8509C74.8512 53.8906 74.6864 53.9261 74.4989 53.9574C74.3143 53.9858 74.1339 54.0114 73.9577 54.0341C73.7844 54.054 73.6438 54.071 73.5359 54.0852C73.2745 54.1193 73.0302 54.1747 72.8029 54.2514C72.5785 54.3253 72.3967 54.4375 72.2575 54.5881C72.1211 54.7358 72.0529 54.9375 72.0529 55.1932C72.0529 55.5426 72.1822 55.8068 72.4407 55.9858C72.7021 56.1619 73.033 56.25 73.4336 56.25ZM79.1214 53.0625V57H78.1158V50.4545H79.0874V51.4773H79.1726C79.326 51.1449 79.5589 50.8778 79.8714 50.6761C80.1839 50.4716 80.5874 50.3693 81.0817 50.3693C81.5249 50.3693 81.9126 50.4602 82.245 50.642C82.5774 50.821 82.8359 51.0938 83.0206 51.4602C83.2053 51.8239 83.2976 52.2841 83.2976 52.8409V57H82.2919V52.9091C82.2919 52.3949 82.1584 51.9943 81.8913 51.7074C81.6243 51.4176 81.2578 51.2727 80.7919 51.2727C80.4709 51.2727 80.1839 51.3423 79.9311 51.4815C79.6811 51.6207 79.4837 51.8239 79.3388 52.0909C79.1939 52.358 79.1214 52.6818 79.1214 53.0625ZM87.6069 57.1364C87.0614 57.1364 86.5799 56.9986 86.1623 56.723C85.7447 56.4446 85.418 56.0526 85.1822 55.5469C84.9464 55.0384 84.8285 54.4375 84.8285 53.7443C84.8285 53.0568 84.9464 52.4602 85.1822 51.9545C85.418 51.4489 85.7461 51.0582 86.1665 50.7827C86.587 50.5071 87.0728 50.3693 87.6239 50.3693C88.0501 50.3693 88.3867 50.4403 88.6339 50.5824C88.8839 50.7216 89.0742 50.8807 89.2049 51.0597C89.3384 51.2358 89.4421 51.3807 89.516 51.4943H89.6012V48.2727H90.6069V57H89.6353V55.9943H89.516C89.4421 56.1136 89.337 56.2642 89.2006 56.446C89.0643 56.625 88.8697 56.7855 88.6168 56.9276C88.364 57.0668 88.0273 57.1364 87.6069 57.1364ZM87.7433 56.233C88.1467 56.233 88.4876 56.1278 88.766 55.9176C89.0444 55.7045 89.256 55.4105 89.4009 55.0355C89.5458 54.6577 89.6183 54.2216 89.6183 53.7273C89.6183 53.2386 89.5472 52.8111 89.4052 52.4446C89.2631 52.0753 89.0529 51.7884 88.7745 51.5838C88.4961 51.3764 88.1523 51.2727 87.7433 51.2727C87.3171 51.2727 86.962 51.3821 86.6779 51.6009C86.3967 51.8168 86.185 52.1108 86.043 52.483C85.9038 52.8523 85.8342 53.267 85.8342 53.7273C85.8342 54.1932 85.9052 54.6165 86.0472 54.9972C86.1921 55.375 86.4052 55.6761 86.6864 55.9006C86.9705 56.1222 87.3228 56.233 87.7433 56.233ZM95.9634 59.4545V50.4545H96.935V51.4943H97.0543C97.1282 51.3807 97.2305 51.2358 97.3612 51.0597C97.4947 50.8807 97.685 50.7216 97.9322 50.5824C98.1822 50.4403 98.5202 50.3693 98.9464 50.3693C99.4975 50.3693 99.9833 50.5071 100.404 50.7827C100.824 51.0582 101.152 51.4489 101.388 51.9545C101.624 52.4602 101.742 53.0568 101.742 53.7443C101.742 54.4375 101.624 55.0384 101.388 55.5469C101.152 56.0526 100.826 56.4446 100.408 56.723C99.9904 56.9986 99.5089 57.1364 98.9634 57.1364C98.543 57.1364 98.2063 57.0668 97.9535 56.9276C97.7006 56.7855 97.506 56.625 97.3697 56.446C97.2333 56.2642 97.1282 56.1136 97.0543 55.9943H96.9691V59.4545H95.9634ZM96.9521 53.7273C96.9521 54.2216 97.0245 54.6577 97.1694 55.0355C97.3143 55.4105 97.5259 55.7045 97.8043 55.9176C98.0827 56.1278 98.4237 56.233 98.8271 56.233C99.2475 56.233 99.5984 56.1222 99.8796 55.9006C100.164 55.6761 100.377 55.375 100.519 54.9972C100.664 54.6165 100.736 54.1932 100.736 53.7273C100.736 53.267 100.665 52.8523 100.523 52.483C100.384 52.1108 100.172 51.8168 99.8881 51.6009C99.6069 51.3821 99.2532 51.2727 98.8271 51.2727C98.418 51.2727 98.0742 51.3764 97.7958 51.5838C97.5174 51.7884 97.3072 52.0753 97.1651 52.4446C97.0231 52.8111 96.9521 53.2386 96.9521 53.7273ZM103.276 57V50.4545H104.248V51.4432H104.316C104.435 51.1193 104.651 50.8565 104.963 50.6548C105.276 50.4531 105.628 50.3523 106.02 50.3523C106.094 50.3523 106.186 50.3537 106.297 50.3565C106.408 50.3594 106.492 50.3636 106.549 50.3693V51.392C106.515 51.3835 106.436 51.3707 106.314 51.3537C106.195 51.3338 106.069 51.3239 105.935 51.3239C105.617 51.3239 105.333 51.3906 105.083 51.5241C104.836 51.6548 104.64 51.8366 104.495 52.0696C104.353 52.2997 104.282 52.5625 104.282 52.858V57H103.276ZM110.201 57.1364C109.61 57.1364 109.091 56.9957 108.645 56.7145C108.202 56.4332 107.855 56.0398 107.605 55.5341C107.358 55.0284 107.235 54.4375 107.235 53.7614C107.235 53.0795 107.358 52.4844 107.605 51.9759C107.855 51.4673 108.202 51.0724 108.645 50.7912C109.091 50.5099 109.61 50.3693 110.201 50.3693C110.792 50.3693 111.309 50.5099 111.752 50.7912C112.198 51.0724 112.544 51.4673 112.792 51.9759C113.042 52.4844 113.167 53.0795 113.167 53.7614C113.167 54.4375 113.042 55.0284 112.792 55.5341C112.544 56.0398 112.198 56.4332 111.752 56.7145C111.309 56.9957 110.792 57.1364 110.201 57.1364ZM110.201 56.233C110.65 56.233 111.019 56.1179 111.309 55.8878C111.598 55.6577 111.813 55.3551 111.952 54.9801C112.091 54.6051 112.161 54.1989 112.161 53.7614C112.161 53.3239 112.091 52.9162 111.952 52.5384C111.813 52.1605 111.598 51.8551 111.309 51.6222C111.019 51.3892 110.65 51.2727 110.201 51.2727C109.752 51.2727 109.382 51.3892 109.093 51.6222C108.803 51.8551 108.588 52.1605 108.449 52.5384C108.31 52.9162 108.24 53.3239 108.24 53.7614C108.24 54.1989 108.31 54.6051 108.449 54.9801C108.588 55.3551 108.803 55.6577 109.093 55.8878C109.382 56.1179 109.752 56.233 110.201 56.233ZM117.548 50.4545V51.3068H114.156V50.4545H117.548ZM115.145 48.8864H116.151V55.125C116.151 55.4091 116.192 55.6222 116.274 55.7642C116.359 55.9034 116.467 55.9972 116.598 56.0455C116.732 56.0909 116.872 56.1136 117.02 56.1136C117.131 56.1136 117.222 56.108 117.293 56.0966C117.364 56.0824 117.42 56.071 117.463 56.0625L117.668 56.9659C117.599 56.9915 117.504 57.017 117.382 57.0426C117.26 57.071 117.105 57.0852 116.918 57.0852C116.634 57.0852 116.355 57.0241 116.082 56.902C115.813 56.7798 115.588 56.5938 115.409 56.3438C115.233 56.0938 115.145 55.7784 115.145 55.3977V48.8864ZM121.65 57.1364C121.059 57.1364 120.54 56.9957 120.094 56.7145C119.651 56.4332 119.305 56.0398 119.055 55.5341C118.808 55.0284 118.684 54.4375 118.684 53.7614C118.684 53.0795 118.808 52.4844 119.055 51.9759C119.305 51.4673 119.651 51.0724 120.094 50.7912C120.54 50.5099 121.059 50.3693 121.65 50.3693C122.241 50.3693 122.758 50.5099 123.201 50.7912C123.647 51.0724 123.994 51.4673 124.241 51.9759C124.491 52.4844 124.616 53.0795 124.616 53.7614C124.616 54.4375 124.491 55.0284 124.241 55.5341C123.994 56.0398 123.647 56.4332 123.201 56.7145C122.758 56.9957 122.241 57.1364 121.65 57.1364ZM121.65 56.233C122.099 56.233 122.468 56.1179 122.758 55.8878C123.048 55.6577 123.262 55.3551 123.401 54.9801C123.54 54.6051 123.61 54.1989 123.61 53.7614C123.61 53.3239 123.54 52.9162 123.401 52.5384C123.262 52.1605 123.048 51.8551 122.758 51.6222C122.468 51.3892 122.099 51.2727 121.65 51.2727C121.201 51.2727 120.832 51.3892 120.542 51.6222C120.252 51.8551 120.038 52.1605 119.898 52.5384C119.759 52.9162 119.69 53.3239 119.69 53.7614C119.69 54.1989 119.759 54.6051 119.898 54.9801C120.038 55.3551 120.252 55.6577 120.542 55.8878C120.832 56.1179 121.201 56.233 121.65 56.233ZM128.998 50.4545V51.3068H125.605V50.4545H128.998ZM126.594 48.8864H127.6V55.125C127.6 55.4091 127.641 55.6222 127.723 55.7642C127.809 55.9034 127.917 55.9972 128.047 56.0455C128.181 56.0909 128.321 56.1136 128.469 56.1136C128.58 56.1136 128.671 56.108 128.742 56.0966C128.813 56.0824 128.87 56.071 128.912 56.0625L129.117 56.9659C129.049 56.9915 128.953 57.017 128.831 57.0426C128.709 57.071 128.554 57.0852 128.367 57.0852C128.083 57.0852 127.804 57.0241 127.532 56.902C127.262 56.7798 127.037 56.5938 126.858 56.3438C126.682 56.0938 126.594 55.7784 126.594 55.3977V48.8864ZM131.158 59.4545C130.988 59.4545 130.836 59.4403 130.702 59.4119C130.569 59.3864 130.476 59.3608 130.425 59.3352L130.681 58.4489C130.925 58.5114 131.141 58.5341 131.328 58.517C131.516 58.5 131.682 58.4162 131.827 58.2656C131.975 58.1179 132.11 57.8778 132.232 57.5455L132.419 57.0341L129.999 50.4545H131.09L132.897 55.6705H132.965L134.772 50.4545H135.863L133.084 57.9545C132.959 58.2926 132.804 58.5724 132.62 58.794C132.435 59.0185 132.221 59.1847 131.976 59.2926C131.735 59.4006 131.462 59.4545 131.158 59.4545ZM137.19 59.4545V50.4545H138.162V51.4943H138.281C138.355 51.3807 138.457 51.2358 138.588 51.0597C138.721 50.8807 138.912 50.7216 139.159 50.5824C139.409 50.4403 139.747 50.3693 140.173 50.3693C140.724 50.3693 141.21 50.5071 141.63 50.7827C142.051 51.0582 142.379 51.4489 142.615 51.9545C142.85 52.4602 142.968 53.0568 142.968 53.7443C142.968 54.4375 142.85 55.0384 142.615 55.5469C142.379 56.0526 142.052 56.4446 141.635 56.723C141.217 56.9986 140.735 57.1364 140.19 57.1364C139.77 57.1364 139.433 57.0668 139.18 56.9276C138.927 56.7855 138.733 56.625 138.596 56.446C138.46 56.2642 138.355 56.1136 138.281 55.9943H138.196V59.4545H137.19ZM138.179 53.7273C138.179 54.2216 138.251 54.6577 138.396 55.0355C138.541 55.4105 138.752 55.7045 139.031 55.9176C139.309 56.1278 139.65 56.233 140.054 56.233C140.474 56.233 140.825 56.1222 141.106 55.9006C141.39 55.6761 141.603 55.375 141.745 54.9972C141.89 54.6165 141.963 54.1932 141.963 53.7273C141.963 53.267 141.892 52.8523 141.75 52.483C141.61 52.1108 141.399 51.8168 141.115 51.6009C140.833 51.3821 140.48 51.2727 140.054 51.2727C139.645 51.2727 139.301 51.3764 139.022 51.5838C138.744 51.7884 138.534 52.0753 138.392 52.4446C138.25 52.8111 138.179 53.2386 138.179 53.7273ZM147.247 57.1364C146.616 57.1364 146.072 56.9972 145.615 56.7188C145.16 56.4375 144.809 56.0455 144.562 55.5426C144.318 55.0369 144.196 54.4489 144.196 53.7784C144.196 53.108 144.318 52.517 144.562 52.0057C144.809 51.4915 145.153 51.0909 145.593 50.804C146.037 50.5142 146.554 50.3693 147.145 50.3693C147.485 50.3693 147.822 50.4261 148.154 50.5398C148.487 50.6534 148.789 50.8381 149.062 51.0938C149.335 51.3466 149.552 51.6818 149.714 52.0994C149.876 52.517 149.957 53.0312 149.957 53.642V54.0682H144.912V53.1989H148.934C148.934 52.8295 148.86 52.5 148.713 52.2102C148.568 51.9205 148.36 51.6918 148.091 51.5241C147.824 51.3565 147.508 51.2727 147.145 51.2727C146.744 51.2727 146.397 51.3722 146.105 51.571C145.815 51.767 145.592 52.0227 145.436 52.3381C145.279 52.6534 145.201 52.9915 145.201 53.3523V53.9318C145.201 54.4261 145.287 54.8452 145.457 55.1889C145.63 55.5298 145.87 55.7898 146.177 55.9688C146.484 56.1449 146.841 56.233 147.247 56.233C147.511 56.233 147.75 56.196 147.963 56.1222C148.179 56.0455 148.365 55.9318 148.521 55.7812C148.677 55.6278 148.798 55.4375 148.883 55.2102L149.855 55.483C149.752 55.8125 149.581 56.1023 149.339 56.3523C149.098 56.5994 148.799 56.7926 148.444 56.9318C148.089 57.0682 147.69 57.1364 147.247 57.1364Z" fill="#AAAAAA"/>
<rect x="287.5" y="0.5" width="257" height="79" rx="6.5" fill="white" stroke="#DDDDDD"/>
<path d="M317.114 24.2727V33H316.057V24.2727H317.114ZM319.096 33V26.4545H320.068V27.4773H320.153C320.289 27.1278 320.51 26.8565 320.814 26.6634C321.118 26.4673 321.483 26.3693 321.909 26.3693C322.341 26.3693 322.7 26.4673 322.987 26.6634C323.277 26.8565 323.502 27.1278 323.664 27.4773H323.733C323.9 27.1392 324.152 26.8707 324.487 26.6719C324.822 26.4702 325.224 26.3693 325.693 26.3693C326.278 26.3693 326.757 26.5526 327.129 26.919C327.501 27.2827 327.687 27.8494 327.687 28.6193V33H326.681V28.6193C326.681 28.1364 326.549 27.7912 326.285 27.5838C326.021 27.3764 325.71 27.2727 325.352 27.2727C324.892 27.2727 324.535 27.4119 324.282 27.6903C324.029 27.9659 323.903 28.3153 323.903 28.7386V33H322.88V28.517C322.88 28.1449 322.76 27.8452 322.518 27.6179C322.277 27.3878 321.966 27.2727 321.585 27.2727C321.324 27.2727 321.079 27.3423 320.852 27.4815C320.627 27.6207 320.446 27.8139 320.306 28.0611C320.17 28.3054 320.102 28.5881 320.102 28.9091V33H319.096ZM329.526 35.4545V26.4545H330.498V27.4943H330.617C330.691 27.3807 330.793 27.2358 330.924 27.0597C331.057 26.8807 331.248 26.7216 331.495 26.5824C331.745 26.4403 332.083 26.3693 332.509 26.3693C333.06 26.3693 333.546 26.5071 333.966 26.7827C334.387 27.0582 334.715 27.4489 334.951 27.9545C335.186 28.4602 335.304 29.0568 335.304 29.7443C335.304 30.4375 335.186 31.0384 334.951 31.5469C334.715 32.0526 334.388 32.4446 333.971 32.723C333.553 32.9986 333.071 33.1364 332.526 33.1364C332.105 33.1364 331.769 33.0668 331.516 32.9276C331.263 32.7855 331.069 32.625 330.932 32.446C330.796 32.2642 330.691 32.1136 330.617 31.9943H330.532V35.4545H329.526ZM330.515 29.7273C330.515 30.2216 330.587 30.6577 330.732 31.0355C330.877 31.4105 331.088 31.7045 331.367 31.9176C331.645 32.1278 331.986 32.233 332.39 32.233C332.81 32.233 333.161 32.1222 333.442 31.9006C333.726 31.6761 333.939 31.375 334.081 30.9972C334.226 30.6165 334.299 30.1932 334.299 29.7273C334.299 29.267 334.228 28.8523 334.086 28.483C333.946 28.1108 333.735 27.8168 333.451 27.6009C333.169 27.3821 332.816 27.2727 332.39 27.2727C331.98 27.2727 331.637 27.3764 331.358 27.5838C331.08 27.7884 330.87 28.0753 330.728 28.4446C330.586 28.8111 330.515 29.2386 330.515 29.7273ZM339.498 33.1364C338.907 33.1364 338.388 32.9957 337.942 32.7145C337.499 32.4332 337.152 32.0398 336.902 31.5341C336.655 31.0284 336.532 30.4375 336.532 29.7614C336.532 29.0795 336.655 28.4844 336.902 27.9759C337.152 27.4673 337.499 27.0724 337.942 26.7912C338.388 26.5099 338.907 26.3693 339.498 26.3693C340.088 26.3693 340.605 26.5099 341.049 26.7912C341.495 27.0724 341.841 27.4673 342.088 27.9759C342.338 28.4844 342.463 29.0795 342.463 29.7614C342.463 30.4375 342.338 31.0284 342.088 31.5341C341.841 32.0398 341.495 32.4332 341.049 32.7145C340.605 32.9957 340.088 33.1364 339.498 33.1364ZM339.498 32.233C339.946 32.233 340.316 32.1179 340.605 31.8878C340.895 31.6577 341.11 31.3551 341.249 30.9801C341.388 30.6051 341.458 30.1989 341.458 29.7614C341.458 29.3239 341.388 28.9162 341.249 28.5384C341.11 28.1605 340.895 27.8551 340.605 27.6222C340.316 27.3892 339.946 27.2727 339.498 27.2727C339.049 27.2727 338.679 27.3892 338.39 27.6222C338.1 27.8551 337.885 28.1605 337.746 28.5384C337.607 28.9162 337.537 29.3239 337.537 29.7614C337.537 30.1989 337.607 30.6051 337.746 30.9801C337.885 31.3551 338.1 31.6577 338.39 31.8878C338.679 32.1179 339.049 32.233 339.498 32.233ZM343.999 33V26.4545H344.97V27.4432H345.038C345.158 27.1193 345.374 26.8565 345.686 26.6548C345.999 26.4531 346.351 26.3523 346.743 26.3523C346.817 26.3523 346.909 26.3537 347.02 26.3565C347.131 26.3594 347.214 26.3636 347.271 26.3693V27.392C347.237 27.3835 347.159 27.3707 347.037 27.3537C346.918 27.3338 346.791 27.3239 346.658 27.3239C346.339 27.3239 346.055 27.3906 345.805 27.5241C345.558 27.6548 345.362 27.8366 345.217 28.0696C345.075 28.2997 345.004 28.5625 345.004 28.858V33H343.999ZM351.72 26.4545V27.3068H348.328V26.4545H351.72ZM349.317 24.8864H350.322V31.125C350.322 31.4091 350.364 31.6222 350.446 31.7642C350.531 31.9034 350.639 31.9972 350.77 32.0455C350.903 32.0909 351.044 32.1136 351.192 32.1136C351.303 32.1136 351.393 32.108 351.464 32.0966C351.536 32.0824 351.592 32.071 351.635 32.0625L351.839 32.9659C351.771 32.9915 351.676 33.017 351.554 33.0426C351.432 33.071 351.277 33.0852 351.089 33.0852C350.805 33.0852 350.527 33.0241 350.254 32.902C349.984 32.7798 349.76 32.5938 349.581 32.3438C349.405 32.0938 349.317 31.7784 349.317 31.3977V24.8864ZM359.523 26.4545V27.3068H355.994V26.4545H359.523ZM357.051 33V25.5511C357.051 25.1761 357.139 24.8636 357.315 24.6136C357.491 24.3636 357.72 24.1761 358.001 24.0511C358.283 23.9261 358.58 23.8636 358.892 23.8636C359.139 23.8636 359.341 23.8835 359.497 23.9233C359.653 23.9631 359.77 24 359.847 24.0341L359.557 24.9034C359.506 24.8864 359.435 24.8651 359.344 24.8395C359.256 24.8139 359.139 24.8011 358.994 24.8011C358.662 24.8011 358.422 24.8849 358.274 25.0526C358.129 25.2202 358.057 25.4659 358.057 25.7898V33H357.051ZM360.932 33V26.4545H361.938V33H360.932ZM361.444 25.3636C361.248 25.3636 361.078 25.2969 360.936 25.1634C360.797 25.0298 360.728 24.8693 360.728 24.6818C360.728 24.4943 360.797 24.3338 360.936 24.2003C361.078 24.0668 361.248 24 361.444 24C361.64 24 361.807 24.0668 361.946 24.2003C362.088 24.3338 362.159 24.4943 362.159 24.6818C362.159 24.8693 362.088 25.0298 361.946 25.1634C361.807 25.2969 361.64 25.3636 361.444 25.3636ZM364.786 24.2727V33H363.78V24.2727H364.786ZM369.372 33.1364C368.741 33.1364 368.197 32.9972 367.74 32.7188C367.285 32.4375 366.934 32.0455 366.687 31.5426C366.443 31.0369 366.321 30.4489 366.321 29.7784C366.321 29.108 366.443 28.517 366.687 28.0057C366.934 27.4915 367.278 27.0909 367.718 26.804C368.162 26.5142 368.679 26.3693 369.27 26.3693C369.61 26.3693 369.947 26.4261 370.279 26.5398C370.612 26.6534 370.914 26.8381 371.187 27.0938C371.46 27.3466 371.677 27.6818 371.839 28.0994C372.001 28.517 372.082 29.0312 372.082 29.642V30.0682H367.037V29.1989H371.059C371.059 28.8295 370.985 28.5 370.838 28.2102C370.693 27.9205 370.485 27.6918 370.216 27.5241C369.949 27.3565 369.633 27.2727 369.27 27.2727C368.869 27.2727 368.522 27.3722 368.23 27.571C367.94 27.767 367.717 28.0227 367.561 28.3381C367.404 28.6534 367.326 28.9915 367.326 29.3523V29.9318C367.326 30.4261 367.412 30.8452 367.582 31.1889C367.755 31.5298 367.995 31.7898 368.302 31.9688C368.609 32.1449 368.966 32.233 369.372 32.233C369.636 32.233 369.875 32.196 370.088 32.1222C370.304 32.0455 370.49 31.9318 370.646 31.7812C370.802 31.6278 370.923 31.4375 371.008 31.2102L371.98 31.483C371.877 31.8125 371.706 32.1023 371.464 32.3523C371.223 32.5994 370.924 32.7926 370.569 32.9318C370.214 33.0682 369.815 33.1364 369.372 33.1364Z" fill="black"/>
<path d="M510.955 48.8068V37.5568H512.864V48.8068H510.955ZM506.284 44.1364V42.2273H517.534V44.1364H506.284Z" fill="#333333"/>
<path d="M316.057 57V48.2727H319.108C319.716 48.2727 320.217 48.3778 320.612 48.5881C321.007 48.7955 321.301 49.0753 321.494 49.4276C321.688 49.777 321.784 50.1648 321.784 50.5909C321.784 50.9659 321.717 51.2756 321.584 51.5199C321.453 51.7642 321.28 51.9574 321.064 52.0994C320.851 52.2415 320.619 52.3466 320.369 52.4148V52.5C320.636 52.517 320.905 52.6108 321.175 52.7812C321.445 52.9517 321.67 53.196 321.852 53.5142C322.034 53.8324 322.125 54.2216 322.125 54.6818C322.125 55.1193 322.026 55.5128 321.827 55.8622C321.628 56.2116 321.314 56.4886 320.885 56.6932C320.456 56.8977 319.898 57 319.21 57H316.057ZM317.114 56.0625H319.21C319.901 56.0625 320.391 55.929 320.68 55.6619C320.973 55.392 321.119 55.0653 321.119 54.6818C321.119 54.3864 321.044 54.1136 320.893 53.8636C320.743 53.6108 320.528 53.4091 320.25 53.2585C319.972 53.1051 319.642 53.0284 319.261 53.0284H317.114V56.0625ZM317.114 52.108H319.074C319.392 52.108 319.679 52.0455 319.935 51.9205C320.193 51.7955 320.398 51.6193 320.548 51.392C320.702 51.1648 320.778 50.8977 320.778 50.5909C320.778 50.2074 320.645 49.8821 320.378 49.6151C320.111 49.3452 319.688 49.2102 319.108 49.2102H317.114V52.108ZM323.725 57V50.4545H324.697V51.4432H324.765C324.884 51.1193 325.1 50.8565 325.413 50.6548C325.725 50.4531 326.077 50.3523 326.469 50.3523C326.543 50.3523 326.636 50.3537 326.746 50.3565C326.857 50.3594 326.941 50.3636 326.998 50.3693V51.392C326.964 51.3835 326.886 51.3707 326.763 51.3537C326.644 51.3338 326.518 51.3239 326.384 51.3239C326.066 51.3239 325.782 51.3906 325.532 51.5241C325.285 51.6548 325.089 51.8366 324.944 52.0696C324.802 52.2997 324.731 52.5625 324.731 52.858V57H323.725ZM328.19 57V50.4545H329.196V57H328.19ZM328.701 49.3636C328.505 49.3636 328.336 49.2969 328.194 49.1634C328.055 49.0298 327.985 48.8693 327.985 48.6818C327.985 48.4943 328.055 48.3338 328.194 48.2003C328.336 48.0668 328.505 48 328.701 48C328.897 48 329.065 48.0668 329.204 48.2003C329.346 48.3338 329.417 48.4943 329.417 48.6818C329.417 48.8693 329.346 49.0298 329.204 49.1634C329.065 49.2969 328.897 49.3636 328.701 49.3636ZM332.043 53.0625V57H331.038V50.4545H332.009V51.4773H332.094C332.248 51.1449 332.481 50.8778 332.793 50.6761C333.106 50.4716 333.509 50.3693 334.004 50.3693C334.447 50.3693 334.835 50.4602 335.167 50.642C335.499 50.821 335.758 51.0938 335.942 51.4602C336.127 51.8239 336.219 52.2841 336.219 52.8409V57H335.214V52.9091C335.214 52.3949 335.08 51.9943 334.813 51.7074C334.546 51.4176 334.18 51.2727 333.714 51.2727C333.393 51.2727 333.106 51.3423 332.853 51.4815C332.603 51.6207 332.406 51.8239 332.261 52.0909C332.116 52.358 332.043 52.6818 332.043 53.0625ZM340.699 59.5909C340.213 59.5909 339.796 59.5284 339.446 59.4034C339.097 59.2812 338.806 59.1193 338.573 58.9176C338.343 58.7188 338.159 58.5057 338.023 58.2784L338.824 57.7159C338.915 57.8352 339.03 57.9716 339.169 58.125C339.309 58.2812 339.499 58.4162 339.74 58.5298C339.985 58.6463 340.304 58.7045 340.699 58.7045C341.228 58.7045 341.664 58.5767 342.007 58.321C342.351 58.0653 342.523 57.6648 342.523 57.1193V55.7898H342.438C342.364 55.9091 342.259 56.0568 342.123 56.233C341.989 56.4062 341.796 56.5611 341.543 56.6974C341.293 56.831 340.955 56.8977 340.529 56.8977C340 56.8977 339.526 56.7727 339.105 56.5227C338.688 56.2727 338.357 55.9091 338.113 55.4318C337.871 54.9545 337.75 54.375 337.75 53.6932C337.75 53.0227 337.868 52.4389 338.104 51.9418C338.34 51.4418 338.668 51.0554 339.088 50.7827C339.509 50.5071 339.995 50.3693 340.546 50.3693C340.972 50.3693 341.31 50.4403 341.56 50.5824C341.813 50.7216 342.006 50.8807 342.14 51.0597C342.276 51.2358 342.381 51.3807 342.455 51.4943H342.557V50.4545H343.529V57.1875C343.529 57.75 343.401 58.2074 343.145 58.5597C342.892 58.9148 342.551 59.1747 342.123 59.3395C341.696 59.5071 341.222 59.5909 340.699 59.5909ZM340.665 55.9943C341.069 55.9943 341.409 55.902 341.688 55.7173C341.966 55.5327 342.178 55.267 342.323 54.9205C342.468 54.5739 342.54 54.1591 342.54 53.6761C342.54 53.2045 342.469 52.7884 342.327 52.4276C342.185 52.0668 341.975 51.7841 341.696 51.5795C341.418 51.375 341.074 51.2727 340.665 51.2727C340.239 51.2727 339.884 51.3807 339.6 51.5966C339.319 51.8125 339.107 52.1023 338.965 52.4659C338.826 52.8295 338.756 53.233 338.756 53.6761C338.756 54.1307 338.827 54.5327 338.969 54.8821C339.114 55.2287 339.327 55.5014 339.608 55.7003C339.892 55.8963 340.245 55.9943 340.665 55.9943ZM348.745 57V50.4545H349.75V57H348.745ZM349.256 49.3636C349.06 49.3636 348.891 49.2969 348.749 49.1634C348.61 49.0298 348.54 48.8693 348.54 48.6818C348.54 48.4943 348.61 48.3338 348.749 48.2003C348.891 48.0668 349.06 48 349.256 48C349.452 48 349.62 48.0668 349.759 48.2003C349.901 48.3338 349.972 48.4943 349.972 48.6818C349.972 48.8693 349.901 49.0298 349.759 49.1634C349.62 49.2969 349.452 49.3636 349.256 49.3636ZM352.598 53.0625V57H351.592V50.4545H352.564V51.4773H352.649C352.803 51.1449 353.036 50.8778 353.348 50.6761C353.661 50.4716 354.064 50.3693 354.558 50.3693C355.001 50.3693 355.389 50.4602 355.722 50.642C356.054 50.821 356.313 51.0938 356.497 51.4602C356.682 51.8239 356.774 52.2841 356.774 52.8409V57H355.768V52.9091C355.768 52.3949 355.635 51.9943 355.368 51.7074C355.101 51.4176 354.734 51.2727 354.268 51.2727C353.947 51.2727 353.661 51.3423 353.408 51.4815C353.158 51.6207 352.96 51.8239 352.815 52.0909C352.67 52.358 352.598 52.6818 352.598 53.0625ZM364.902 50.4545V51.3068H361.373V50.4545H364.902ZM362.43 57V49.5511C362.43 49.1761 362.518 48.8636 362.694 48.6136C362.87 48.3636 363.099 48.1761 363.38 48.0511C363.662 47.9261 363.958 47.8636 364.271 47.8636C364.518 47.8636 364.72 47.8835 364.876 47.9233C365.032 47.9631 365.149 48 365.225 48.0341L364.936 48.9034C364.885 48.8864 364.814 48.8651 364.723 48.8395C364.635 48.8139 364.518 48.8011 364.373 48.8011C364.041 48.8011 363.801 48.8849 363.653 49.0526C363.508 49.2202 363.436 49.4659 363.436 49.7898V57H362.43ZM366.311 57V50.4545H367.317V57H366.311ZM366.822 49.3636C366.626 49.3636 366.457 49.2969 366.315 49.1634C366.176 49.0298 366.107 48.8693 366.107 48.6818C366.107 48.4943 366.176 48.3338 366.315 48.2003C366.457 48.0668 366.626 48 366.822 48C367.018 48 367.186 48.0668 367.325 48.2003C367.467 48.3338 367.538 48.4943 367.538 48.6818C367.538 48.8693 367.467 49.0298 367.325 49.1634C367.186 49.2969 367.018 49.3636 366.822 49.3636ZM370.164 48.2727V57H369.159V48.2727H370.164ZM374.751 57.1364C374.12 57.1364 373.576 56.9972 373.119 56.7188C372.664 56.4375 372.313 56.0455 372.066 55.5426C371.822 55.0369 371.7 54.4489 371.7 53.7784C371.7 53.108 371.822 52.517 372.066 52.0057C372.313 51.4915 372.657 51.0909 373.097 50.804C373.54 50.5142 374.058 50.3693 374.648 50.3693C374.989 50.3693 375.326 50.4261 375.658 50.5398C375.991 50.6534 376.293 50.8381 376.566 51.0938C376.839 51.3466 377.056 51.6818 377.218 52.0994C377.38 52.517 377.461 53.0312 377.461 53.642V54.0682H372.415V53.1989H376.438C376.438 52.8295 376.364 52.5 376.217 52.2102C376.072 51.9205 375.864 51.6918 375.594 51.5241C375.327 51.3565 375.012 51.2727 374.648 51.2727C374.248 51.2727 373.901 51.3722 373.609 51.571C373.319 51.767 373.096 52.0227 372.94 52.3381C372.783 52.6534 372.705 52.9915 372.705 53.3523V53.9318C372.705 54.4261 372.79 54.8452 372.961 55.1889C373.134 55.5298 373.374 55.7898 373.681 55.9688C373.988 56.1449 374.344 56.233 374.751 56.233C375.015 56.233 375.254 56.196 375.467 56.1222C375.683 56.0455 375.869 55.9318 376.025 55.7812C376.181 55.6278 376.302 55.4375 376.387 55.2102L377.359 55.483C377.256 55.8125 377.085 56.1023 376.843 56.3523C376.602 56.5994 376.303 56.7926 375.948 56.9318C375.593 57.0682 375.194 57.1364 374.751 57.1364ZM383.627 51.9205L382.724 52.1761C382.667 52.0256 382.583 51.8793 382.472 51.7372C382.364 51.5923 382.217 51.473 382.029 51.3793C381.842 51.2855 381.602 51.2386 381.309 51.2386C380.908 51.2386 380.575 51.331 380.308 51.5156C380.043 51.6974 379.911 51.929 379.911 52.2102C379.911 52.4602 380.002 52.6577 380.184 52.8026C380.366 52.9474 380.65 53.0682 381.036 53.1648L382.008 53.4034C382.593 53.5455 383.029 53.7628 383.316 54.0554C383.603 54.3452 383.746 54.7187 383.746 55.1761C383.746 55.5511 383.638 55.8864 383.423 56.1818C383.21 56.4773 382.911 56.7102 382.528 56.8807C382.144 57.0511 381.698 57.1364 381.19 57.1364C380.522 57.1364 379.969 56.9915 379.532 56.7017C379.094 56.4119 378.817 55.9886 378.701 55.4318L379.656 55.1932C379.746 55.5455 379.918 55.8097 380.171 55.9858C380.427 56.1619 380.761 56.25 381.173 56.25C381.641 56.25 382.013 56.1506 382.289 55.9517C382.567 55.75 382.707 55.5085 382.707 55.2273C382.707 55 382.627 54.8097 382.468 54.6562C382.309 54.5 382.065 54.3835 381.735 54.3068L380.644 54.0511C380.045 53.9091 379.604 53.6889 379.323 53.3906C379.045 53.0895 378.906 52.7131 378.906 52.2614C378.906 51.892 379.009 51.5653 379.217 51.2812C379.427 50.9972 379.712 50.7741 380.073 50.6122C380.437 50.4503 380.849 50.3693 381.309 50.3693C381.957 50.3693 382.465 50.5114 382.835 50.7955C383.207 51.0795 383.471 51.4545 383.627 51.9205ZM391.55 50.4545V51.3068H388.022V50.4545H391.55ZM389.078 57V49.5511C389.078 49.1761 389.167 48.8636 389.343 48.6136C389.519 48.3636 389.748 48.1761 390.029 48.0511C390.31 47.9261 390.607 47.8636 390.919 47.8636C391.167 47.8636 391.368 47.8835 391.525 47.9233C391.681 47.9631 391.797 48 391.874 48.0341L391.584 48.9034C391.533 48.8864 391.462 48.8651 391.371 48.8395C391.283 48.8139 391.167 48.8011 391.022 48.8011C390.689 48.8011 390.449 48.8849 390.301 49.0526C390.157 49.2202 390.084 49.4659 390.084 49.7898V57H389.078ZM392.96 57V50.4545H393.931V51.4432H393.999C394.119 51.1193 394.335 50.8565 394.647 50.6548C394.96 50.4531 395.312 50.3523 395.704 50.3523C395.778 50.3523 395.87 50.3537 395.981 50.3565C396.092 50.3594 396.175 50.3636 396.232 50.3693V51.392C396.198 51.3835 396.12 51.3707 395.998 51.3537C395.879 51.3338 395.752 51.3239 395.619 51.3239C395.3 51.3239 395.016 51.3906 394.766 51.5241C394.519 51.6548 394.323 51.8366 394.178 52.0696C394.036 52.2997 393.965 52.5625 393.965 52.858V57H392.96ZM399.884 57.1364C399.293 57.1364 398.775 56.9957 398.329 56.7145C397.886 56.4332 397.539 56.0398 397.289 55.5341C397.042 55.0284 396.918 54.4375 396.918 53.7614C396.918 53.0795 397.042 52.4844 397.289 51.9759C397.539 51.4673 397.886 51.0724 398.329 50.7912C398.775 50.5099 399.293 50.3693 399.884 50.3693C400.475 50.3693 400.992 50.5099 401.435 50.7912C401.881 51.0724 402.228 51.4673 402.475 51.9759C402.725 52.4844 402.85 53.0795 402.85 53.7614C402.85 54.4375 402.725 55.0284 402.475 55.5341C402.228 56.0398 401.881 56.4332 401.435 56.7145C400.992 56.9957 400.475 57.1364 399.884 57.1364ZM399.884 56.233C400.333 56.233 400.702 56.1179 400.992 55.8878C401.282 55.6577 401.496 55.3551 401.636 54.9801C401.775 54.6051 401.844 54.1989 401.844 53.7614C401.844 53.3239 401.775 52.9162 401.636 52.5384C401.496 52.1605 401.282 51.8551 400.992 51.6222C400.702 51.3892 400.333 51.2727 399.884 51.2727C399.435 51.2727 399.066 51.3892 398.776 51.6222C398.487 51.8551 398.272 52.1605 398.133 52.5384C397.994 52.9162 397.924 53.3239 397.924 53.7614C397.924 54.1989 397.994 54.6051 398.133 54.9801C398.272 55.3551 398.487 55.6577 398.776 55.8878C399.066 56.1179 399.435 56.233 399.884 56.233ZM404.385 57V50.4545H405.357V51.4773H405.442C405.578 51.1278 405.799 50.8565 406.103 50.6634C406.407 50.4673 406.772 50.3693 407.198 50.3693C407.63 50.3693 407.989 50.4673 408.276 50.6634C408.566 50.8565 408.792 51.1278 408.953 51.4773H409.022C409.189 51.1392 409.441 50.8707 409.776 50.6719C410.111 50.4702 410.513 50.3693 410.982 50.3693C411.567 50.3693 412.046 50.5526 412.418 50.919C412.79 51.2827 412.976 51.8494 412.976 52.6193V57H411.971V52.6193C411.971 52.1364 411.838 51.7912 411.574 51.5838C411.31 51.3764 410.999 51.2727 410.641 51.2727C410.181 51.2727 409.824 51.4119 409.571 51.6903C409.319 51.9659 409.192 52.3153 409.192 52.7386V57H408.169V52.517C408.169 52.1449 408.049 51.8452 407.807 51.6179C407.566 51.3878 407.255 51.2727 406.874 51.2727C406.613 51.2727 406.368 51.3423 406.141 51.4815C405.917 51.6207 405.735 51.8139 405.596 52.0611C405.459 52.3054 405.391 52.5881 405.391 52.9091V57H404.385ZM420.849 57.1364C420.258 57.1364 419.74 56.9957 419.294 56.7145C418.85 56.4332 418.504 56.0398 418.254 55.5341C418.007 55.0284 417.883 54.4375 417.883 53.7614C417.883 53.0795 418.007 52.4844 418.254 51.9759C418.504 51.4673 418.85 51.0724 419.294 50.7912C419.74 50.5099 420.258 50.3693 420.849 50.3693C421.44 50.3693 421.957 50.5099 422.4 50.7912C422.846 51.0724 423.193 51.4673 423.44 51.9759C423.69 52.4844 423.815 53.0795 423.815 53.7614C423.815 54.4375 423.69 55.0284 423.44 55.5341C423.193 56.0398 422.846 56.4332 422.4 56.7145C421.957 56.9957 421.44 57.1364 420.849 57.1364ZM420.849 56.233C421.298 56.233 421.667 56.1179 421.957 55.8878C422.247 55.6577 422.461 55.3551 422.6 54.9801C422.74 54.6051 422.809 54.1989 422.809 53.7614C422.809 53.3239 422.74 52.9162 422.6 52.5384C422.461 52.1605 422.247 51.8551 421.957 51.6222C421.667 51.3892 421.298 51.2727 420.849 51.2727C420.4 51.2727 420.031 51.3892 419.741 51.6222C419.451 51.8551 419.237 52.1605 419.098 52.5384C418.958 52.9162 418.889 53.3239 418.889 53.7614C418.889 54.1989 418.958 54.6051 419.098 54.9801C419.237 55.3551 419.451 55.6577 419.741 55.8878C420.031 56.1179 420.4 56.233 420.849 56.233ZM428.197 50.4545V51.3068H424.805V50.4545H428.197ZM425.793 48.8864H426.799V55.125C426.799 55.4091 426.84 55.6222 426.923 55.7642C427.008 55.9034 427.116 55.9972 427.246 56.0455C427.38 56.0909 427.521 56.1136 427.668 56.1136C427.779 56.1136 427.87 56.108 427.941 56.0966C428.012 56.0824 428.069 56.071 428.112 56.0625L428.316 56.9659C428.248 56.9915 428.153 57.017 428.031 57.0426C427.908 57.071 427.754 57.0852 427.566 57.0852C427.282 57.0852 427.004 57.0241 426.731 56.902C426.461 56.7798 426.237 56.5938 426.058 56.3438C425.881 56.0938 425.793 55.7784 425.793 55.3977V48.8864ZM430.856 53.0625V57H429.85V48.2727H430.856V51.4773H430.941C431.094 51.1392 431.325 50.8707 431.631 50.6719C431.941 50.4702 432.353 50.3693 432.867 50.3693C433.313 50.3693 433.704 50.4588 434.039 50.6378C434.374 50.8139 434.634 51.0852 434.819 51.4517C435.006 51.8153 435.1 52.2784 435.1 52.8409V57H434.094V52.9091C434.094 52.3892 433.96 51.9872 433.69 51.7031C433.423 51.4162 433.052 51.2727 432.577 51.2727C432.248 51.2727 431.952 51.3423 431.691 51.4815C431.433 51.6207 431.228 51.8239 431.077 52.0909C430.93 52.358 430.856 52.6818 430.856 53.0625ZM439.684 57.1364C439.054 57.1364 438.51 56.9972 438.052 56.7188C437.598 56.4375 437.247 56.0455 437 55.5426C436.755 55.0369 436.633 54.4489 436.633 53.7784C436.633 53.108 436.755 52.517 437 52.0057C437.247 51.4915 437.591 51.0909 438.031 50.804C438.474 50.5142 438.991 50.3693 439.582 50.3693C439.923 50.3693 440.26 50.4261 440.592 50.5398C440.924 50.6534 441.227 50.8381 441.5 51.0938C441.772 51.3466 441.99 51.6818 442.152 52.0994C442.314 52.517 442.395 53.0312 442.395 53.642V54.0682H437.349V53.1989H441.372C441.372 52.8295 441.298 52.5 441.15 52.2102C441.005 51.9205 440.798 51.6918 440.528 51.5241C440.261 51.3565 439.946 51.2727 439.582 51.2727C439.181 51.2727 438.835 51.3722 438.542 51.571C438.252 51.767 438.029 52.0227 437.873 52.3381C437.717 52.6534 437.639 52.9915 437.639 53.3523V53.9318C437.639 54.4261 437.724 54.8452 437.895 55.1889C438.068 55.5298 438.308 55.7898 438.615 55.9688C438.922 56.1449 439.278 56.233 439.684 56.233C439.949 56.233 440.187 56.196 440.4 56.1222C440.616 56.0455 440.802 55.9318 440.958 55.7812C441.115 55.6278 441.235 55.4375 441.321 55.2102L442.292 55.483C442.19 55.8125 442.018 56.1023 441.777 56.3523C441.535 56.5994 441.237 56.7926 440.882 56.9318C440.527 57.0682 440.127 57.1364 439.684 57.1364ZM443.924 57V50.4545H444.896V51.4432H444.964C445.083 51.1193 445.299 50.8565 445.612 50.6548C445.924 50.4531 446.277 50.3523 446.669 50.3523C446.743 50.3523 446.835 50.3537 446.946 50.3565C447.056 50.3594 447.14 50.3636 447.197 50.3693V51.392C447.163 51.3835 447.085 51.3707 446.963 51.3537C446.843 51.3338 446.717 51.3239 446.583 51.3239C446.265 51.3239 445.981 51.3906 445.731 51.5241C445.484 51.6548 445.288 51.8366 445.143 52.0696C445.001 52.2997 444.93 52.5625 444.93 52.858V57H443.924ZM454.611 50.4545V51.3068H451.219V50.4545H454.611ZM452.207 48.8864H453.213V55.125C453.213 55.4091 453.254 55.6222 453.337 55.7642C453.422 55.9034 453.53 55.9972 453.661 56.0455C453.794 56.0909 453.935 56.1136 454.082 56.1136C454.193 56.1136 454.284 56.108 454.355 56.0966C454.426 56.0824 454.483 56.071 454.526 56.0625L454.73 56.9659C454.662 56.9915 454.567 57.017 454.445 57.0426C454.322 57.071 454.168 57.0852 453.98 57.0852C453.696 57.0852 453.418 57.0241 453.145 56.902C452.875 56.7798 452.651 56.5938 452.472 56.3438C452.295 56.0938 452.207 55.7784 452.207 55.3977V48.8864ZM458.712 57.1364C458.121 57.1364 457.603 56.9957 457.157 56.7145C456.714 56.4332 456.367 56.0398 456.117 55.5341C455.87 55.0284 455.746 54.4375 455.746 53.7614C455.746 53.0795 455.87 52.4844 456.117 51.9759C456.367 51.4673 456.714 51.0724 457.157 50.7912C457.603 50.5099 458.121 50.3693 458.712 50.3693C459.303 50.3693 459.82 50.5099 460.263 50.7912C460.71 51.0724 461.056 51.4673 461.303 51.9759C461.553 52.4844 461.678 53.0795 461.678 53.7614C461.678 54.4375 461.553 55.0284 461.303 55.5341C461.056 56.0398 460.71 56.4332 460.263 56.7145C459.82 56.9957 459.303 57.1364 458.712 57.1364ZM458.712 56.233C459.161 56.233 459.531 56.1179 459.82 55.8878C460.11 55.6577 460.325 55.3551 460.464 54.9801C460.603 54.6051 460.673 54.1989 460.673 53.7614C460.673 53.3239 460.603 52.9162 460.464 52.5384C460.325 52.1605 460.11 51.8551 459.82 51.6222C459.531 51.3892 459.161 51.2727 458.712 51.2727C458.263 51.2727 457.894 51.3892 457.604 51.6222C457.315 51.8551 457.1 52.1605 456.961 52.5384C456.822 52.9162 456.752 53.3239 456.752 53.7614C456.752 54.1989 456.822 54.6051 456.961 54.9801C457.1 55.3551 457.315 55.6577 457.604 55.8878C457.894 56.1179 458.263 56.233 458.712 56.233ZM465.873 57.1364C465.282 57.1364 464.763 56.9957 464.317 56.7145C463.874 56.4332 463.527 56.0398 463.277 55.5341C463.03 55.0284 462.907 54.4375 462.907 53.7614C462.907 53.0795 463.03 52.4844 463.277 51.9759C463.527 51.4673 463.874 51.0724 464.317 50.7912C464.763 50.5099 465.282 50.3693 465.873 50.3693C466.463 50.3693 466.98 50.5099 467.424 50.7912C467.87 51.0724 468.216 51.4673 468.463 51.9759C468.713 52.4844 468.838 53.0795 468.838 53.7614C468.838 54.4375 468.713 55.0284 468.463 55.5341C468.216 56.0398 467.87 56.4332 467.424 56.7145C466.98 56.9957 466.463 57.1364 465.873 57.1364ZM465.873 56.233C466.321 56.233 466.691 56.1179 466.98 55.8878C467.27 55.6577 467.485 55.3551 467.624 54.9801C467.763 54.6051 467.833 54.1989 467.833 53.7614C467.833 53.3239 467.763 52.9162 467.624 52.5384C467.485 52.1605 467.27 51.8551 466.98 51.6222C466.691 51.3892 466.321 51.2727 465.873 51.2727C465.424 51.2727 465.054 51.3892 464.765 51.6222C464.475 51.8551 464.26 52.1605 464.121 52.5384C463.982 52.9162 463.912 53.3239 463.912 53.7614C463.912 54.1989 463.982 54.6051 464.121 54.9801C464.26 55.3551 464.475 55.6577 464.765 55.8878C465.054 56.1179 465.424 56.233 465.873 56.233ZM471.379 48.2727V57H470.374V48.2727H471.379ZM477.858 51.9205L476.954 52.1761C476.897 52.0256 476.814 51.8793 476.703 51.7372C476.595 51.5923 476.447 51.473 476.26 51.3793C476.072 51.2855 475.832 51.2386 475.539 51.2386C475.139 51.2386 474.805 51.331 474.538 51.5156C474.274 51.6974 474.142 51.929 474.142 52.2102C474.142 52.4602 474.233 52.6577 474.414 52.8026C474.596 52.9474 474.88 53.0682 475.267 53.1648L476.238 53.4034C476.824 53.5455 477.26 53.7628 477.547 54.0554C477.833 54.3452 477.977 54.7187 477.977 55.1761C477.977 55.5511 477.869 55.8864 477.653 56.1818C477.44 56.4773 477.142 56.7102 476.758 56.8807C476.375 57.0511 475.929 57.1364 475.42 57.1364C474.752 57.1364 474.2 56.9915 473.762 56.7017C473.325 56.4119 473.048 55.9886 472.931 55.4318L473.886 55.1932C473.977 55.5455 474.149 55.8097 474.402 55.9858C474.657 56.1619 474.991 56.25 475.403 56.25C475.872 56.25 476.244 56.1506 476.52 55.9517C476.798 55.75 476.937 55.5085 476.937 55.2273C476.937 55 476.858 54.8097 476.699 54.6562C476.539 54.5 476.295 54.3835 475.966 54.3068L474.875 54.0511C474.275 53.9091 473.835 53.6889 473.554 53.3906C473.275 53.0895 473.136 52.7131 473.136 52.2614C473.136 51.892 473.24 51.5653 473.447 51.2812C473.657 50.9972 473.943 50.7741 474.304 50.6122C474.667 50.4503 475.079 50.3693 475.539 50.3693C476.187 50.3693 476.696 50.5114 477.065 50.7955C477.437 51.0795 477.701 51.4545 477.858 51.9205Z" fill="#AAAAAA"/>
<rect x="574.5" y="0.5" width="257" height="79" rx="6.5" fill="white" stroke="#DDDDDD"/>
<path d="M604.114 24.2727V33H603.057V24.2727H604.114ZM606.096 33V26.4545H607.068V27.4773H607.153C607.289 27.1278 607.51 26.8565 607.814 26.6634C608.118 26.4673 608.483 26.3693 608.909 26.3693C609.341 26.3693 609.7 26.4673 609.987 26.6634C610.277 26.8565 610.502 27.1278 610.664 27.4773H610.733C610.9 27.1392 611.152 26.8707 611.487 26.6719C611.822 26.4702 612.224 26.3693 612.693 26.3693C613.278 26.3693 613.757 26.5526 614.129 26.919C614.501 27.2827 614.687 27.8494 614.687 28.6193V33H613.681V28.6193C613.681 28.1364 613.549 27.7912 613.285 27.5838C613.021 27.3764 612.71 27.2727 612.352 27.2727C611.892 27.2727 611.535 27.4119 611.282 27.6903C611.029 27.9659 610.903 28.3153 610.903 28.7386V33H609.88V28.517C609.88 28.1449 609.76 27.8452 609.518 27.6179C609.277 27.3878 608.966 27.2727 608.585 27.2727C608.324 27.2727 608.079 27.3423 607.852 27.4815C607.627 27.6207 607.446 27.8139 607.306 28.0611C607.17 28.3054 607.102 28.5881 607.102 28.9091V33H606.096ZM616.526 35.4545V26.4545H617.498V27.4943H617.617C617.691 27.3807 617.793 27.2358 617.924 27.0597C618.057 26.8807 618.248 26.7216 618.495 26.5824C618.745 26.4403 619.083 26.3693 619.509 26.3693C620.06 26.3693 620.546 26.5071 620.966 26.7827C621.387 27.0582 621.715 27.4489 621.951 27.9545C622.186 28.4602 622.304 29.0568 622.304 29.7443C622.304 30.4375 622.186 31.0384 621.951 31.5469C621.715 32.0526 621.388 32.4446 620.971 32.723C620.553 32.9986 620.071 33.1364 619.526 33.1364C619.105 33.1364 618.769 33.0668 618.516 32.9276C618.263 32.7855 618.069 32.625 617.932 32.446C617.796 32.2642 617.691 32.1136 617.617 31.9943H617.532V35.4545H616.526ZM617.515 29.7273C617.515 30.2216 617.587 30.6577 617.732 31.0355C617.877 31.4105 618.088 31.7045 618.367 31.9176C618.645 32.1278 618.986 32.233 619.39 32.233C619.81 32.233 620.161 32.1222 620.442 31.9006C620.726 31.6761 620.939 31.375 621.081 30.9972C621.226 30.6165 621.299 30.1932 621.299 29.7273C621.299 29.267 621.228 28.8523 621.086 28.483C620.946 28.1108 620.735 27.8168 620.451 27.6009C620.169 27.3821 619.816 27.2727 619.39 27.2727C618.98 27.2727 618.637 27.3764 618.358 27.5838C618.08 27.7884 617.87 28.0753 617.728 28.4446C617.586 28.8111 617.515 29.2386 617.515 29.7273ZM626.498 33.1364C625.907 33.1364 625.388 32.9957 624.942 32.7145C624.499 32.4332 624.152 32.0398 623.902 31.5341C623.655 31.0284 623.532 30.4375 623.532 29.7614C623.532 29.0795 623.655 28.4844 623.902 27.9759C624.152 27.4673 624.499 27.0724 624.942 26.7912C625.388 26.5099 625.907 26.3693 626.498 26.3693C627.088 26.3693 627.605 26.5099 628.049 26.7912C628.495 27.0724 628.841 27.4673 629.088 27.9759C629.338 28.4844 629.463 29.0795 629.463 29.7614C629.463 30.4375 629.338 31.0284 629.088 31.5341C628.841 32.0398 628.495 32.4332 628.049 32.7145C627.605 32.9957 627.088 33.1364 626.498 33.1364ZM626.498 32.233C626.946 32.233 627.316 32.1179 627.605 31.8878C627.895 31.6577 628.11 31.3551 628.249 30.9801C628.388 30.6051 628.458 30.1989 628.458 29.7614C628.458 29.3239 628.388 28.9162 628.249 28.5384C628.11 28.1605 627.895 27.8551 627.605 27.6222C627.316 27.3892 626.946 27.2727 626.498 27.2727C626.049 27.2727 625.679 27.3892 625.39 27.6222C625.1 27.8551 624.885 28.1605 624.746 28.5384C624.607 28.9162 624.537 29.3239 624.537 29.7614C624.537 30.1989 624.607 30.6051 624.746 30.9801C624.885 31.3551 625.1 31.6577 625.39 31.8878C625.679 32.1179 626.049 32.233 626.498 32.233ZM630.999 33V26.4545H631.97V27.4432H632.038C632.158 27.1193 632.374 26.8565 632.686 26.6548C632.999 26.4531 633.351 26.3523 633.743 26.3523C633.817 26.3523 633.909 26.3537 634.02 26.3565C634.131 26.3594 634.214 26.3636 634.271 26.3693V27.392C634.237 27.3835 634.159 27.3707 634.037 27.3537C633.918 27.3338 633.791 27.3239 633.658 27.3239C633.339 27.3239 633.055 27.3906 632.805 27.5241C632.558 27.6548 632.362 27.8366 632.217 28.0696C632.075 28.2997 632.004 28.5625 632.004 28.858V33H630.999ZM638.72 26.4545V27.3068H635.328V26.4545H638.72ZM636.317 24.8864H637.322V31.125C637.322 31.4091 637.364 31.6222 637.446 31.7642C637.531 31.9034 637.639 31.9972 637.77 32.0455C637.903 32.0909 638.044 32.1136 638.192 32.1136C638.303 32.1136 638.393 32.108 638.464 32.0966C638.536 32.0824 638.592 32.071 638.635 32.0625L638.839 32.9659C638.771 32.9915 638.676 33.017 638.554 33.0426C638.432 33.071 638.277 33.0852 638.089 33.0852C637.805 33.0852 637.527 33.0241 637.254 32.902C636.984 32.7798 636.76 32.5938 636.581 32.3438C636.405 32.0938 636.317 31.7784 636.317 31.3977V24.8864ZM646.523 26.4545V27.3068H642.994V26.4545H646.523ZM644.051 33V25.5511C644.051 25.1761 644.139 24.8636 644.315 24.6136C644.491 24.3636 644.72 24.1761 645.001 24.0511C645.283 23.9261 645.58 23.8636 645.892 23.8636C646.139 23.8636 646.341 23.8835 646.497 23.9233C646.653 23.9631 646.77 24 646.847 24.0341L646.557 24.9034C646.506 24.8864 646.435 24.8651 646.344 24.8395C646.256 24.8139 646.139 24.8011 645.994 24.8011C645.662 24.8011 645.422 24.8849 645.274 25.0526C645.129 25.2202 645.057 25.4659 645.057 25.7898V33H644.051ZM647.932 33V26.4545H648.938V33H647.932ZM648.444 25.3636C648.248 25.3636 648.078 25.2969 647.936 25.1634C647.797 25.0298 647.728 24.8693 647.728 24.6818C647.728 24.4943 647.797 24.3338 647.936 24.2003C648.078 24.0668 648.248 24 648.444 24C648.64 24 648.807 24.0668 648.946 24.2003C649.088 24.3338 649.159 24.4943 649.159 24.6818C649.159 24.8693 649.088 25.0298 648.946 25.1634C648.807 25.2969 648.64 25.3636 648.444 25.3636ZM651.786 24.2727V33H650.78V24.2727H651.786ZM656.372 33.1364C655.741 33.1364 655.197 32.9972 654.74 32.7188C654.285 32.4375 653.934 32.0455 653.687 31.5426C653.443 31.0369 653.321 30.4489 653.321 29.7784C653.321 29.108 653.443 28.517 653.687 28.0057C653.934 27.4915 654.278 27.0909 654.718 26.804C655.162 26.5142 655.679 26.3693 656.27 26.3693C656.61 26.3693 656.947 26.4261 657.279 26.5398C657.612 26.6534 657.914 26.8381 658.187 27.0938C658.46 27.3466 658.677 27.6818 658.839 28.0994C659.001 28.517 659.082 29.0312 659.082 29.642V30.0682H654.037V29.1989H658.059C658.059 28.8295 657.985 28.5 657.838 28.2102C657.693 27.9205 657.485 27.6918 657.216 27.5241C656.949 27.3565 656.633 27.2727 656.27 27.2727C655.869 27.2727 655.522 27.3722 655.23 27.571C654.94 27.767 654.717 28.0227 654.561 28.3381C654.404 28.6534 654.326 28.9915 654.326 29.3523V29.9318C654.326 30.4261 654.412 30.8452 654.582 31.1889C654.755 31.5298 654.995 31.7898 655.302 31.9688C655.609 32.1449 655.966 32.233 656.372 32.233C656.636 32.233 656.875 32.196 657.088 32.1222C657.304 32.0455 657.49 31.9318 657.646 31.7812C657.802 31.6278 657.923 31.4375 658.008 31.2102L658.98 31.483C658.877 31.8125 658.706 32.1023 658.464 32.3523C658.223 32.5994 657.924 32.7926 657.569 32.9318C657.214 33.0682 656.815 33.1364 656.372 33.1364Z" fill="black"/>
<path d="M797.955 48.8068V37.5568H799.864V48.8068H797.955ZM793.284 44.1364V42.2273H804.534V44.1364H793.284Z" fill="#333333"/>
<path d="M603.057 57V48.2727H606.108C606.716 48.2727 607.217 48.3778 607.612 48.5881C608.007 48.7955 608.301 49.0753 608.494 49.4276C608.688 49.777 608.784 50.1648 608.784 50.5909C608.784 50.9659 608.717 51.2756 608.584 51.5199C608.453 51.7642 608.28 51.9574 608.064 52.0994C607.851 52.2415 607.619 52.3466 607.369 52.4148V52.5C607.636 52.517 607.905 52.6108 608.175 52.7812C608.445 52.9517 608.67 53.196 608.852 53.5142C609.034 53.8324 609.125 54.2216 609.125 54.6818C609.125 55.1193 609.026 55.5128 608.827 55.8622C608.628 56.2116 608.314 56.4886 607.885 56.6932C607.456 56.8977 606.898 57 606.21 57H603.057ZM604.114 56.0625H606.21C606.901 56.0625 607.391 55.929 607.68 55.6619C607.973 55.392 608.119 55.0653 608.119 54.6818C608.119 54.3864 608.044 54.1136 607.893 53.8636C607.743 53.6108 607.528 53.4091 607.25 53.2585C606.972 53.1051 606.642 53.0284 606.261 53.0284H604.114V56.0625ZM604.114 52.108H606.074C606.392 52.108 606.679 52.0455 606.935 51.9205C607.193 51.7955 607.398 51.6193 607.548 51.392C607.702 51.1648 607.778 50.8977 607.778 50.5909C607.778 50.2074 607.645 49.8821 607.378 49.6151C607.111 49.3452 606.688 49.2102 606.108 49.2102H604.114V52.108ZM610.725 57V50.4545H611.697V51.4432H611.765C611.884 51.1193 612.1 50.8565 612.413 50.6548C612.725 50.4531 613.077 50.3523 613.469 50.3523C613.543 50.3523 613.636 50.3537 613.746 50.3565C613.857 50.3594 613.941 50.3636 613.998 50.3693V51.392C613.964 51.3835 613.886 51.3707 613.763 51.3537C613.644 51.3338 613.518 51.3239 613.384 51.3239C613.066 51.3239 612.782 51.3906 612.532 51.5241C612.285 51.6548 612.089 51.8366 611.944 52.0696C611.802 52.2997 611.731 52.5625 611.731 52.858V57H610.725ZM615.19 57V50.4545H616.196V57H615.19ZM615.701 49.3636C615.505 49.3636 615.336 49.2969 615.194 49.1634C615.055 49.0298 614.985 48.8693 614.985 48.6818C614.985 48.4943 615.055 48.3338 615.194 48.2003C615.336 48.0668 615.505 48 615.701 48C615.897 48 616.065 48.0668 616.204 48.2003C616.346 48.3338 616.417 48.4943 616.417 48.6818C616.417 48.8693 616.346 49.0298 616.204 49.1634C616.065 49.2969 615.897 49.3636 615.701 49.3636ZM619.043 53.0625V57H618.038V50.4545H619.009V51.4773H619.094C619.248 51.1449 619.481 50.8778 619.793 50.6761C620.106 50.4716 620.509 50.3693 621.004 50.3693C621.447 50.3693 621.835 50.4602 622.167 50.642C622.499 50.821 622.758 51.0938 622.942 51.4602C623.127 51.8239 623.219 52.2841 623.219 52.8409V57H622.214V52.9091C622.214 52.3949 622.08 51.9943 621.813 51.7074C621.546 51.4176 621.18 51.2727 620.714 51.2727C620.393 51.2727 620.106 51.3423 619.853 51.4815C619.603 51.6207 619.406 51.8239 619.261 52.0909C619.116 52.358 619.043 52.6818 619.043 53.0625ZM627.699 59.5909C627.213 59.5909 626.796 59.5284 626.446 59.4034C626.097 59.2812 625.806 59.1193 625.573 58.9176C625.343 58.7188 625.159 58.5057 625.023 58.2784L625.824 57.7159C625.915 57.8352 626.03 57.9716 626.169 58.125C626.309 58.2812 626.499 58.4162 626.74 58.5298C626.985 58.6463 627.304 58.7045 627.699 58.7045C628.228 58.7045 628.664 58.5767 629.007 58.321C629.351 58.0653 629.523 57.6648 629.523 57.1193V55.7898H629.438C629.364 55.9091 629.259 56.0568 629.123 56.233C628.989 56.4062 628.796 56.5611 628.543 56.6974C628.293 56.831 627.955 56.8977 627.529 56.8977C627 56.8977 626.526 56.7727 626.105 56.5227C625.688 56.2727 625.357 55.9091 625.113 55.4318C624.871 54.9545 624.75 54.375 624.75 53.6932C624.75 53.0227 624.868 52.4389 625.104 51.9418C625.34 51.4418 625.668 51.0554 626.088 50.7827C626.509 50.5071 626.995 50.3693 627.546 50.3693C627.972 50.3693 628.31 50.4403 628.56 50.5824C628.813 50.7216 629.006 50.8807 629.14 51.0597C629.276 51.2358 629.381 51.3807 629.455 51.4943H629.557V50.4545H630.529V57.1875C630.529 57.75 630.401 58.2074 630.145 58.5597C629.892 58.9148 629.551 59.1747 629.123 59.3395C628.696 59.5071 628.222 59.5909 627.699 59.5909ZM627.665 55.9943C628.069 55.9943 628.409 55.902 628.688 55.7173C628.966 55.5327 629.178 55.267 629.323 54.9205C629.468 54.5739 629.54 54.1591 629.54 53.6761C629.54 53.2045 629.469 52.7884 629.327 52.4276C629.185 52.0668 628.975 51.7841 628.696 51.5795C628.418 51.375 628.074 51.2727 627.665 51.2727C627.239 51.2727 626.884 51.3807 626.6 51.5966C626.319 51.8125 626.107 52.1023 625.965 52.4659C625.826 52.8295 625.756 53.233 625.756 53.6761C625.756 54.1307 625.827 54.5327 625.969 54.8821C626.114 55.2287 626.327 55.5014 626.608 55.7003C626.892 55.8963 627.245 55.9943 627.665 55.9943ZM635.745 57V50.4545H636.75V57H635.745ZM636.256 49.3636C636.06 49.3636 635.891 49.2969 635.749 49.1634C635.61 49.0298 635.54 48.8693 635.54 48.6818C635.54 48.4943 635.61 48.3338 635.749 48.2003C635.891 48.0668 636.06 48 636.256 48C636.452 48 636.62 48.0668 636.759 48.2003C636.901 48.3338 636.972 48.4943 636.972 48.6818C636.972 48.8693 636.901 49.0298 636.759 49.1634C636.62 49.2969 636.452 49.3636 636.256 49.3636ZM639.598 53.0625V57H638.592V50.4545H639.564V51.4773H639.649C639.803 51.1449 640.036 50.8778 640.348 50.6761C640.661 50.4716 641.064 50.3693 641.558 50.3693C642.001 50.3693 642.389 50.4602 642.722 50.642C643.054 50.821 643.313 51.0938 643.497 51.4602C643.682 51.8239 643.774 52.2841 643.774 52.8409V57H642.768V52.9091C642.768 52.3949 642.635 51.9943 642.368 51.7074C642.101 51.4176 641.734 51.2727 641.268 51.2727C640.947 51.2727 640.661 51.3423 640.408 51.4815C640.158 51.6207 639.96 51.8239 639.815 52.0909C639.67 52.358 639.598 52.6818 639.598 53.0625ZM651.902 50.4545V51.3068H648.373V50.4545H651.902ZM649.43 57V49.5511C649.43 49.1761 649.518 48.8636 649.694 48.6136C649.87 48.3636 650.099 48.1761 650.38 48.0511C650.662 47.9261 650.958 47.8636 651.271 47.8636C651.518 47.8636 651.72 47.8835 651.876 47.9233C652.032 47.9631 652.149 48 652.225 48.0341L651.936 48.9034C651.885 48.8864 651.814 48.8651 651.723 48.8395C651.635 48.8139 651.518 48.8011 651.373 48.8011C651.041 48.8011 650.801 48.8849 650.653 49.0526C650.508 49.2202 650.436 49.4659 650.436 49.7898V57H649.43ZM653.311 57V50.4545H654.317V57H653.311ZM653.822 49.3636C653.626 49.3636 653.457 49.2969 653.315 49.1634C653.176 49.0298 653.107 48.8693 653.107 48.6818C653.107 48.4943 653.176 48.3338 653.315 48.2003C653.457 48.0668 653.626 48 653.822 48C654.018 48 654.186 48.0668 654.325 48.2003C654.467 48.3338 654.538 48.4943 654.538 48.6818C654.538 48.8693 654.467 49.0298 654.325 49.1634C654.186 49.2969 654.018 49.3636 653.822 49.3636ZM657.164 48.2727V57H656.159V48.2727H657.164ZM661.751 57.1364C661.12 57.1364 660.576 56.9972 660.119 56.7188C659.664 56.4375 659.313 56.0455 659.066 55.5426C658.822 55.0369 658.7 54.4489 658.7 53.7784C658.7 53.108 658.822 52.517 659.066 52.0057C659.313 51.4915 659.657 51.0909 660.097 50.804C660.54 50.5142 661.058 50.3693 661.648 50.3693C661.989 50.3693 662.326 50.4261 662.658 50.5398C662.991 50.6534 663.293 50.8381 663.566 51.0938C663.839 51.3466 664.056 51.6818 664.218 52.0994C664.38 52.517 664.461 53.0312 664.461 53.642V54.0682H659.415V53.1989H663.438C663.438 52.8295 663.364 52.5 663.217 52.2102C663.072 51.9205 662.864 51.6918 662.594 51.5241C662.327 51.3565 662.012 51.2727 661.648 51.2727C661.248 51.2727 660.901 51.3722 660.609 51.571C660.319 51.767 660.096 52.0227 659.94 52.3381C659.783 52.6534 659.705 52.9915 659.705 53.3523V53.9318C659.705 54.4261 659.79 54.8452 659.961 55.1889C660.134 55.5298 660.374 55.7898 660.681 55.9688C660.988 56.1449 661.344 56.233 661.751 56.233C662.015 56.233 662.254 56.196 662.467 56.1222C662.683 56.0455 662.869 55.9318 663.025 55.7812C663.181 55.6278 663.302 55.4375 663.387 55.2102L664.359 55.483C664.256 55.8125 664.085 56.1023 663.843 56.3523C663.602 56.5994 663.303 56.7926 662.948 56.9318C662.593 57.0682 662.194 57.1364 661.751 57.1364ZM670.627 51.9205L669.724 52.1761C669.667 52.0256 669.583 51.8793 669.472 51.7372C669.364 51.5923 669.217 51.473 669.029 51.3793C668.842 51.2855 668.602 51.2386 668.309 51.2386C667.908 51.2386 667.575 51.331 667.308 51.5156C667.043 51.6974 666.911 51.929 666.911 52.2102C666.911 52.4602 667.002 52.6577 667.184 52.8026C667.366 52.9474 667.65 53.0682 668.036 53.1648L669.008 53.4034C669.593 53.5455 670.029 53.7628 670.316 54.0554C670.603 54.3452 670.746 54.7187 670.746 55.1761C670.746 55.5511 670.638 55.8864 670.423 56.1818C670.21 56.4773 669.911 56.7102 669.528 56.8807C669.144 57.0511 668.698 57.1364 668.19 57.1364C667.522 57.1364 666.969 56.9915 666.532 56.7017C666.094 56.4119 665.817 55.9886 665.701 55.4318L666.656 55.1932C666.746 55.5455 666.918 55.8097 667.171 55.9858C667.427 56.1619 667.761 56.25 668.173 56.25C668.641 56.25 669.013 56.1506 669.289 55.9517C669.567 55.75 669.707 55.5085 669.707 55.2273C669.707 55 669.627 54.8097 669.468 54.6562C669.309 54.5 669.065 54.3835 668.735 54.3068L667.644 54.0511C667.045 53.9091 666.604 53.6889 666.323 53.3906C666.045 53.0895 665.906 52.7131 665.906 52.2614C665.906 51.892 666.009 51.5653 666.217 51.2812C666.427 50.9972 666.712 50.7741 667.073 50.6122C667.437 50.4503 667.849 50.3693 668.309 50.3693C668.957 50.3693 669.465 50.5114 669.835 50.7955C670.207 51.0795 670.471 51.4545 670.627 51.9205ZM678.55 50.4545V51.3068H675.022V50.4545H678.55ZM676.078 57V49.5511C676.078 49.1761 676.167 48.8636 676.343 48.6136C676.519 48.3636 676.748 48.1761 677.029 48.0511C677.31 47.9261 677.607 47.8636 677.919 47.8636C678.167 47.8636 678.368 47.8835 678.525 47.9233C678.681 47.9631 678.797 48 678.874 48.0341L678.584 48.9034C678.533 48.8864 678.462 48.8651 678.371 48.8395C678.283 48.8139 678.167 48.8011 678.022 48.8011C677.689 48.8011 677.449 48.8849 677.301 49.0526C677.157 49.2202 677.084 49.4659 677.084 49.7898V57H676.078ZM679.96 57V50.4545H680.931V51.4432H680.999C681.119 51.1193 681.335 50.8565 681.647 50.6548C681.96 50.4531 682.312 50.3523 682.704 50.3523C682.778 50.3523 682.87 50.3537 682.981 50.3565C683.092 50.3594 683.175 50.3636 683.232 50.3693V51.392C683.198 51.3835 683.12 51.3707 682.998 51.3537C682.879 51.3338 682.752 51.3239 682.619 51.3239C682.3 51.3239 682.016 51.3906 681.766 51.5241C681.519 51.6548 681.323 51.8366 681.178 52.0696C681.036 52.2997 680.965 52.5625 680.965 52.858V57H679.96ZM686.884 57.1364C686.293 57.1364 685.775 56.9957 685.329 56.7145C684.886 56.4332 684.539 56.0398 684.289 55.5341C684.042 55.0284 683.918 54.4375 683.918 53.7614C683.918 53.0795 684.042 52.4844 684.289 51.9759C684.539 51.4673 684.886 51.0724 685.329 50.7912C685.775 50.5099 686.293 50.3693 686.884 50.3693C687.475 50.3693 687.992 50.5099 688.435 50.7912C688.881 51.0724 689.228 51.4673 689.475 51.9759C689.725 52.4844 689.85 53.0795 689.85 53.7614C689.85 54.4375 689.725 55.0284 689.475 55.5341C689.228 56.0398 688.881 56.4332 688.435 56.7145C687.992 56.9957 687.475 57.1364 686.884 57.1364ZM686.884 56.233C687.333 56.233 687.702 56.1179 687.992 55.8878C688.282 55.6577 688.496 55.3551 688.636 54.9801C688.775 54.6051 688.844 54.1989 688.844 53.7614C688.844 53.3239 688.775 52.9162 688.636 52.5384C688.496 52.1605 688.282 51.8551 687.992 51.6222C687.702 51.3892 687.333 51.2727 686.884 51.2727C686.435 51.2727 686.066 51.3892 685.776 51.6222C685.487 51.8551 685.272 52.1605 685.133 52.5384C684.994 52.9162 684.924 53.3239 684.924 53.7614C684.924 54.1989 684.994 54.6051 685.133 54.9801C685.272 55.3551 685.487 55.6577 685.776 55.8878C686.066 56.1179 686.435 56.233 686.884 56.233ZM691.385 57V50.4545H692.357V51.4773H692.442C692.578 51.1278 692.799 50.8565 693.103 50.6634C693.407 50.4673 693.772 50.3693 694.198 50.3693C694.63 50.3693 694.989 50.4673 695.276 50.6634C695.566 50.8565 695.792 51.1278 695.953 51.4773H696.022C696.189 51.1392 696.441 50.8707 696.776 50.6719C697.111 50.4702 697.513 50.3693 697.982 50.3693C698.567 50.3693 699.046 50.5526 699.418 50.919C699.79 51.2827 699.976 51.8494 699.976 52.6193V57H698.971V52.6193C698.971 52.1364 698.838 51.7912 698.574 51.5838C698.31 51.3764 697.999 51.2727 697.641 51.2727C697.181 51.2727 696.824 51.4119 696.571 51.6903C696.319 51.9659 696.192 52.3153 696.192 52.7386V57H695.169V52.517C695.169 52.1449 695.049 51.8452 694.807 51.6179C694.566 51.3878 694.255 51.2727 693.874 51.2727C693.613 51.2727 693.368 51.3423 693.141 51.4815C692.917 51.6207 692.735 51.8139 692.596 52.0611C692.459 52.3054 692.391 52.5881 692.391 52.9091V57H691.385ZM706.196 53.0625V57H705.19V50.4545H706.162V51.4773H706.247C706.4 51.1449 706.633 50.8778 706.946 50.6761C707.258 50.4716 707.662 50.3693 708.156 50.3693C708.599 50.3693 708.987 50.4602 709.319 50.642C709.652 50.821 709.91 51.0938 710.095 51.4602C710.279 51.8239 710.372 52.2841 710.372 52.8409V57H709.366V52.9091C709.366 52.3949 709.233 51.9943 708.966 51.7074C708.699 51.4176 708.332 51.2727 707.866 51.2727C707.545 51.2727 707.258 51.3423 707.005 51.4815C706.755 51.6207 706.558 51.8239 706.413 52.0909C706.268 52.358 706.196 52.6818 706.196 53.0625ZM714.954 57.1364C714.323 57.1364 713.779 56.9972 713.322 56.7188C712.867 56.4375 712.516 56.0455 712.269 55.5426C712.025 55.0369 711.903 54.4489 711.903 53.7784C711.903 53.108 712.025 52.517 712.269 52.0057C712.516 51.4915 712.86 51.0909 713.3 50.804C713.744 50.5142 714.261 50.3693 714.852 50.3693C715.192 50.3693 715.529 50.4261 715.862 50.5398C716.194 50.6534 716.496 50.8381 716.769 51.0938C717.042 51.3466 717.259 51.6818 717.421 52.0994C717.583 52.517 717.664 53.0312 717.664 53.642V54.0682H712.619V53.1989H716.641C716.641 52.8295 716.567 52.5 716.42 52.2102C716.275 51.9205 716.067 51.6918 715.798 51.5241C715.531 51.3565 715.215 51.2727 714.852 51.2727C714.451 51.2727 714.104 51.3722 713.812 51.571C713.522 51.767 713.299 52.0227 713.143 52.3381C712.987 52.6534 712.908 52.9915 712.908 53.3523V53.9318C712.908 54.4261 712.994 54.8452 713.164 55.1889C713.337 55.5298 713.577 55.7898 713.884 55.9688C714.191 56.1449 714.548 56.233 714.954 56.233C715.218 56.233 715.457 56.196 715.67 56.1222C715.886 56.0455 716.072 55.9318 716.228 55.7812C716.384 55.6278 716.505 55.4375 716.59 55.2102L717.562 55.483C717.46 55.8125 717.288 56.1023 717.046 56.3523C716.805 56.5994 716.506 56.7926 716.151 56.9318C715.796 57.0682 715.397 57.1364 714.954 57.1364ZM721.12 57.1534C720.705 57.1534 720.329 57.0753 719.991 56.919C719.653 56.7599 719.384 56.5312 719.185 56.233C718.987 55.9318 718.887 55.5682 718.887 55.142C718.887 54.767 718.961 54.4631 719.109 54.2301C719.256 53.9943 719.454 53.8097 719.701 53.6761C719.948 53.5426 720.221 53.4432 720.519 53.3778C720.82 53.3097 721.123 53.2557 721.427 53.2159C721.825 53.1648 722.147 53.1264 722.394 53.1009C722.644 53.0724 722.826 53.0256 722.94 52.9602C723.056 52.8949 723.114 52.7812 723.114 52.6193V52.5852C723.114 52.1648 722.999 51.8381 722.769 51.6051C722.542 51.3722 722.197 51.2557 721.734 51.2557C721.254 51.2557 720.877 51.3608 720.604 51.571C720.332 51.7812 720.14 52.0057 720.029 52.2443L719.075 51.9034C719.245 51.5057 719.472 51.196 719.756 50.9744C720.043 50.75 720.356 50.5937 720.694 50.5057C721.035 50.4148 721.37 50.3693 721.7 50.3693C721.91 50.3693 722.151 50.3949 722.424 50.446C722.7 50.4943 722.965 50.5952 723.221 50.7486C723.479 50.902 723.694 51.1335 723.864 51.4432C724.035 51.7528 724.12 52.1676 724.12 52.6875V57H723.114V56.1136H723.063C722.995 56.2557 722.881 56.4077 722.722 56.5696C722.563 56.7315 722.352 56.8693 722.087 56.983C721.823 57.0966 721.501 57.1534 721.12 57.1534ZM721.273 56.25C721.671 56.25 722.006 56.1719 722.279 56.0156C722.555 55.8594 722.762 55.6577 722.901 55.4105C723.043 55.1634 723.114 54.9034 723.114 54.6307V53.7102C723.072 53.7614 722.978 53.8082 722.833 53.8509C722.691 53.8906 722.526 53.9261 722.339 53.9574C722.154 53.9858 721.974 54.0114 721.798 54.0341C721.624 54.054 721.484 54.071 721.376 54.0852C721.114 54.1193 720.87 54.1747 720.643 54.2514C720.418 54.3253 720.237 54.4375 720.097 54.5881C719.961 54.7358 719.893 54.9375 719.893 55.1932C719.893 55.5426 720.022 55.8068 720.281 55.9858C720.542 56.1619 720.873 56.25 721.273 56.25ZM725.956 57V50.4545H726.927V51.4432H726.995C727.115 51.1193 727.331 50.8565 727.643 50.6548C727.956 50.4531 728.308 50.3523 728.7 50.3523C728.774 50.3523 728.866 50.3537 728.977 50.3565C729.088 50.3594 729.172 50.3636 729.228 50.3693V51.392C729.194 51.3835 729.116 51.3707 728.994 51.3537C728.875 51.3338 728.748 51.3239 728.615 51.3239C728.297 51.3239 728.012 51.3906 727.762 51.5241C727.515 51.6548 727.319 51.8366 727.174 52.0696C727.032 52.2997 726.961 52.5625 726.961 52.858V57H725.956ZM730.557 57V48.2727H731.562V51.4943H731.648C731.722 51.3807 731.824 51.2358 731.955 51.0597C732.088 50.8807 732.278 50.7216 732.526 50.5824C732.776 50.4403 733.114 50.3693 733.54 50.3693C734.091 50.3693 734.577 50.5071 734.997 50.7827C735.418 51.0582 735.746 51.4489 735.982 51.9545C736.217 52.4602 736.335 53.0568 736.335 53.7443C736.335 54.4375 736.217 55.0384 735.982 55.5469C735.746 56.0526 735.419 56.4446 735.001 56.723C734.584 56.9986 734.102 57.1364 733.557 57.1364C733.136 57.1364 732.8 57.0668 732.547 56.9276C732.294 56.7855 732.099 56.625 731.963 56.446C731.827 56.2642 731.722 56.1136 731.648 55.9943H731.528V57H730.557ZM731.545 53.7273C731.545 54.2216 731.618 54.6577 731.763 55.0355C731.908 55.4105 732.119 55.7045 732.398 55.9176C732.676 56.1278 733.017 56.233 733.42 56.233C733.841 56.233 734.192 56.1222 734.473 55.9006C734.757 55.6761 734.97 55.375 735.112 54.9972C735.257 54.6165 735.33 54.1932 735.33 53.7273C735.33 53.267 735.259 52.8523 735.116 52.483C734.977 52.1108 734.766 51.8168 734.482 51.6009C734.2 51.3821 733.847 51.2727 733.42 51.2727C733.011 51.2727 732.668 51.3764 732.389 51.5838C732.111 51.7884 731.901 52.0753 731.759 52.4446C731.616 52.8111 731.545 53.2386 731.545 53.7273ZM738.287 59.4545C738.116 59.4545 737.964 59.4403 737.831 59.4119C737.697 59.3864 737.605 59.3608 737.554 59.3352L737.81 58.4489C738.054 58.5114 738.27 58.5341 738.457 58.517C738.645 58.5 738.811 58.4162 738.956 58.2656C739.104 58.1179 739.239 57.8778 739.361 57.5455L739.548 57.0341L737.128 50.4545H738.219L740.026 55.6705H740.094L741.901 50.4545H742.991L740.213 57.9545C740.088 58.2926 739.933 58.5724 739.749 58.794C739.564 59.0185 739.349 59.1847 739.105 59.2926C738.864 59.4006 738.591 59.4545 738.287 59.4545ZM750.165 57.1364C749.62 57.1364 749.138 56.9986 748.721 56.723C748.303 56.4446 747.977 56.0526 747.741 55.5469C747.505 55.0384 747.387 54.4375 747.387 53.7443C747.387 53.0568 747.505 52.4602 747.741 51.9545C747.977 51.4489 748.305 51.0582 748.725 50.7827C749.146 50.5071 749.631 50.3693 750.183 50.3693C750.609 50.3693 750.945 50.4403 751.192 50.5824C751.442 50.7216 751.633 50.8807 751.763 51.0597C751.897 51.2358 752.001 51.3807 752.075 51.4943H752.16V48.2727H753.165V57H752.194V55.9943H752.075C752.001 56.1136 751.896 56.2642 751.759 56.446C751.623 56.625 751.428 56.7855 751.175 56.9276C750.923 57.0668 750.586 57.1364 750.165 57.1364ZM750.302 56.233C750.705 56.233 751.046 56.1278 751.325 55.9176C751.603 55.7045 751.815 55.4105 751.96 55.0355C752.104 54.6577 752.177 54.2216 752.177 53.7273C752.177 53.2386 752.106 52.8111 751.964 52.4446C751.822 52.0753 751.612 51.7884 751.333 51.5838C751.055 51.3764 750.711 51.2727 750.302 51.2727C749.876 51.2727 749.521 51.3821 749.237 51.6009C748.955 51.8168 748.744 52.1108 748.602 52.483C748.462 52.8523 748.393 53.267 748.393 53.7273C748.393 54.1932 748.464 54.6165 748.606 54.9972C748.751 55.375 748.964 55.6761 749.245 55.9006C749.529 56.1222 749.881 56.233 750.302 56.233ZM757.891 57.1364C757.261 57.1364 756.717 56.9972 756.259 56.7188C755.805 56.4375 755.454 56.0455 755.207 55.5426C754.962 55.0369 754.84 54.4489 754.84 53.7784C754.84 53.108 754.962 52.517 755.207 52.0057C755.454 51.4915 755.798 51.0909 756.238 50.804C756.681 50.5142 757.198 50.3693 757.789 50.3693C758.13 50.3693 758.467 50.4261 758.799 50.5398C759.131 50.6534 759.434 50.8381 759.707 51.0938C759.979 51.3466 760.197 51.6818 760.359 52.0994C760.521 52.517 760.602 53.0312 760.602 53.642V54.0682H755.556V53.1989H759.579C759.579 52.8295 759.505 52.5 759.357 52.2102C759.212 51.9205 759.005 51.6918 758.735 51.5241C758.468 51.3565 758.153 51.2727 757.789 51.2727C757.388 51.2727 757.042 51.3722 756.749 51.571C756.46 51.767 756.237 52.0227 756.08 52.3381C755.924 52.6534 755.846 52.9915 755.846 53.3523V53.9318C755.846 54.4261 755.931 54.8452 756.102 55.1889C756.275 55.5298 756.515 55.7898 756.822 55.9688C757.129 56.1449 757.485 56.233 757.891 56.233C758.156 56.233 758.394 56.196 758.607 56.1222C758.823 56.0455 759.009 55.9318 759.165 55.7812C759.322 55.6278 759.442 55.4375 759.528 55.2102L760.499 55.483C760.397 55.8125 760.225 56.1023 759.984 56.3523C759.742 56.5994 759.444 56.7926 759.089 56.9318C758.734 57.0682 758.335 57.1364 757.891 57.1364ZM767.284 50.4545L764.864 57H763.841L761.421 50.4545H762.512L764.319 55.6705H764.387L766.194 50.4545H767.284ZM768.612 57V50.4545H769.618V57H768.612ZM769.123 49.3636C768.927 49.3636 768.758 49.2969 768.616 49.1634C768.477 49.0298 768.407 48.8693 768.407 48.6818C768.407 48.4943 768.477 48.3338 768.616 48.2003C768.758 48.0668 768.927 48 769.123 48C769.319 48 769.487 48.0668 769.626 48.2003C769.768 48.3338 769.839 48.4943 769.839 48.6818C769.839 48.8693 769.768 49.0298 769.626 49.1634C769.487 49.2969 769.319 49.3636 769.123 49.3636ZM774.119 57.1364C773.505 57.1364 772.977 56.9915 772.533 56.7017C772.09 56.4119 771.749 56.0128 771.511 55.5043C771.272 54.9957 771.153 54.4148 771.153 53.7614C771.153 53.0966 771.275 52.5099 771.519 52.0014C771.766 51.4901 772.11 51.0909 772.55 50.804C772.994 50.5142 773.511 50.3693 774.102 50.3693C774.562 50.3693 774.977 50.4545 775.346 50.625C775.715 50.7955 776.018 51.0341 776.254 51.3409C776.489 51.6477 776.636 52.0057 776.692 52.4148H775.687C775.61 52.1165 775.44 51.8523 775.175 51.6222C774.914 51.3892 774.562 51.2727 774.119 51.2727C773.727 51.2727 773.383 51.375 773.087 51.5795C772.795 51.7812 772.566 52.0668 772.401 52.4361C772.239 52.8026 772.158 53.233 772.158 53.7273C772.158 54.233 772.238 54.6733 772.397 55.0483C772.559 55.4233 772.786 55.7145 773.079 55.9219C773.374 56.1293 773.721 56.233 774.119 56.233C774.38 56.233 774.617 56.1875 774.83 56.0966C775.043 56.0057 775.224 55.875 775.371 55.7045C775.519 55.5341 775.624 55.3295 775.687 55.0909H776.692C776.636 55.4773 776.495 55.8253 776.271 56.1349C776.049 56.4418 775.755 56.6861 775.388 56.8679C775.025 57.0469 774.602 57.1364 774.119 57.1364ZM780.907 57.1364C780.276 57.1364 779.732 56.9972 779.275 56.7188C778.82 56.4375 778.469 56.0455 778.222 55.5426C777.978 55.0369 777.856 54.4489 777.856 53.7784C777.856 53.108 777.978 52.517 778.222 52.0057C778.469 51.4915 778.813 51.0909 779.254 50.804C779.697 50.5142 780.214 50.3693 780.805 50.3693C781.146 50.3693 781.482 50.4261 781.815 50.5398C782.147 50.6534 782.45 50.8381 782.722 51.0938C782.995 51.3466 783.212 51.6818 783.374 52.0994C783.536 52.517 783.617 53.0312 783.617 53.642V54.0682H778.572V53.1989H782.594C782.594 52.8295 782.521 52.5 782.373 52.2102C782.228 51.9205 782.021 51.6918 781.751 51.5241C781.484 51.3565 781.168 51.2727 780.805 51.2727C780.404 51.2727 780.058 51.3722 779.765 51.571C779.475 51.767 779.252 52.0227 779.096 52.3381C778.94 52.6534 778.862 52.9915 778.862 53.3523V53.9318C778.862 54.4261 778.947 54.8452 779.117 55.1889C779.29 55.5298 779.531 55.7898 779.837 55.9688C780.144 56.1449 780.501 56.233 780.907 56.233C781.171 56.233 781.41 56.196 781.623 56.1222C781.839 56.0455 782.025 55.9318 782.181 55.7812C782.337 55.6278 782.458 55.4375 782.543 55.2102L783.515 55.483C783.413 55.8125 783.241 56.1023 782.999 56.3523C782.758 56.5994 782.46 56.7926 782.104 56.9318C781.749 57.0682 781.35 57.1364 780.907 57.1364ZM789.783 51.9205L788.88 52.1761C788.823 52.0256 788.739 51.8793 788.629 51.7372C788.521 51.5923 788.373 51.473 788.185 51.3793C787.998 51.2855 787.758 51.2386 787.465 51.2386C787.065 51.2386 786.731 51.331 786.464 51.5156C786.2 51.6974 786.067 51.929 786.067 52.2102C786.067 52.4602 786.158 52.6577 786.34 52.8026C786.522 52.9474 786.806 53.0682 787.192 53.1648L788.164 53.4034C788.749 53.5455 789.185 53.7628 789.472 54.0554C789.759 54.3452 789.903 54.7187 789.903 55.1761C789.903 55.5511 789.795 55.8864 789.579 56.1818C789.366 56.4773 789.067 56.7102 788.684 56.8807C788.3 57.0511 787.854 57.1364 787.346 57.1364C786.678 57.1364 786.126 56.9915 785.688 56.7017C785.251 56.4119 784.974 55.9886 784.857 55.4318L785.812 55.1932C785.903 55.5455 786.075 55.8097 786.327 55.9858C786.583 56.1619 786.917 56.25 787.329 56.25C787.798 56.25 788.17 56.1506 788.445 55.9517C788.724 55.75 788.863 55.5085 788.863 55.2273C788.863 55 788.783 54.8097 788.624 54.6562C788.465 54.5 788.221 54.3835 787.891 54.3068L786.8 54.0511C786.201 53.9091 785.761 53.6889 785.479 53.3906C785.201 53.0895 785.062 52.7131 785.062 52.2614C785.062 51.892 785.165 51.5653 785.373 51.2812C785.583 50.9972 785.869 50.7741 786.229 50.6122C786.593 50.4503 787.005 50.3693 787.465 50.3693C788.113 50.3693 788.621 50.5114 788.991 50.7955C789.363 51.0795 789.627 51.4545 789.783 51.9205Z" fill="#AAAAAA"/>
<rect x="665" y="19" width="56" height="19" rx="3" fill="#0068B5"/>
<path d="M675.926 28.0625V32H674.92V25.4545H675.892V26.4773H675.977C676.131 26.1449 676.364 25.8778 676.676 25.6761C676.989 25.4716 677.392 25.3693 677.886 25.3693C678.33 25.3693 678.717 25.4602 679.05 25.642C679.382 25.821 679.641 26.0938 679.825 26.4602C680.01 26.8239 680.102 27.2841 680.102 27.8409V32H679.097V27.9091C679.097 27.3949 678.963 26.9943 678.696 26.7074C678.429 26.4176 678.063 26.2727 677.597 26.2727C677.276 26.2727 676.989 26.3423 676.736 26.4815C676.486 26.6207 676.288 26.8239 676.143 27.0909C675.999 27.358 675.926 27.6818 675.926 28.0625ZM684.684 32.1364C684.054 32.1364 683.51 31.9972 683.052 31.7188C682.598 31.4375 682.247 31.0455 682 30.5426C681.755 30.0369 681.633 29.4489 681.633 28.7784C681.633 28.108 681.755 27.517 682 27.0057C682.247 26.4915 682.591 26.0909 683.031 25.804C683.474 25.5142 683.991 25.3693 684.582 25.3693C684.923 25.3693 685.26 25.4261 685.592 25.5398C685.924 25.6534 686.227 25.8381 686.5 26.0938C686.772 26.3466 686.99 26.6818 687.152 27.0994C687.314 27.517 687.395 28.0312 687.395 28.642V29.0682H682.349V28.1989H686.372C686.372 27.8295 686.298 27.5 686.15 27.2102C686.005 26.9205 685.798 26.6918 685.528 26.5241C685.261 26.3565 684.946 26.2727 684.582 26.2727C684.181 26.2727 683.835 26.3722 683.542 26.571C683.252 26.767 683.029 27.0227 682.873 27.3381C682.717 27.6534 682.639 27.9915 682.639 28.3523V28.9318C682.639 29.4261 682.724 29.8452 682.895 30.1889C683.068 30.5298 683.308 30.7898 683.615 30.9688C683.922 31.1449 684.278 31.233 684.684 31.233C684.949 31.233 685.187 31.196 685.4 31.1222C685.616 31.0455 685.802 30.9318 685.958 30.7812C686.115 30.6278 686.235 30.4375 686.321 30.2102L687.292 30.483C687.19 30.8125 687.018 31.1023 686.777 31.3523C686.535 31.5994 686.237 31.7926 685.882 31.9318C685.527 32.0682 685.127 32.1364 684.684 32.1364ZM690.85 32.1534C690.436 32.1534 690.059 32.0753 689.721 31.919C689.383 31.7599 689.115 31.5312 688.916 31.233C688.717 30.9318 688.618 30.5682 688.618 30.142C688.618 29.767 688.691 29.4631 688.839 29.2301C688.987 28.9943 689.184 28.8097 689.431 28.6761C689.679 28.5426 689.951 28.4432 690.25 28.3778C690.551 28.3097 690.853 28.2557 691.157 28.2159C691.555 28.1648 691.877 28.1264 692.125 28.1009C692.375 28.0724 692.556 28.0256 692.67 27.9602C692.787 27.8949 692.845 27.7812 692.845 27.6193V27.5852C692.845 27.1648 692.73 26.8381 692.5 26.6051C692.272 26.3722 691.927 26.2557 691.464 26.2557C690.984 26.2557 690.608 26.3608 690.335 26.571C690.062 26.7812 689.87 27.0057 689.76 27.2443L688.805 26.9034C688.975 26.5057 689.203 26.196 689.487 25.9744C689.774 25.75 690.086 25.5937 690.424 25.5057C690.765 25.4148 691.1 25.3693 691.43 25.3693C691.64 25.3693 691.882 25.3949 692.154 25.446C692.43 25.4943 692.696 25.5952 692.951 25.7486C693.21 25.902 693.424 26.1335 693.595 26.4432C693.765 26.7528 693.85 27.1676 693.85 27.6875V32H692.845V31.1136H692.794C692.725 31.2557 692.612 31.4077 692.453 31.5696C692.294 31.7315 692.082 31.8693 691.818 31.983C691.554 32.0966 691.231 32.1534 690.85 32.1534ZM691.004 31.25C691.402 31.25 691.737 31.1719 692.01 31.0156C692.285 30.8594 692.493 30.6577 692.632 30.4105C692.774 30.1634 692.845 29.9034 692.845 29.6307V28.7102C692.802 28.7614 692.708 28.8082 692.564 28.8509C692.422 28.8906 692.257 28.9261 692.069 28.9574C691.885 28.9858 691.704 29.0114 691.528 29.0341C691.355 29.054 691.214 29.071 691.106 29.0852C690.845 29.1193 690.6 29.1747 690.373 29.2514C690.149 29.3253 689.967 29.4375 689.828 29.5881C689.691 29.7358 689.623 29.9375 689.623 30.1932C689.623 30.5426 689.752 30.8068 690.011 30.9858C690.272 31.1619 690.603 31.25 691.004 31.25ZM695.686 32V25.4545H696.658V26.4432H696.726C696.845 26.1193 697.061 25.8565 697.374 25.6548C697.686 25.4531 698.038 25.3523 698.43 25.3523C698.504 25.3523 698.597 25.3537 698.707 25.3565C698.818 25.3594 698.902 25.3636 698.959 25.3693V26.392C698.925 26.3835 698.847 26.3707 698.724 26.3537C698.605 26.3338 698.479 26.3239 698.345 26.3239C698.027 26.3239 697.743 26.3906 697.493 26.5241C697.246 26.6548 697.05 26.8366 696.905 27.0696C696.763 27.2997 696.692 27.5625 696.692 27.858V32H695.686ZM700.287 32V23.2727H701.293V26.4943H701.378C701.452 26.3807 701.554 26.2358 701.685 26.0597C701.819 25.8807 702.009 25.7216 702.256 25.5824C702.506 25.4403 702.844 25.3693 703.27 25.3693C703.821 25.3693 704.307 25.5071 704.728 25.7827C705.148 26.0582 705.476 26.4489 705.712 26.9545C705.948 27.4602 706.066 28.0568 706.066 28.7443C706.066 29.4375 705.948 30.0384 705.712 30.5469C705.476 31.0526 705.15 31.4446 704.732 31.723C704.314 31.9986 703.833 32.1364 703.287 32.1364C702.867 32.1364 702.53 32.0668 702.277 31.9276C702.025 31.7855 701.83 31.625 701.694 31.446C701.557 31.2642 701.452 31.1136 701.378 30.9943H701.259V32H700.287ZM701.276 28.7273C701.276 29.2216 701.348 29.6577 701.493 30.0355C701.638 30.4105 701.85 30.7045 702.128 30.9176C702.407 31.1278 702.748 31.233 703.151 31.233C703.571 31.233 703.922 31.1222 704.203 30.9006C704.488 30.6761 704.701 30.375 704.843 29.9972C704.988 29.6165 705.06 29.1932 705.06 28.7273C705.06 28.267 704.989 27.8523 704.847 27.483C704.708 27.1108 704.496 26.8168 704.212 26.6009C703.931 26.3821 703.577 26.2727 703.151 26.2727C702.742 26.2727 702.398 26.3764 702.12 26.5838C701.841 26.7884 701.631 27.0753 701.489 27.4446C701.347 27.8111 701.276 28.2386 701.276 28.7273ZM708.017 34.4545C707.847 34.4545 707.695 34.4403 707.561 34.4119C707.428 34.3864 707.336 34.3608 707.284 34.3352L707.54 33.4489C707.784 33.5114 708 33.5341 708.188 33.517C708.375 33.5 708.542 33.4162 708.686 33.2656C708.834 33.1179 708.969 32.8778 709.091 32.5455L709.279 32.0341L706.858 25.4545H707.949L709.756 30.6705H709.824L711.631 25.4545H712.722L709.944 32.9545C709.819 33.2926 709.664 33.5724 709.479 33.794C709.294 34.0185 709.08 34.1847 708.836 34.2926C708.594 34.4006 708.321 34.4545 708.017 34.4545Z" fill="white"/>
</svg>
