<svg width="134" height="136" viewBox="0 0 134 136" fill="none" xmlns="http://www.w3.org/2000/svg">
<path d="M25.6 11.96C25.6 15.4946 22.7346 18.36 19.2 18.36C15.6654 18.36 12.8 15.4946 12.8 11.96C12.8 8.42539 15.6654 5.56001 19.2 5.56001C22.7346 5.56001 25.6 8.42539 25.6 11.96Z" stroke="#666666" stroke-width="3.2" stroke-linecap="round" stroke-linejoin="round"/>
<path d="M19.2 23.16C13.0144 23.16 8 28.1744 8 34.36H30.4C30.4 28.1744 25.3856 23.16 19.2 23.16Z" stroke="#666666" stroke-width="3.2" stroke-linecap="round" stroke-linejoin="round"/>
<path d="M121.2 11.96C121.2 15.4946 118.335 18.36 114.8 18.36C111.265 18.36 108.4 15.4946 108.4 11.96C108.4 8.42539 111.265 5.56001 114.8 5.56001C118.335 5.56001 121.2 8.42539 121.2 11.96Z" stroke="#666666" stroke-width="3.2" stroke-linecap="round" stroke-linejoin="round"/>
<path d="M114.8 23.16C108.614 23.16 103.6 28.1744 103.6 34.36H126C126 28.1744 120.986 23.16 114.8 23.16Z" stroke="#666666" stroke-width="3.2" stroke-linecap="round" stroke-linejoin="round"/>
<path d="M0.512695 42.9207V42.3299C0.512695 42.1314 0.545247 41.9247 0.610352 41.7098C0.678711 41.4917 0.776367 41.2834 0.90332 41.0848C1.03027 40.883 1.18327 40.7088 1.3623 40.5623L1.875 40.9188C1.72526 41.1336 1.6097 41.355 1.52832 41.5829C1.44694 41.8075 1.40625 42.0516 1.40625 42.3153V42.9207H0.512695ZM2.05078 42.9207V42.3299C2.05078 42.1314 2.08333 41.9247 2.14844 41.7098C2.2168 41.4917 2.31445 41.2834 2.44141 41.0848C2.56836 40.883 2.72135 40.7088 2.90039 40.5623L3.41309 40.9188C3.26335 41.1336 3.14779 41.355 3.06641 41.5829C2.98503 41.8075 2.94434 42.0516 2.94434 42.3153V42.9207H2.05078ZM4.6582 41.0506H5.57129L7.90039 46.8465L10.2246 41.0506H11.1426L8.25195 48.16H7.53906L4.6582 41.0506ZM4.36035 41.0506H5.16602L5.29785 45.3866V48.16H4.36035V41.0506ZM10.6299 41.0506H11.4355V48.16H10.498V45.3866L10.6299 41.0506ZM14.4385 47.6131L15.9082 42.8768H16.875L14.7559 48.9754C14.707 49.1056 14.6419 49.2456 14.5605 49.3954C14.4824 49.5484 14.3815 49.6932 14.2578 49.8299C14.1341 49.9666 13.9844 50.0773 13.8086 50.162C13.6361 50.2498 13.4294 50.2938 13.1885 50.2938C13.1169 50.2938 13.0257 50.284 12.915 50.2645C12.8044 50.245 12.7262 50.2287 12.6807 50.2157L12.6758 49.4832C12.7018 49.4865 12.7425 49.4898 12.7979 49.493C12.8564 49.4995 12.8971 49.5028 12.9199 49.5028C13.125 49.5028 13.2992 49.4751 13.4424 49.4198C13.5856 49.3677 13.7061 49.2782 13.8037 49.1512C13.9046 49.0275 13.9909 48.8566 14.0625 48.6385L14.4385 47.6131ZM13.3594 42.8768L14.7314 46.9784L14.9658 47.9305L14.3164 48.2625L12.373 42.8768H13.3594ZM21.6162 46.3631C21.6162 46.1971 21.5902 46.0506 21.5381 45.9237C21.4893 45.7935 21.4014 45.6763 21.2744 45.5721C21.1507 45.4679 20.9782 45.3687 20.7568 45.2743C20.5387 45.1799 20.262 45.0838 19.9268 44.9862C19.5752 44.882 19.2578 44.7664 18.9746 44.6395C18.6914 44.5093 18.4489 44.3612 18.2471 44.1952C18.0452 44.0291 17.8906 43.8387 17.7832 43.6239C17.6758 43.409 17.6221 43.1633 17.6221 42.8866C17.6221 42.6099 17.679 42.3543 17.793 42.12C17.9069 41.8856 18.0697 41.6821 18.2812 41.5096C18.4961 41.3338 18.7516 41.1971 19.0479 41.0995C19.3441 41.0018 19.6745 40.953 20.0391 40.953C20.5729 40.953 21.0254 41.0555 21.3965 41.2606C21.7708 41.4624 22.0557 41.7277 22.251 42.0565C22.4463 42.382 22.5439 42.7303 22.5439 43.1014H21.6064C21.6064 42.8345 21.5495 42.5985 21.4355 42.3934C21.3216 42.1851 21.1491 42.0223 20.918 41.9051C20.6868 41.7847 20.3939 41.7245 20.0391 41.7245C19.7038 41.7245 19.4271 41.7749 19.209 41.8758C18.9909 41.9767 18.8281 42.1135 18.7207 42.286C18.6165 42.4585 18.5645 42.6554 18.5645 42.8768C18.5645 43.0265 18.5954 43.1633 18.6572 43.287C18.7223 43.4074 18.8216 43.5197 18.9551 43.6239C19.0918 43.728 19.2643 43.8241 19.4727 43.912C19.6842 43.9998 19.9365 44.0845 20.2295 44.1659C20.6331 44.2798 20.9814 44.4067 21.2744 44.5467C21.5674 44.6867 21.8083 44.8446 21.9971 45.0204C22.1891 45.1929 22.3307 45.3898 22.4219 45.6112C22.5163 45.8293 22.5635 46.0767 22.5635 46.3534C22.5635 46.6431 22.5049 46.9051 22.3877 47.1395C22.2705 47.3739 22.1029 47.5741 21.8848 47.7401C21.6667 47.9061 21.4046 48.0347 21.0986 48.1258C20.7959 48.2137 20.4574 48.2577 20.083 48.2577C19.7542 48.2577 19.4303 48.2121 19.1113 48.1209C18.7956 48.0298 18.5075 47.8931 18.2471 47.7108C17.9899 47.5285 17.7832 47.3039 17.627 47.037C17.474 46.7668 17.3975 46.4543 17.3975 46.0995H18.335C18.335 46.3436 18.3822 46.5536 18.4766 46.7293C18.571 46.9019 18.6995 47.0451 18.8623 47.159C19.0283 47.273 19.2155 47.3576 19.4238 47.4129C19.6354 47.465 19.8551 47.4911 20.083 47.4911C20.4118 47.4911 20.6901 47.4455 20.918 47.3543C21.1458 47.2632 21.3184 47.133 21.4355 46.9637C21.556 46.7944 21.6162 46.5942 21.6162 46.3631ZM25.8203 48.2577C25.4525 48.2577 25.1188 48.1958 24.8193 48.0721C24.5231 47.9452 24.2676 47.7678 24.0527 47.5399C23.8411 47.312 23.6784 47.0418 23.5645 46.7293C23.4505 46.4168 23.3936 46.075 23.3936 45.7039V45.4989C23.3936 45.0692 23.457 44.6867 23.584 44.3514C23.7109 44.0129 23.8835 43.7264 24.1016 43.492C24.3197 43.2577 24.5671 43.0803 24.8438 42.9598C25.1204 42.8394 25.4069 42.7791 25.7031 42.7791C26.0807 42.7791 26.4062 42.8442 26.6797 42.9745C26.9564 43.1047 27.1826 43.287 27.3584 43.5213C27.5342 43.7525 27.6644 44.0259 27.749 44.3416C27.8337 44.6541 27.876 44.9959 27.876 45.367V45.7723H23.9307V45.035H26.9727V44.9666C26.9596 44.7323 26.9108 44.5044 26.8262 44.2831C26.7448 44.0617 26.6146 43.8794 26.4355 43.7362C26.2565 43.5929 26.0124 43.5213 25.7031 43.5213C25.498 43.5213 25.3092 43.5653 25.1367 43.6532C24.9642 43.7378 24.8161 43.8648 24.6924 44.034C24.5687 44.2033 24.4727 44.41 24.4043 44.6541C24.3359 44.8983 24.3018 45.1799 24.3018 45.4989V45.7039C24.3018 45.9546 24.3359 46.1906 24.4043 46.412C24.4759 46.6301 24.5785 46.8221 24.7119 46.9881C24.8486 47.1541 25.013 47.2844 25.2051 47.3788C25.4004 47.4732 25.6217 47.5204 25.8691 47.5204C26.1882 47.5204 26.4583 47.4553 26.6797 47.325C26.901 47.1948 27.0947 47.0207 27.2607 46.8026L27.8076 47.2372C27.6937 47.4097 27.5488 47.5741 27.373 47.7303C27.1973 47.8866 26.9808 48.0135 26.7236 48.1112C26.4697 48.2088 26.1686 48.2577 25.8203 48.2577ZM31.0449 47.5155C31.2598 47.5155 31.4583 47.4715 31.6406 47.3836C31.8229 47.2957 31.9727 47.1753 32.0898 47.0223C32.207 46.8661 32.2738 46.6886 32.29 46.4901H33.1494C33.1331 46.8026 33.0273 47.0939 32.832 47.3641C32.64 47.631 32.3877 47.8475 32.0752 48.0135C31.7627 48.1763 31.4193 48.2577 31.0449 48.2577C30.6478 48.2577 30.3011 48.1877 30.0049 48.0477C29.7119 47.9077 29.4678 47.7157 29.2725 47.4715C29.0804 47.2274 28.9355 46.9474 28.8379 46.6317C28.7435 46.3127 28.6963 45.9758 28.6963 45.6209V45.4159C28.6963 45.061 28.7435 44.7258 28.8379 44.41C28.9355 44.091 29.0804 43.8094 29.2725 43.5653C29.4678 43.3211 29.7119 43.1291 30.0049 42.9891C30.3011 42.8491 30.6478 42.7791 31.0449 42.7791C31.4583 42.7791 31.8197 42.8638 32.1289 43.0331C32.4382 43.1991 32.6807 43.4269 32.8564 43.7166C33.0355 44.0031 33.1331 44.3286 33.1494 44.6932H32.29C32.2738 44.4751 32.2119 44.2782 32.1045 44.1024C32.0003 43.9266 31.8571 43.7866 31.6748 43.6825C31.4958 43.575 31.2858 43.5213 31.0449 43.5213C30.7682 43.5213 30.5355 43.5767 30.3467 43.6873C30.1611 43.7948 30.013 43.9413 29.9023 44.1268C29.7949 44.3091 29.7168 44.5125 29.668 44.7372C29.6224 44.9585 29.5996 45.1847 29.5996 45.4159V45.6209C29.5996 45.8521 29.6224 46.0799 29.668 46.3045C29.7135 46.5291 29.79 46.7326 29.8975 46.9149C30.0081 47.0972 30.1562 47.2437 30.3418 47.3543C30.5306 47.4618 30.765 47.5155 31.0449 47.5155ZM35.0684 43.7069V48.16H34.165V42.8768H35.0439L35.0684 43.7069ZM36.7188 42.8475L36.7139 43.6873C36.639 43.6711 36.5674 43.6613 36.499 43.6581C36.4339 43.6515 36.359 43.6483 36.2744 43.6483C36.0661 43.6483 35.8822 43.6808 35.7227 43.7459C35.5632 43.811 35.4281 43.9022 35.3174 44.0194C35.2067 44.1366 35.1188 44.2765 35.0537 44.4393C34.9919 44.5988 34.9512 44.7746 34.9316 44.9666L34.6777 45.1131C34.6777 44.7941 34.7087 44.4946 34.7705 44.2147C34.8356 43.9347 34.9349 43.6873 35.0684 43.4725C35.2018 43.2544 35.3711 43.0851 35.5762 42.9647C35.7845 42.841 36.0319 42.7791 36.3184 42.7791C36.3835 42.7791 36.4583 42.7873 36.543 42.8036C36.6276 42.8166 36.6862 42.8312 36.7188 42.8475ZM39.6484 48.2577C39.2806 48.2577 38.9469 48.1958 38.6475 48.0721C38.3512 47.9452 38.0957 47.7678 37.8809 47.5399C37.6693 47.312 37.5065 47.0418 37.3926 46.7293C37.2786 46.4168 37.2217 46.075 37.2217 45.7039V45.4989C37.2217 45.0692 37.2852 44.6867 37.4121 44.3514C37.5391 44.0129 37.7116 43.7264 37.9297 43.492C38.1478 43.2577 38.3952 43.0803 38.6719 42.9598C38.9486 42.8394 39.235 42.7791 39.5312 42.7791C39.9089 42.7791 40.2344 42.8442 40.5078 42.9745C40.7845 43.1047 41.0107 43.287 41.1865 43.5213C41.3623 43.7525 41.4925 44.0259 41.5771 44.3416C41.6618 44.6541 41.7041 44.9959 41.7041 45.367V45.7723H37.7588V45.035H40.8008V44.9666C40.7878 44.7323 40.7389 44.5044 40.6543 44.2831C40.5729 44.0617 40.4427 43.8794 40.2637 43.7362C40.0846 43.5929 39.8405 43.5213 39.5312 43.5213C39.3262 43.5213 39.1374 43.5653 38.9648 43.6532C38.7923 43.7378 38.6442 43.8648 38.5205 44.034C38.3968 44.2033 38.3008 44.41 38.2324 44.6541C38.1641 44.8983 38.1299 45.1799 38.1299 45.4989V45.7039C38.1299 45.9546 38.1641 46.1906 38.2324 46.412C38.304 46.6301 38.4066 46.8221 38.54 46.9881C38.6768 47.1541 38.8411 47.2844 39.0332 47.3788C39.2285 47.4732 39.4499 47.5204 39.6973 47.5204C40.0163 47.5204 40.2865 47.4553 40.5078 47.325C40.7292 47.1948 40.9229 47.0207 41.0889 46.8026L41.6357 47.2372C41.5218 47.4097 41.377 47.5741 41.2012 47.7303C41.0254 47.8866 40.8089 48.0135 40.5518 48.1112C40.2979 48.2088 39.9967 48.2577 39.6484 48.2577ZM44.9707 42.8768V43.5702H42.1143V42.8768H44.9707ZM43.0811 41.5926H43.9844V46.8514C43.9844 47.0304 44.012 47.1655 44.0674 47.2567C44.1227 47.3478 44.1943 47.4081 44.2822 47.4373C44.3701 47.4666 44.4645 47.4813 44.5654 47.4813C44.6403 47.4813 44.7184 47.4748 44.7998 47.4618C44.8844 47.4455 44.9479 47.4325 44.9902 47.4227L44.9951 48.16C44.9235 48.1828 44.8291 48.2039 44.7119 48.2235C44.598 48.2463 44.4596 48.2577 44.2969 48.2577C44.0755 48.2577 43.8721 48.2137 43.6865 48.1258C43.501 48.0379 43.3529 47.8914 43.2422 47.6864C43.1348 47.478 43.0811 47.1981 43.0811 46.8465V41.5926ZM47.002 40.66V41.285C47.002 41.4803 46.9678 41.687 46.8994 41.9051C46.8343 42.12 46.7383 42.3283 46.6113 42.5301C46.4844 42.7287 46.3314 42.9028 46.1523 43.0526L45.6348 42.6961C45.7878 42.4813 45.9033 42.2616 45.9814 42.037C46.0628 41.8091 46.1035 41.5633 46.1035 41.2997V40.66H47.002ZM48.501 40.66V41.285C48.501 41.4803 48.4668 41.687 48.3984 41.9051C48.3333 42.12 48.2373 42.3283 48.1104 42.5301C47.9834 42.7287 47.8304 42.9028 47.6514 43.0526L47.1338 42.6961C47.2868 42.4813 47.4023 42.2616 47.4805 42.037C47.5618 41.8091 47.6025 41.5633 47.6025 41.2997V40.66H48.501Z" fill="black"/>
<path d="M85.5127 42.9207V42.3299C85.5127 42.1314 85.5452 41.9247 85.6104 41.7098C85.6787 41.4917 85.7764 41.2834 85.9033 41.0848C86.0303 40.883 86.1833 40.7088 86.3623 40.5623L86.875 40.9188C86.7253 41.1336 86.6097 41.355 86.5283 41.5829C86.4469 41.8075 86.4062 42.0516 86.4062 42.3153V42.9207H85.5127ZM87.0508 42.9207V42.3299C87.0508 42.1314 87.0833 41.9247 87.1484 41.7098C87.2168 41.4917 87.3145 41.2834 87.4414 41.0848C87.5684 40.883 87.7214 40.7088 87.9004 40.5623L88.4131 40.9188C88.2633 41.1336 88.1478 41.355 88.0664 41.5829C87.985 41.8075 87.9443 42.0516 87.9443 42.3153V42.9207H87.0508ZM89.6582 41.0506H90.5713L92.9004 46.8465L95.2246 41.0506H96.1426L93.252 48.16H92.5391L89.6582 41.0506ZM89.3604 41.0506H90.166L90.2979 45.3866V48.16H89.3604V41.0506ZM95.6299 41.0506H96.4355V48.16H95.498V45.3866L95.6299 41.0506ZM99.4385 47.6131L100.908 42.8768H101.875L99.7559 48.9754C99.707 49.1056 99.6419 49.2456 99.5605 49.3954C99.4824 49.5484 99.3815 49.6932 99.2578 49.8299C99.1341 49.9666 98.9844 50.0773 98.8086 50.162C98.6361 50.2498 98.4294 50.2938 98.1885 50.2938C98.1169 50.2938 98.0257 50.284 97.915 50.2645C97.8044 50.245 97.7262 50.2287 97.6807 50.2157L97.6758 49.4832C97.7018 49.4865 97.7425 49.4898 97.7979 49.493C97.8564 49.4995 97.8971 49.5028 97.9199 49.5028C98.125 49.5028 98.2992 49.4751 98.4424 49.4198C98.5856 49.3677 98.7061 49.2782 98.8037 49.1512C98.9046 49.0275 98.9909 48.8566 99.0625 48.6385L99.4385 47.6131ZM98.3594 42.8768L99.7314 46.9784L99.9658 47.9305L99.3164 48.2625L97.373 42.8768H98.3594ZM106.616 46.3631C106.616 46.1971 106.59 46.0506 106.538 45.9237C106.489 45.7935 106.401 45.6763 106.274 45.5721C106.151 45.4679 105.978 45.3687 105.757 45.2743C105.539 45.1799 105.262 45.0838 104.927 44.9862C104.575 44.882 104.258 44.7664 103.975 44.6395C103.691 44.5093 103.449 44.3612 103.247 44.1952C103.045 44.0291 102.891 43.8387 102.783 43.6239C102.676 43.409 102.622 43.1633 102.622 42.8866C102.622 42.6099 102.679 42.3543 102.793 42.12C102.907 41.8856 103.07 41.6821 103.281 41.5096C103.496 41.3338 103.752 41.1971 104.048 41.0995C104.344 41.0018 104.674 40.953 105.039 40.953C105.573 40.953 106.025 41.0555 106.396 41.2606C106.771 41.4624 107.056 41.7277 107.251 42.0565C107.446 42.382 107.544 42.7303 107.544 43.1014H106.606C106.606 42.8345 106.549 42.5985 106.436 42.3934C106.322 42.1851 106.149 42.0223 105.918 41.9051C105.687 41.7847 105.394 41.7245 105.039 41.7245C104.704 41.7245 104.427 41.7749 104.209 41.8758C103.991 41.9767 103.828 42.1135 103.721 42.286C103.617 42.4585 103.564 42.6554 103.564 42.8768C103.564 43.0265 103.595 43.1633 103.657 43.287C103.722 43.4074 103.822 43.5197 103.955 43.6239C104.092 43.728 104.264 43.8241 104.473 43.912C104.684 43.9998 104.937 44.0845 105.229 44.1659C105.633 44.2798 105.981 44.4067 106.274 44.5467C106.567 44.6867 106.808 44.8446 106.997 45.0204C107.189 45.1929 107.331 45.3898 107.422 45.6112C107.516 45.8293 107.563 46.0767 107.563 46.3534C107.563 46.6431 107.505 46.9051 107.388 47.1395C107.271 47.3739 107.103 47.5741 106.885 47.7401C106.667 47.9061 106.405 48.0347 106.099 48.1258C105.796 48.2137 105.457 48.2577 105.083 48.2577C104.754 48.2577 104.43 48.2121 104.111 48.1209C103.796 48.0298 103.507 47.8931 103.247 47.7108C102.99 47.5285 102.783 47.3039 102.627 47.037C102.474 46.7668 102.397 46.4543 102.397 46.0995H103.335C103.335 46.3436 103.382 46.5536 103.477 46.7293C103.571 46.9019 103.7 47.0451 103.862 47.159C104.028 47.273 104.215 47.3576 104.424 47.4129C104.635 47.465 104.855 47.4911 105.083 47.4911C105.412 47.4911 105.69 47.4455 105.918 47.3543C106.146 47.2632 106.318 47.133 106.436 46.9637C106.556 46.7944 106.616 46.5942 106.616 46.3631ZM110.82 48.2577C110.452 48.2577 110.119 48.1958 109.819 48.0721C109.523 47.9452 109.268 47.7678 109.053 47.5399C108.841 47.312 108.678 47.0418 108.564 46.7293C108.451 46.4168 108.394 46.075 108.394 45.7039V45.4989C108.394 45.0692 108.457 44.6867 108.584 44.3514C108.711 44.0129 108.883 43.7264 109.102 43.492C109.32 43.2577 109.567 43.0803 109.844 42.9598C110.12 42.8394 110.407 42.7791 110.703 42.7791C111.081 42.7791 111.406 42.8442 111.68 42.9745C111.956 43.1047 112.183 43.287 112.358 43.5213C112.534 43.7525 112.664 44.0259 112.749 44.3416C112.834 44.6541 112.876 44.9959 112.876 45.367V45.7723H108.931V45.035H111.973V44.9666C111.96 44.7323 111.911 44.5044 111.826 44.2831C111.745 44.0617 111.615 43.8794 111.436 43.7362C111.257 43.5929 111.012 43.5213 110.703 43.5213C110.498 43.5213 110.309 43.5653 110.137 43.6532C109.964 43.7378 109.816 43.8648 109.692 44.034C109.569 44.2033 109.473 44.41 109.404 44.6541C109.336 44.8983 109.302 45.1799 109.302 45.4989V45.7039C109.302 45.9546 109.336 46.1906 109.404 46.412C109.476 46.6301 109.578 46.8221 109.712 46.9881C109.849 47.1541 110.013 47.2844 110.205 47.3788C110.4 47.4732 110.622 47.5204 110.869 47.5204C111.188 47.5204 111.458 47.4553 111.68 47.325C111.901 47.1948 112.095 47.0207 112.261 46.8026L112.808 47.2372C112.694 47.4097 112.549 47.5741 112.373 47.7303C112.197 47.8866 111.981 48.0135 111.724 48.1112C111.47 48.2088 111.169 48.2577 110.82 48.2577ZM116.045 47.5155C116.26 47.5155 116.458 47.4715 116.641 47.3836C116.823 47.2957 116.973 47.1753 117.09 47.0223C117.207 46.8661 117.274 46.6886 117.29 46.4901H118.149C118.133 46.8026 118.027 47.0939 117.832 47.3641C117.64 47.631 117.388 47.8475 117.075 48.0135C116.763 48.1763 116.419 48.2577 116.045 48.2577C115.648 48.2577 115.301 48.1877 115.005 48.0477C114.712 47.9077 114.468 47.7157 114.272 47.4715C114.08 47.2274 113.936 46.9474 113.838 46.6317C113.743 46.3127 113.696 45.9758 113.696 45.6209V45.4159C113.696 45.061 113.743 44.7258 113.838 44.41C113.936 44.091 114.08 43.8094 114.272 43.5653C114.468 43.3211 114.712 43.1291 115.005 42.9891C115.301 42.8491 115.648 42.7791 116.045 42.7791C116.458 42.7791 116.82 42.8638 117.129 43.0331C117.438 43.1991 117.681 43.4269 117.856 43.7166C118.035 44.0031 118.133 44.3286 118.149 44.6932H117.29C117.274 44.4751 117.212 44.2782 117.104 44.1024C117 43.9266 116.857 43.7866 116.675 43.6825C116.496 43.575 116.286 43.5213 116.045 43.5213C115.768 43.5213 115.535 43.5767 115.347 43.6873C115.161 43.7948 115.013 43.9413 114.902 44.1268C114.795 44.3091 114.717 44.5125 114.668 44.7372C114.622 44.9585 114.6 45.1847 114.6 45.4159V45.6209C114.6 45.8521 114.622 46.0799 114.668 46.3045C114.714 46.5291 114.79 46.7326 114.897 46.9149C115.008 47.0972 115.156 47.2437 115.342 47.3543C115.531 47.4618 115.765 47.5155 116.045 47.5155ZM120.068 43.7069V48.16H119.165V42.8768H120.044L120.068 43.7069ZM121.719 42.8475L121.714 43.6873C121.639 43.6711 121.567 43.6613 121.499 43.6581C121.434 43.6515 121.359 43.6483 121.274 43.6483C121.066 43.6483 120.882 43.6808 120.723 43.7459C120.563 43.811 120.428 43.9022 120.317 44.0194C120.207 44.1366 120.119 44.2765 120.054 44.4393C119.992 44.5988 119.951 44.7746 119.932 44.9666L119.678 45.1131C119.678 44.7941 119.709 44.4946 119.771 44.2147C119.836 43.9347 119.935 43.6873 120.068 43.4725C120.202 43.2544 120.371 43.0851 120.576 42.9647C120.785 42.841 121.032 42.7791 121.318 42.7791C121.383 42.7791 121.458 42.7873 121.543 42.8036C121.628 42.8166 121.686 42.8312 121.719 42.8475ZM124.648 48.2577C124.281 48.2577 123.947 48.1958 123.647 48.0721C123.351 47.9452 123.096 47.7678 122.881 47.5399C122.669 47.312 122.507 47.0418 122.393 46.7293C122.279 46.4168 122.222 46.075 122.222 45.7039V45.4989C122.222 45.0692 122.285 44.6867 122.412 44.3514C122.539 44.0129 122.712 43.7264 122.93 43.492C123.148 43.2577 123.395 43.0803 123.672 42.9598C123.949 42.8394 124.235 42.7791 124.531 42.7791C124.909 42.7791 125.234 42.8442 125.508 42.9745C125.785 43.1047 126.011 43.287 126.187 43.5213C126.362 43.7525 126.493 44.0259 126.577 44.3416C126.662 44.6541 126.704 44.9959 126.704 45.367V45.7723H122.759V45.035H125.801V44.9666C125.788 44.7323 125.739 44.5044 125.654 44.2831C125.573 44.0617 125.443 43.8794 125.264 43.7362C125.085 43.5929 124.84 43.5213 124.531 43.5213C124.326 43.5213 124.137 43.5653 123.965 43.6532C123.792 43.7378 123.644 43.8648 123.521 44.034C123.397 44.2033 123.301 44.41 123.232 44.6541C123.164 44.8983 123.13 45.1799 123.13 45.4989V45.7039C123.13 45.9546 123.164 46.1906 123.232 46.412C123.304 46.6301 123.407 46.8221 123.54 46.9881C123.677 47.1541 123.841 47.2844 124.033 47.3788C124.229 47.4732 124.45 47.5204 124.697 47.5204C125.016 47.5204 125.286 47.4553 125.508 47.325C125.729 47.1948 125.923 47.0207 126.089 46.8026L126.636 47.2372C126.522 47.4097 126.377 47.5741 126.201 47.7303C126.025 47.8866 125.809 48.0135 125.552 48.1112C125.298 48.2088 124.997 48.2577 124.648 48.2577ZM129.971 42.8768V43.5702H127.114V42.8768H129.971ZM128.081 41.5926H128.984V46.8514C128.984 47.0304 129.012 47.1655 129.067 47.2567C129.123 47.3478 129.194 47.4081 129.282 47.4373C129.37 47.4666 129.465 47.4813 129.565 47.4813C129.64 47.4813 129.718 47.4748 129.8 47.4618C129.884 47.4455 129.948 47.4325 129.99 47.4227L129.995 48.16C129.924 48.1828 129.829 48.2039 129.712 48.2235C129.598 48.2463 129.46 48.2577 129.297 48.2577C129.076 48.2577 128.872 48.2137 128.687 48.1258C128.501 48.0379 128.353 47.8914 128.242 47.6864C128.135 47.478 128.081 47.1981 128.081 46.8465V41.5926ZM132.002 40.66V41.285C132.002 41.4803 131.968 41.687 131.899 41.9051C131.834 42.12 131.738 42.3283 131.611 42.5301C131.484 42.7287 131.331 42.9028 131.152 43.0526L130.635 42.6961C130.788 42.4813 130.903 42.2616 130.981 42.037C131.063 41.8091 131.104 41.5633 131.104 41.2997V40.66H132.002ZM133.501 40.66V41.285C133.501 41.4803 133.467 41.687 133.398 41.9051C133.333 42.12 133.237 42.3283 133.11 42.5301C132.983 42.7287 132.83 42.9028 132.651 43.0526L132.134 42.6961C132.287 42.4813 132.402 42.2616 132.48 42.037C132.562 41.8091 132.603 41.5633 132.603 41.2997V40.66H133.501Z" fill="black"/>
<rect x="0.5" y="55.66" width="51" height="27" stroke="black"/>
<path d="M12.6143 70.3631C12.6143 70.1971 12.5882 70.0506 12.5361 69.9237C12.4873 69.7935 12.3994 69.6763 12.2725 69.5721C12.1488 69.468 11.9762 69.3687 11.7549 69.2743C11.5368 69.1799 11.2601 69.0838 10.9248 68.9862C10.5732 68.882 10.2559 68.7665 9.97266 68.6395C9.68945 68.5093 9.44694 68.3612 9.24512 68.1952C9.04329 68.0292 8.88867 67.8387 8.78125 67.6239C8.67383 67.409 8.62012 67.1633 8.62012 66.8866C8.62012 66.6099 8.67708 66.3543 8.79102 66.12C8.90495 65.8856 9.06771 65.6821 9.2793 65.5096C9.49414 65.3338 9.74967 65.1971 10.0459 65.0995C10.3421 65.0018 10.6725 64.953 11.0371 64.953C11.571 64.953 12.0234 65.0555 12.3945 65.2606C12.7689 65.4624 13.0537 65.7277 13.249 66.0565C13.4443 66.382 13.542 66.7303 13.542 67.1014H12.6045C12.6045 66.8345 12.5475 66.5985 12.4336 66.3934C12.3197 66.1851 12.1471 66.0223 11.916 65.9051C11.6849 65.7847 11.3919 65.7245 11.0371 65.7245C10.7018 65.7245 10.4251 65.7749 10.207 65.8758C9.98893 65.9767 9.82617 66.1135 9.71875 66.286C9.61458 66.4585 9.5625 66.6555 9.5625 66.8768C9.5625 67.0265 9.59342 67.1633 9.65527 67.287C9.72038 67.4074 9.81966 67.5197 9.95312 67.6239C10.0898 67.728 10.2624 67.8241 10.4707 67.912C10.6823 67.9999 10.9346 68.0845 11.2275 68.1659C11.6312 68.2798 11.9795 68.4068 12.2725 68.5467C12.5654 68.6867 12.8063 68.8446 12.9951 69.0204C13.1872 69.1929 13.3288 69.3898 13.4199 69.6112C13.5143 69.8293 13.5615 70.0767 13.5615 70.3534C13.5615 70.6431 13.5029 70.9051 13.3857 71.1395C13.2686 71.3739 13.1009 71.5741 12.8828 71.7401C12.6647 71.9061 12.4027 72.0347 12.0967 72.1258C11.7939 72.2137 11.4554 72.2577 11.0811 72.2577C10.7523 72.2577 10.4284 72.2121 10.1094 72.1209C9.79362 72.0298 9.50553 71.8931 9.24512 71.7108C8.98796 71.5285 8.78125 71.3039 8.625 71.037C8.47201 70.7668 8.39551 70.4543 8.39551 70.0995H9.33301C9.33301 70.3436 9.38021 70.5536 9.47461 70.7293C9.56901 70.9019 9.69759 71.0451 9.86035 71.159C10.0264 71.273 10.2135 71.3576 10.4219 71.4129C10.6335 71.465 10.8532 71.4911 11.0811 71.4911C11.4098 71.4911 11.6882 71.4455 11.916 71.3543C12.1439 71.2632 12.3164 71.133 12.4336 70.9637C12.554 70.7945 12.6143 70.5943 12.6143 70.3631ZM17.3848 69.3719H15.4854V68.6053H17.3848C17.7526 68.6053 18.0505 68.5467 18.2783 68.4295C18.5062 68.3124 18.6722 68.1496 18.7764 67.9413C18.8838 67.7329 18.9375 67.4953 18.9375 67.2284C18.9375 66.9842 18.8838 66.7547 18.7764 66.5399C18.6722 66.3251 18.5062 66.1525 18.2783 66.0223C18.0505 65.8889 17.7526 65.8221 17.3848 65.8221H15.7051V72.16H14.7627V65.0506H17.3848C17.9219 65.0506 18.376 65.1434 18.7471 65.329C19.1182 65.5145 19.3997 65.7717 19.5918 66.1004C19.7839 66.426 19.8799 66.7987 19.8799 67.2186C19.8799 67.6743 19.7839 68.0633 19.5918 68.3856C19.3997 68.7079 19.1182 68.9536 18.7471 69.1229C18.376 69.2889 17.9219 69.3719 17.3848 69.3719ZM23.0293 65.6805L20.6758 72.16H19.7139L22.4238 65.0506H23.0439L23.0293 65.6805ZM25.002 72.16L22.6436 65.6805L22.6289 65.0506H23.249L25.9688 72.16H25.002ZM24.8799 69.5282V70.2997H20.8857V69.5282H24.8799ZM27.8633 65.0506V72.16H26.9209V65.0506H27.8633ZM32.1553 65.0506L29.2012 68.3661L27.541 70.0897L27.3848 69.0838L28.6348 67.7069L31.0225 65.0506H32.1553ZM31.2471 72.16L28.6152 68.6932L29.1768 67.9461L32.3701 72.16H31.2471ZM37.7168 71.3934V72.16H33.9521V71.3934H37.7168ZM34.1426 65.0506V72.16H33.2002V65.0506H34.1426ZM37.2188 68.1073V68.8739H33.9521V68.1073H37.2188ZM37.668 65.0506V65.8221H33.9521V65.0506H37.668ZM43.3076 71.4178V72.16H38.6543V71.5106L40.9834 68.9178C41.2699 68.5988 41.4912 68.3286 41.6475 68.1073C41.807 67.8827 41.9176 67.6825 41.9795 67.5067C42.0446 67.3277 42.0771 67.1454 42.0771 66.9598C42.0771 66.7254 42.0283 66.5139 41.9307 66.3251C41.8363 66.133 41.6963 65.98 41.5107 65.8661C41.3252 65.7521 41.1006 65.6952 40.8369 65.6952C40.5212 65.6952 40.2575 65.757 40.0459 65.8807C39.8376 66.0012 39.6813 66.1704 39.5771 66.3885C39.473 66.6066 39.4209 66.8573 39.4209 67.1405H38.5176C38.5176 66.7401 38.6055 66.3739 38.7812 66.0418C38.957 65.7098 39.2174 65.4461 39.5625 65.2508C39.9076 65.0523 40.3324 64.953 40.8369 64.953C41.2861 64.953 41.6702 65.0327 41.9893 65.1922C42.3083 65.3485 42.5524 65.5698 42.7217 65.8563C42.8942 66.1395 42.9805 66.4715 42.9805 66.8524C42.9805 67.0607 42.9447 67.2723 42.873 67.4872C42.8047 67.6987 42.7087 67.9103 42.585 68.1219C42.4645 68.3335 42.3229 68.5418 42.1602 68.7469C42.0007 68.952 41.8298 69.1538 41.6475 69.3524L39.7432 71.4178H43.3076Z" fill="black"/>
<rect x="82.5" y="55.66" width="51" height="27" stroke="black"/>
<path d="M94.6143 70.3631C94.6143 70.1971 94.5882 70.0506 94.5361 69.9237C94.4873 69.7935 94.3994 69.6763 94.2725 69.5721C94.1488 69.468 93.9762 69.3687 93.7549 69.2743C93.5368 69.1799 93.2601 69.0838 92.9248 68.9862C92.5732 68.882 92.2559 68.7665 91.9727 68.6395C91.6895 68.5093 91.4469 68.3612 91.2451 68.1952C91.0433 68.0292 90.8887 67.8387 90.7812 67.6239C90.6738 67.409 90.6201 67.1633 90.6201 66.8866C90.6201 66.6099 90.6771 66.3543 90.791 66.12C90.9049 65.8856 91.0677 65.6821 91.2793 65.5096C91.4941 65.3338 91.7497 65.1971 92.0459 65.0995C92.3421 65.0018 92.6725 64.953 93.0371 64.953C93.571 64.953 94.0234 65.0555 94.3945 65.2606C94.7689 65.4624 95.0537 65.7277 95.249 66.0565C95.4443 66.382 95.542 66.7303 95.542 67.1014H94.6045C94.6045 66.8345 94.5475 66.5985 94.4336 66.3934C94.3197 66.1851 94.1471 66.0223 93.916 65.9051C93.6849 65.7847 93.3919 65.7245 93.0371 65.7245C92.7018 65.7245 92.4251 65.7749 92.207 65.8758C91.9889 65.9767 91.8262 66.1135 91.7188 66.286C91.6146 66.4585 91.5625 66.6555 91.5625 66.8768C91.5625 67.0265 91.5934 67.1633 91.6553 67.287C91.7204 67.4074 91.8197 67.5197 91.9531 67.6239C92.0898 67.728 92.2624 67.8241 92.4707 67.912C92.6823 67.9999 92.9346 68.0845 93.2275 68.1659C93.6312 68.2798 93.9795 68.4068 94.2725 68.5467C94.5654 68.6867 94.8063 68.8446 94.9951 69.0204C95.1872 69.1929 95.3288 69.3898 95.4199 69.6112C95.5143 69.8293 95.5615 70.0767 95.5615 70.3534C95.5615 70.6431 95.5029 70.9051 95.3857 71.1395C95.2686 71.3739 95.1009 71.5741 94.8828 71.7401C94.6647 71.9061 94.4027 72.0347 94.0967 72.1258C93.7939 72.2137 93.4554 72.2577 93.0811 72.2577C92.7523 72.2577 92.4284 72.2121 92.1094 72.1209C91.7936 72.0298 91.5055 71.8931 91.2451 71.7108C90.988 71.5285 90.7812 71.3039 90.625 71.037C90.472 70.7668 90.3955 70.4543 90.3955 70.0995H91.333C91.333 70.3436 91.3802 70.5536 91.4746 70.7293C91.569 70.9019 91.6976 71.0451 91.8604 71.159C92.0264 71.273 92.2135 71.3576 92.4219 71.4129C92.6335 71.465 92.8532 71.4911 93.0811 71.4911C93.4098 71.4911 93.6882 71.4455 93.916 71.3543C94.1439 71.2632 94.3164 71.133 94.4336 70.9637C94.554 70.7945 94.6143 70.5943 94.6143 70.3631ZM99.3848 69.3719H97.4854V68.6053H99.3848C99.7526 68.6053 100.05 68.5467 100.278 68.4295C100.506 68.3124 100.672 68.1496 100.776 67.9413C100.884 67.7329 100.938 67.4953 100.938 67.2284C100.938 66.9842 100.884 66.7547 100.776 66.5399C100.672 66.3251 100.506 66.1525 100.278 66.0223C100.05 65.8889 99.7526 65.8221 99.3848 65.8221H97.7051V72.16H96.7627V65.0506H99.3848C99.9219 65.0506 100.376 65.1434 100.747 65.329C101.118 65.5145 101.4 65.7717 101.592 66.1004C101.784 66.426 101.88 66.7987 101.88 67.2186C101.88 67.6743 101.784 68.0633 101.592 68.3856C101.4 68.7079 101.118 68.9536 100.747 69.1229C100.376 69.2889 99.9219 69.3719 99.3848 69.3719ZM105.029 65.6805L102.676 72.16H101.714L104.424 65.0506H105.044L105.029 65.6805ZM107.002 72.16L104.644 65.6805L104.629 65.0506H105.249L107.969 72.16H107.002ZM106.88 69.5282V70.2997H102.886V69.5282H106.88ZM109.863 65.0506V72.16H108.921V65.0506H109.863ZM114.155 65.0506L111.201 68.3661L109.541 70.0897L109.385 69.0838L110.635 67.7069L113.022 65.0506H114.155ZM113.247 72.16L110.615 68.6932L111.177 67.9461L114.37 72.16H113.247ZM119.717 71.3934V72.16H115.952V71.3934H119.717ZM116.143 65.0506V72.16H115.2V65.0506H116.143ZM119.219 68.1073V68.8739H115.952V68.1073H119.219ZM119.668 65.0506V65.8221H115.952V65.0506H119.668ZM125.308 71.4178V72.16H120.654V71.5106L122.983 68.9178C123.27 68.5988 123.491 68.3286 123.647 68.1073C123.807 67.8827 123.918 67.6825 123.979 67.5067C124.045 67.3277 124.077 67.1454 124.077 66.9598C124.077 66.7254 124.028 66.5139 123.931 66.3251C123.836 66.133 123.696 65.98 123.511 65.8661C123.325 65.7521 123.101 65.6952 122.837 65.6952C122.521 65.6952 122.257 65.757 122.046 65.8807C121.838 66.0012 121.681 66.1704 121.577 66.3885C121.473 66.6066 121.421 66.8573 121.421 67.1405H120.518C120.518 66.7401 120.605 66.3739 120.781 66.0418C120.957 65.7098 121.217 65.4461 121.562 65.2508C121.908 65.0523 122.332 64.953 122.837 64.953C123.286 64.953 123.67 65.0327 123.989 65.1922C124.308 65.3485 124.552 65.5698 124.722 65.8563C124.894 66.1395 124.98 66.4715 124.98 66.8524C124.98 67.0607 124.945 67.2723 124.873 67.4872C124.805 67.6987 124.709 67.9103 124.585 68.1219C124.465 68.3335 124.323 68.5418 124.16 68.7469C124.001 68.952 123.83 69.1538 123.647 69.3524L121.743 71.4178H125.308Z" fill="black"/>
<g clip-path="url(#clip0_2_59)">
<path d="M12.8 103.16C11.9366 103.161 11.082 102.987 10.2876 102.649C9.49323 102.31 8.77548 101.815 8.17756 101.192C7.57964 100.569 7.11393 99.832 6.80844 99.0245C6.50296 98.217 6.36402 97.356 6.4 96.4933C6.49156 94.8783 7.18147 93.3552 8.33516 92.2212C9.48885 91.0873 11.0236 90.4237 12.64 90.36C13.7386 90.3316 14.826 90.5865 15.7975 91.1003C16.7689 91.6141 17.5918 92.3693 18.1867 93.2933C18.2303 93.3695 18.2921 93.4336 18.3666 93.4802C18.441 93.5267 18.5258 93.5541 18.6133 93.56H19.8933C19.9839 93.5541 20.0715 93.5252 20.1478 93.476C20.2242 93.4268 20.2866 93.3589 20.3294 93.2788C20.3721 93.1987 20.3937 93.109 20.392 93.0182C20.3904 92.9274 20.3656 92.8385 20.32 92.76C19.5931 91.3492 18.4802 90.174 17.1111 89.3713C15.7419 88.5687 14.1728 88.1717 12.5867 88.2267C10.4934 88.2842 8.49428 89.1093 6.96994 90.5452C5.4456 91.981 4.50244 93.9272 4.32 96.0133C4.16463 97.5235 4.4254 99.0473 5.07407 100.42C5.72274 101.792 6.73458 102.961 8 103.8V110.573C7.99711 110.767 8.04713 110.958 8.14468 111.126C8.24223 111.293 8.38363 111.431 8.55366 111.525C8.72369 111.618 8.91592 111.663 9.10968 111.655C9.30344 111.647 9.49139 111.587 9.65333 111.48L12.8 109.027L15.9467 111.48C16.1086 111.587 16.2966 111.647 16.4903 111.655C16.6841 111.663 16.8763 111.618 17.0463 111.525C17.2164 111.431 17.3578 111.293 17.4553 111.126C17.5529 110.958 17.6029 110.767 17.6 110.573V103.8C17.8878 103.635 18.1562 103.438 18.4 103.213C18.4662 103.164 18.52 103.099 18.557 103.025C18.5941 102.951 18.6133 102.869 18.6133 102.787C18.6133 102.704 18.5941 102.622 18.557 102.548C18.52 102.474 18.4662 102.41 18.4 102.36L17.4933 101.72C17.4053 101.641 17.2914 101.598 17.1733 101.598C17.0553 101.598 16.9413 101.641 16.8533 101.72C15.711 102.657 14.2775 103.166 12.8 103.16Z" fill="#008E41"/>
<path d="M16.3733 95.6933C16.2127 95.0945 15.8787 94.5564 15.4133 94.1467C15.075 93.795 14.6691 93.5153 14.2201 93.3242C13.771 93.1331 13.288 93.0346 12.8 93.0346C12.312 93.0346 11.829 93.1331 11.3799 93.3242C10.9309 93.5153 10.525 93.795 10.1867 94.1467C9.83501 94.485 9.55526 94.8909 9.36418 95.34C9.17309 95.789 9.0746 96.272 9.0746 96.76C9.0746 97.248 9.17309 97.731 9.36418 98.1801C9.55526 98.6291 9.83501 99.035 10.1867 99.3733C10.525 99.725 10.9309 100.005 11.3799 100.196C11.829 100.387 12.312 100.485 12.8 100.485C13.288 100.485 13.771 100.387 14.2201 100.196C14.6691 100.005 15.075 99.725 15.4133 99.3733C15.8787 98.9636 16.2127 98.4256 16.3733 97.8267H18.5067V99.8C18.5067 100.083 18.619 100.354 18.8191 100.554C19.0191 100.754 19.2904 100.867 19.5733 100.867C19.8547 100.863 20.1231 100.748 20.32 100.547C20.521 100.35 20.636 100.081 20.64 99.8V97.8267H21.5467V99.8C21.5467 100.083 21.659 100.354 21.8591 100.554C22.0591 100.754 22.3304 100.867 22.6133 100.867C22.8895 100.84 23.1505 100.728 23.36 100.547C23.561 100.35 23.676 100.081 23.68 99.8V96.76C23.68 96.4771 23.5676 96.2058 23.3676 96.0058C23.1675 95.8057 22.8962 95.6933 22.6133 95.6933H16.3733ZM11.68 97.88C11.453 97.6575 11.2975 97.3725 11.2331 97.0613C11.1688 96.7501 11.1986 96.4267 11.3188 96.1325C11.4389 95.8383 11.644 95.5865 11.9078 95.4093C12.1716 95.232 12.4822 95.1374 12.8 95.1374C13.1178 95.1374 13.4284 95.232 13.6922 95.4093C13.956 95.5865 14.1611 95.8383 14.2813 96.1325C14.4014 96.4267 14.4312 96.7501 14.3669 97.0613C14.3025 97.3725 14.147 97.6575 13.92 97.88C13.7755 98.0317 13.6018 98.1524 13.4093 98.235C13.2167 98.3175 13.0095 98.36 12.8 98.36C12.5905 98.36 12.3833 98.3175 12.1907 98.235C11.9982 98.1524 11.8245 98.0317 11.68 97.88Z" fill="#008E41"/>
</g>
<path d="M118 106.36C117.137 106.361 116.282 106.187 115.488 105.849C114.693 105.51 113.975 105.015 113.378 104.392C112.78 103.769 112.314 103.032 112.008 102.224C111.703 101.417 111.564 100.556 111.6 99.6933C111.692 98.0783 112.381 96.5552 113.535 95.4212C114.689 94.2873 116.224 93.6237 117.84 93.56C118.939 93.5316 120.026 93.7865 120.997 94.3003C121.969 94.8141 122.792 95.5693 123.387 96.4933C123.43 96.5695 123.492 96.6336 123.567 96.6801C123.641 96.7267 123.726 96.7541 123.813 96.76H125.093C125.184 96.7541 125.272 96.7252 125.348 96.676C125.424 96.6268 125.487 96.5589 125.529 96.4788C125.572 96.3987 125.594 96.309 125.592 96.2182C125.59 96.1274 125.566 96.0385 125.52 95.96C124.793 94.5492 123.68 93.374 122.311 92.5713C120.942 91.7687 119.373 91.3717 117.787 91.4267C115.693 91.4842 113.694 92.3093 112.17 93.7452C110.646 95.181 109.702 97.1272 109.52 99.2133C109.365 100.723 109.625 102.247 110.274 103.62C110.923 104.992 111.935 106.161 113.2 107V113.773C113.197 113.967 113.247 114.158 113.345 114.326C113.442 114.493 113.584 114.631 113.754 114.725C113.924 114.818 114.116 114.863 114.31 114.855C114.503 114.847 114.691 114.787 114.853 114.68L118 112.227L121.147 114.68C121.309 114.787 121.497 114.847 121.69 114.855C121.884 114.863 122.076 114.818 122.246 114.725C122.416 114.631 122.558 114.493 122.655 114.326C122.753 114.158 122.803 113.967 122.8 113.773V107C123.088 106.835 123.356 106.638 123.6 106.413C123.666 106.364 123.72 106.299 123.757 106.225C123.794 106.151 123.813 106.069 123.813 105.987C123.813 105.904 123.794 105.822 123.757 105.748C123.72 105.674 123.666 105.61 123.6 105.56L122.693 104.92C122.605 104.841 122.491 104.798 122.373 104.798C122.255 104.798 122.141 104.841 122.053 104.92C120.911 105.857 119.478 106.366 118 106.36Z" fill="#008E41"/>
<path d="M121.573 98.8933C121.413 98.2945 121.079 97.7564 120.613 97.3467C120.275 96.995 119.869 96.7153 119.42 96.5242C118.971 96.3331 118.488 96.2346 118 96.2346C117.512 96.2346 117.029 96.3331 116.58 96.5242C116.131 96.7153 115.725 96.995 115.387 97.3467C115.035 97.685 114.755 98.0909 114.564 98.54C114.373 98.989 114.275 99.472 114.275 99.96C114.275 100.448 114.373 100.931 114.564 101.38C114.755 101.829 115.035 102.235 115.387 102.573C115.725 102.925 116.131 103.205 116.58 103.396C117.029 103.587 117.512 103.685 118 103.685C118.488 103.685 118.971 103.587 119.42 103.396C119.869 103.205 120.275 102.925 120.613 102.573C121.079 102.164 121.413 101.626 121.573 101.027H123.707V103C123.707 103.283 123.819 103.554 124.019 103.754C124.219 103.954 124.49 104.067 124.773 104.067C125.055 104.063 125.323 103.948 125.52 103.747C125.721 103.55 125.836 103.281 125.84 103V101.027H126.747V103C126.747 103.283 126.859 103.554 127.059 103.754C127.259 103.954 127.53 104.067 127.813 104.067C128.089 104.04 128.35 103.928 128.56 103.747C128.761 103.55 128.876 103.281 128.88 103V99.96C128.88 99.6771 128.768 99.4058 128.568 99.2058C128.368 99.0057 128.096 98.8933 127.813 98.8933H121.573ZM116.88 101.08C116.653 100.858 116.497 100.573 116.433 100.261C116.369 99.9501 116.399 99.6267 116.519 99.3325C116.639 99.0383 116.844 98.7865 117.108 98.6093C117.372 98.432 117.682 98.3374 118 98.3374C118.318 98.3374 118.628 98.432 118.892 98.6093C119.156 98.7865 119.361 99.0383 119.481 99.3325C119.601 99.6267 119.631 99.9501 119.567 100.261C119.503 100.573 119.347 100.858 119.12 101.08C118.976 101.232 118.802 101.352 118.609 101.435C118.417 101.517 118.209 101.56 118 101.56C117.791 101.56 117.583 101.517 117.391 101.435C117.198 101.352 117.024 101.232 116.88 101.08Z" fill="#008E41"/>
<path d="M15.123 123.051H16.0361L18.3652 128.847L20.6895 123.051H21.6074L18.7168 130.16H18.0039L15.123 123.051ZM14.8252 123.051H15.6309L15.7627 127.387V130.16H14.8252V123.051ZM21.0947 123.051H21.9004V130.16H20.9629V127.387L21.0947 123.051ZM26.6514 128.939V124.877H27.5596V130.16H26.6953L26.6514 128.939ZM26.8223 127.826L27.1982 127.816C27.1982 128.168 27.1608 128.493 27.0859 128.793C27.0143 129.089 26.8971 129.346 26.7344 129.564C26.5716 129.782 26.3584 129.953 26.0947 130.077C25.8311 130.197 25.5104 130.258 25.1328 130.258C24.8757 130.258 24.6396 130.22 24.4248 130.145C24.2132 130.07 24.0309 129.955 23.8779 129.799C23.7249 129.642 23.6061 129.439 23.5215 129.188C23.4401 128.938 23.3994 128.637 23.3994 128.285V124.877H24.3027V128.295C24.3027 128.532 24.3288 128.729 24.3809 128.886C24.4362 129.039 24.5094 129.161 24.6006 129.252C24.695 129.34 24.7992 129.402 24.9131 129.437C25.0303 129.473 25.1507 129.491 25.2744 129.491C25.6585 129.491 25.9629 129.418 26.1875 129.271C26.4121 129.122 26.5732 128.921 26.6709 128.671C26.7718 128.417 26.8223 128.135 26.8223 127.826ZM31.1484 124.877V125.57H28.292V124.877H31.1484ZM29.2588 123.593H30.1621V128.851C30.1621 129.03 30.1898 129.166 30.2451 129.257C30.3005 129.348 30.3721 129.408 30.46 129.437C30.5479 129.467 30.6423 129.481 30.7432 129.481C30.818 129.481 30.8962 129.475 30.9775 129.462C31.0622 129.445 31.1257 129.432 31.168 129.423L31.1729 130.16C31.1012 130.183 31.0068 130.204 30.8896 130.223C30.7757 130.246 30.6374 130.258 30.4746 130.258C30.2533 130.258 30.0498 130.214 29.8643 130.126C29.6787 130.038 29.5306 129.891 29.4199 129.686C29.3125 129.478 29.2588 129.198 29.2588 128.847V123.593ZM35.4404 128.939V124.877H36.3486V130.16H35.4844L35.4404 128.939ZM35.6113 127.826L35.9873 127.816C35.9873 128.168 35.9499 128.493 35.875 128.793C35.8034 129.089 35.6862 129.346 35.5234 129.564C35.3607 129.782 35.1475 129.953 34.8838 130.077C34.6201 130.197 34.2995 130.258 33.9219 130.258C33.6647 130.258 33.4287 130.22 33.2139 130.145C33.0023 130.07 32.82 129.955 32.667 129.799C32.514 129.642 32.3952 129.439 32.3105 129.188C32.2292 128.938 32.1885 128.637 32.1885 128.285V124.877H33.0918V128.295C33.0918 128.532 33.1178 128.729 33.1699 128.886C33.2253 129.039 33.2985 129.161 33.3896 129.252C33.484 129.34 33.5882 129.402 33.7021 129.437C33.8193 129.473 33.9398 129.491 34.0635 129.491C34.4476 129.491 34.752 129.418 34.9766 129.271C35.2012 129.122 35.3623 128.921 35.46 128.671C35.5609 128.417 35.6113 128.135 35.6113 127.826ZM40.8408 129.257V126.537C40.8408 126.329 40.7985 126.148 40.7139 125.995C40.6325 125.839 40.5088 125.718 40.3428 125.634C40.1768 125.549 39.9717 125.507 39.7275 125.507C39.4997 125.507 39.2995 125.546 39.127 125.624C38.9577 125.702 38.8242 125.805 38.7266 125.931C38.6322 126.058 38.585 126.195 38.585 126.342H37.6816C37.6816 126.153 37.7305 125.966 37.8281 125.78C37.9258 125.595 38.0658 125.427 38.248 125.277C38.4336 125.124 38.6549 125.004 38.9121 124.916C39.1725 124.825 39.4622 124.779 39.7812 124.779C40.1654 124.779 40.5039 124.844 40.7969 124.974C41.0931 125.105 41.3242 125.302 41.4902 125.565C41.6595 125.826 41.7441 126.153 41.7441 126.547V129.008C41.7441 129.183 41.7588 129.371 41.7881 129.569C41.8206 129.768 41.8678 129.939 41.9297 130.082V130.16H40.9873C40.9417 130.056 40.9059 129.917 40.8799 129.745C40.8538 129.569 40.8408 129.406 40.8408 129.257ZM40.9971 126.957L41.0068 127.592H40.0938C39.8366 127.592 39.6071 127.613 39.4053 127.655C39.2035 127.694 39.0342 127.754 38.8975 127.836C38.7607 127.917 38.6566 128.02 38.585 128.143C38.5133 128.264 38.4775 128.405 38.4775 128.568C38.4775 128.734 38.515 128.886 38.5898 129.022C38.6647 129.159 38.777 129.268 38.9268 129.349C39.0798 129.428 39.2669 129.467 39.4883 129.467C39.765 129.467 40.0091 129.408 40.2207 129.291C40.4323 129.174 40.5999 129.03 40.7236 128.861C40.8506 128.692 40.9189 128.528 40.9287 128.368L41.3145 128.803C41.2917 128.939 41.2298 129.091 41.1289 129.257C41.028 129.423 40.8929 129.582 40.7236 129.735C40.5576 129.885 40.359 130.01 40.1279 130.111C39.9001 130.209 39.6429 130.258 39.3564 130.258C38.9984 130.258 38.6842 130.188 38.4141 130.048C38.1471 129.908 37.9388 129.721 37.7891 129.486C37.6426 129.249 37.5693 128.983 37.5693 128.69C37.5693 128.407 37.6247 128.158 37.7354 127.943C37.846 127.725 38.0055 127.544 38.2139 127.401C38.4222 127.255 38.6729 127.144 38.9658 127.069C39.2588 126.994 39.5859 126.957 39.9473 126.957H40.9971ZM44.1465 122.66V130.16H43.2383V122.66H44.1465ZM50.6455 123.051V130.16H49.7178V123.051H50.6455ZM52.9307 123.051V123.822H47.4375V123.051H52.9307ZM58.2969 129.393V130.16H54.7422V129.393H58.2969ZM54.9277 123.051V130.16H53.9854V123.051H54.9277ZM63.165 128.363C63.165 128.197 63.139 128.051 63.0869 127.924C63.0381 127.793 62.9502 127.676 62.8232 127.572C62.6995 127.468 62.527 127.369 62.3057 127.274C62.0876 127.18 61.8109 127.084 61.4756 126.986C61.124 126.882 60.8066 126.766 60.5234 126.64C60.2402 126.509 59.9977 126.361 59.7959 126.195C59.5941 126.029 59.4395 125.839 59.332 125.624C59.2246 125.409 59.1709 125.163 59.1709 124.887C59.1709 124.61 59.2279 124.354 59.3418 124.12C59.4557 123.886 59.6185 123.682 59.8301 123.51C60.0449 123.334 60.3005 123.197 60.5967 123.099C60.8929 123.002 61.2233 122.953 61.5879 122.953C62.1217 122.953 62.5742 123.056 62.9453 123.261C63.3197 123.462 63.6045 123.728 63.7998 124.056C63.9951 124.382 64.0928 124.73 64.0928 125.101H63.1553C63.1553 124.834 63.0983 124.598 62.9844 124.393C62.8704 124.185 62.6979 124.022 62.4668 123.905C62.2357 123.785 61.9427 123.724 61.5879 123.724C61.2526 123.724 60.9759 123.775 60.7578 123.876C60.5397 123.977 60.377 124.113 60.2695 124.286C60.1654 124.459 60.1133 124.655 60.1133 124.877C60.1133 125.027 60.1442 125.163 60.2061 125.287C60.2712 125.407 60.3704 125.52 60.5039 125.624C60.6406 125.728 60.8132 125.824 61.0215 125.912C61.2331 126 61.4854 126.084 61.7783 126.166C62.182 126.28 62.5303 126.407 62.8232 126.547C63.1162 126.687 63.3571 126.845 63.5459 127.02C63.738 127.193 63.8796 127.39 63.9707 127.611C64.0651 127.829 64.1123 128.077 64.1123 128.353C64.1123 128.643 64.0537 128.905 63.9365 129.14C63.8193 129.374 63.6517 129.574 63.4336 129.74C63.2155 129.906 62.9535 130.035 62.6475 130.126C62.3447 130.214 62.0062 130.258 61.6318 130.258C61.3031 130.258 60.9792 130.212 60.6602 130.121C60.3444 130.03 60.0563 129.893 59.7959 129.711C59.5387 129.529 59.332 129.304 59.1758 129.037C59.0228 128.767 58.9463 128.454 58.9463 128.099H59.8838C59.8838 128.344 59.931 128.554 60.0254 128.729C60.1198 128.902 60.2484 129.045 60.4111 129.159C60.5771 129.273 60.7643 129.358 60.9727 129.413C61.1842 129.465 61.404 129.491 61.6318 129.491C61.9606 129.491 62.2389 129.445 62.4668 129.354C62.6947 129.263 62.8672 129.133 62.9844 128.964C63.1048 128.794 63.165 128.594 63.165 128.363ZM69.7715 129.515C69.9863 129.515 70.1849 129.472 70.3672 129.384C70.5495 129.296 70.6992 129.175 70.8164 129.022C70.9336 128.866 71.0003 128.689 71.0166 128.49H71.876C71.8597 128.803 71.7539 129.094 71.5586 129.364C71.3665 129.631 71.1143 129.848 70.8018 130.014C70.4893 130.176 70.1458 130.258 69.7715 130.258C69.3743 130.258 69.0277 130.188 68.7314 130.048C68.4385 129.908 68.1943 129.716 67.999 129.472C67.807 129.227 67.6621 128.947 67.5645 128.632C67.4701 128.313 67.4229 127.976 67.4229 127.621V127.416C67.4229 127.061 67.4701 126.726 67.5645 126.41C67.6621 126.091 67.807 125.809 67.999 125.565C68.1943 125.321 68.4385 125.129 68.7314 124.989C69.0277 124.849 69.3743 124.779 69.7715 124.779C70.1849 124.779 70.5462 124.864 70.8555 125.033C71.1647 125.199 71.4072 125.427 71.583 125.717C71.762 126.003 71.8597 126.329 71.876 126.693H71.0166C71.0003 126.475 70.9385 126.278 70.8311 126.102C70.7269 125.927 70.5837 125.787 70.4014 125.682C70.2223 125.575 70.0124 125.521 69.7715 125.521C69.4948 125.521 69.262 125.577 69.0732 125.687C68.8877 125.795 68.7396 125.941 68.6289 126.127C68.5215 126.309 68.4434 126.513 68.3945 126.737C68.349 126.959 68.3262 127.185 68.3262 127.416V127.621C68.3262 127.852 68.349 128.08 68.3945 128.305C68.4401 128.529 68.5166 128.733 68.624 128.915C68.7347 129.097 68.8828 129.244 69.0684 129.354C69.2572 129.462 69.4915 129.515 69.7715 129.515ZM75.084 130.258C74.7161 130.258 74.3825 130.196 74.083 130.072C73.7868 129.945 73.5312 129.768 73.3164 129.54C73.1048 129.312 72.9421 129.042 72.8281 128.729C72.7142 128.417 72.6572 128.075 72.6572 127.704V127.499C72.6572 127.069 72.7207 126.687 72.8477 126.351C72.9746 126.013 73.1471 125.726 73.3652 125.492C73.5833 125.258 73.8307 125.08 74.1074 124.96C74.3841 124.839 74.6706 124.779 74.9668 124.779C75.3444 124.779 75.6699 124.844 75.9434 124.974C76.2201 125.105 76.4463 125.287 76.6221 125.521C76.7979 125.752 76.9281 126.026 77.0127 126.342C77.0973 126.654 77.1396 126.996 77.1396 127.367V127.772H73.1943V127.035H76.2363V126.967C76.2233 126.732 76.1745 126.504 76.0898 126.283C76.0085 126.062 75.8783 125.879 75.6992 125.736C75.5202 125.593 75.276 125.521 74.9668 125.521C74.7617 125.521 74.5729 125.565 74.4004 125.653C74.2279 125.738 74.0798 125.865 73.9561 126.034C73.8324 126.203 73.7363 126.41 73.668 126.654C73.5996 126.898 73.5654 127.18 73.5654 127.499V127.704C73.5654 127.955 73.5996 128.191 73.668 128.412C73.7396 128.63 73.8421 128.822 73.9756 128.988C74.1123 129.154 74.2767 129.284 74.4688 129.379C74.6641 129.473 74.8854 129.52 75.1328 129.52C75.4518 129.52 75.722 129.455 75.9434 129.325C76.1647 129.195 76.3584 129.021 76.5244 128.803L77.0713 129.237C76.9574 129.41 76.8125 129.574 76.6367 129.73C76.4609 129.887 76.2445 130.014 75.9873 130.111C75.7334 130.209 75.4323 130.258 75.084 130.258ZM79.0977 125.707V130.16H78.1943V124.877H79.0732L79.0977 125.707ZM80.748 124.848L80.7432 125.687C80.6683 125.671 80.5967 125.661 80.5283 125.658C80.4632 125.652 80.3883 125.648 80.3037 125.648C80.0954 125.648 79.9115 125.681 79.752 125.746C79.5924 125.811 79.4574 125.902 79.3467 126.019C79.236 126.137 79.1481 126.277 79.083 126.439C79.0212 126.599 78.9805 126.775 78.9609 126.967L78.707 127.113C78.707 126.794 78.738 126.495 78.7998 126.215C78.8649 125.935 78.9642 125.687 79.0977 125.473C79.2311 125.254 79.4004 125.085 79.6055 124.965C79.8138 124.841 80.0612 124.779 80.3477 124.779C80.4128 124.779 80.4876 124.787 80.5723 124.804C80.6569 124.817 80.7155 124.831 80.748 124.848ZM84.0391 124.877V125.57H81.1826V124.877H84.0391ZM82.1494 123.593H83.0527V128.851C83.0527 129.03 83.0804 129.166 83.1357 129.257C83.1911 129.348 83.2627 129.408 83.3506 129.437C83.4385 129.467 83.5329 129.481 83.6338 129.481C83.7087 129.481 83.7868 129.475 83.8682 129.462C83.9528 129.445 84.0163 129.432 84.0586 129.423L84.0635 130.16C83.9919 130.183 83.8975 130.204 83.7803 130.223C83.6663 130.246 83.528 130.258 83.3652 130.258C83.1439 130.258 82.9404 130.214 82.7549 130.126C82.5693 130.038 82.4212 129.891 82.3105 129.686C82.2031 129.478 82.1494 129.198 82.1494 128.847V123.593ZM86.0801 124.877V130.16H85.1719V124.877H86.0801ZM85.1035 123.475C85.1035 123.329 85.1475 123.205 85.2354 123.104C85.3265 123.003 85.46 122.953 85.6357 122.953C85.8083 122.953 85.9401 123.003 86.0312 123.104C86.1257 123.205 86.1729 123.329 86.1729 123.475C86.1729 123.615 86.1257 123.736 86.0312 123.837C85.9401 123.934 85.8083 123.983 85.6357 123.983C85.46 123.983 85.3265 123.934 85.2354 123.837C85.1475 123.736 85.1035 123.615 85.1035 123.475ZM88.7363 130.16H87.833V124.418C87.833 124.017 87.9111 123.679 88.0674 123.402C88.2236 123.126 88.4466 122.916 88.7363 122.772C89.026 122.629 89.3695 122.557 89.7666 122.557C90.001 122.557 90.2305 122.587 90.4551 122.645C90.6797 122.701 90.9108 122.771 91.1484 122.855L90.9971 123.617C90.8473 123.558 90.6732 123.503 90.4746 123.451C90.2793 123.396 90.0645 123.368 89.8301 123.368C89.4427 123.368 89.1628 123.456 88.9902 123.632C88.821 123.804 88.7363 124.066 88.7363 124.418V130.16ZM89.8154 124.877V125.57H86.998V124.877H89.8154ZM91.5928 124.877V130.16H90.6895V124.877H91.5928ZM95.1914 129.515C95.4062 129.515 95.6048 129.472 95.7871 129.384C95.9694 129.296 96.1191 129.175 96.2363 129.022C96.3535 128.866 96.4202 128.689 96.4365 128.49H97.2959C97.2796 128.803 97.1738 129.094 96.9785 129.364C96.7865 129.631 96.5342 129.848 96.2217 130.014C95.9092 130.176 95.5658 130.258 95.1914 130.258C94.7943 130.258 94.4476 130.188 94.1514 130.048C93.8584 129.908 93.6143 129.716 93.4189 129.472C93.2269 129.227 93.082 128.947 92.9844 128.632C92.89 128.313 92.8428 127.976 92.8428 127.621V127.416C92.8428 127.061 92.89 126.726 92.9844 126.41C93.082 126.091 93.2269 125.809 93.4189 125.565C93.6143 125.321 93.8584 125.129 94.1514 124.989C94.4476 124.849 94.7943 124.779 95.1914 124.779C95.6048 124.779 95.9661 124.864 96.2754 125.033C96.5846 125.199 96.8271 125.427 97.0029 125.717C97.182 126.003 97.2796 126.329 97.2959 126.693H96.4365C96.4202 126.475 96.3584 126.278 96.251 126.102C96.1468 125.927 96.0036 125.787 95.8213 125.682C95.6423 125.575 95.4323 125.521 95.1914 125.521C94.9147 125.521 94.682 125.577 94.4932 125.687C94.3076 125.795 94.1595 125.941 94.0488 126.127C93.9414 126.309 93.8633 126.513 93.8145 126.737C93.7689 126.959 93.7461 127.185 93.7461 127.416V127.621C93.7461 127.852 93.7689 128.08 93.8145 128.305C93.86 128.529 93.9365 128.733 94.0439 128.915C94.1546 129.097 94.3027 129.244 94.4883 129.354C94.6771 129.462 94.9115 129.515 95.1914 129.515ZM101.427 129.257V126.537C101.427 126.329 101.384 126.148 101.3 125.995C101.218 125.839 101.095 125.718 100.929 125.634C100.763 125.549 100.558 125.507 100.313 125.507C100.086 125.507 99.8854 125.546 99.7129 125.624C99.5436 125.702 99.4102 125.805 99.3125 125.931C99.2181 126.058 99.1709 126.195 99.1709 126.342H98.2676C98.2676 126.153 98.3164 125.966 98.4141 125.78C98.5117 125.595 98.6517 125.427 98.834 125.277C99.0195 125.124 99.2409 125.004 99.498 124.916C99.7585 124.825 100.048 124.779 100.367 124.779C100.751 124.779 101.09 124.844 101.383 124.974C101.679 125.105 101.91 125.302 102.076 125.565C102.245 125.826 102.33 126.153 102.33 126.547V129.008C102.33 129.183 102.345 129.371 102.374 129.569C102.407 129.768 102.454 129.939 102.516 130.082V130.16H101.573C101.528 130.056 101.492 129.917 101.466 129.745C101.44 129.569 101.427 129.406 101.427 129.257ZM101.583 126.957L101.593 127.592H100.68C100.423 127.592 100.193 127.613 99.9912 127.655C99.7894 127.694 99.6201 127.754 99.4834 127.836C99.3467 127.917 99.2425 128.02 99.1709 128.143C99.0993 128.264 99.0635 128.405 99.0635 128.568C99.0635 128.734 99.1009 128.886 99.1758 129.022C99.2507 129.159 99.363 129.268 99.5127 129.349C99.6657 129.428 99.8529 129.467 100.074 129.467C100.351 129.467 100.595 129.408 100.807 129.291C101.018 129.174 101.186 129.03 101.31 128.861C101.437 128.692 101.505 128.528 101.515 128.368L101.9 128.803C101.878 128.939 101.816 129.091 101.715 129.257C101.614 129.423 101.479 129.582 101.31 129.735C101.144 129.885 100.945 130.01 100.714 130.111C100.486 130.209 100.229 130.258 99.9424 130.258C99.5843 130.258 99.2702 130.188 99 130.048C98.7331 129.908 98.5247 129.721 98.375 129.486C98.2285 129.249 98.1553 128.983 98.1553 128.69C98.1553 128.407 98.2106 128.158 98.3213 127.943C98.432 127.725 98.5915 127.544 98.7998 127.401C99.0081 127.255 99.2588 127.144 99.5518 127.069C99.8447 126.994 100.172 126.957 100.533 126.957H101.583ZM105.963 124.877V125.57H103.106V124.877H105.963ZM104.073 123.593H104.977V128.851C104.977 129.03 105.004 129.166 105.06 129.257C105.115 129.348 105.187 129.408 105.274 129.437C105.362 129.467 105.457 129.481 105.558 129.481C105.632 129.481 105.711 129.475 105.792 129.462C105.877 129.445 105.94 129.432 105.982 129.423L105.987 130.16C105.916 130.183 105.821 130.204 105.704 130.223C105.59 130.246 105.452 130.258 105.289 130.258C105.068 130.258 104.864 130.214 104.679 130.126C104.493 130.038 104.345 129.891 104.234 129.686C104.127 129.478 104.073 129.198 104.073 128.847V123.593ZM109.215 130.258C108.847 130.258 108.513 130.196 108.214 130.072C107.918 129.945 107.662 129.768 107.447 129.54C107.236 129.312 107.073 129.042 106.959 128.729C106.845 128.417 106.788 128.075 106.788 127.704V127.499C106.788 127.069 106.852 126.687 106.979 126.351C107.105 126.013 107.278 125.726 107.496 125.492C107.714 125.258 107.962 125.08 108.238 124.96C108.515 124.839 108.801 124.779 109.098 124.779C109.475 124.779 109.801 124.844 110.074 124.974C110.351 125.105 110.577 125.287 110.753 125.521C110.929 125.752 111.059 126.026 111.144 126.342C111.228 126.654 111.271 126.996 111.271 127.367V127.772H107.325V127.035H110.367V126.967C110.354 126.732 110.305 126.504 110.221 126.283C110.139 126.062 110.009 125.879 109.83 125.736C109.651 125.593 109.407 125.521 109.098 125.521C108.893 125.521 108.704 125.565 108.531 125.653C108.359 125.738 108.211 125.865 108.087 126.034C107.963 126.203 107.867 126.41 107.799 126.654C107.73 126.898 107.696 127.18 107.696 127.499V127.704C107.696 127.955 107.73 128.191 107.799 128.412C107.87 128.63 107.973 128.822 108.106 128.988C108.243 129.154 108.408 129.284 108.6 129.379C108.795 129.473 109.016 129.52 109.264 129.52C109.583 129.52 109.853 129.455 110.074 129.325C110.296 129.195 110.489 129.021 110.655 128.803L111.202 129.237C111.088 129.41 110.943 129.574 110.768 129.73C110.592 129.887 110.375 130.014 110.118 130.111C109.864 130.209 109.563 130.258 109.215 130.258ZM115.401 128.759C115.401 128.628 115.372 128.508 115.313 128.397C115.258 128.283 115.143 128.181 114.967 128.09C114.794 127.995 114.534 127.914 114.186 127.846C113.893 127.784 113.627 127.71 113.39 127.626C113.155 127.541 112.955 127.439 112.789 127.318C112.626 127.198 112.501 127.056 112.413 126.893C112.325 126.731 112.281 126.54 112.281 126.322C112.281 126.114 112.327 125.917 112.418 125.731C112.512 125.546 112.644 125.381 112.813 125.238C112.986 125.095 113.193 124.983 113.434 124.901C113.674 124.82 113.943 124.779 114.239 124.779C114.662 124.779 115.024 124.854 115.323 125.004C115.623 125.154 115.852 125.354 116.012 125.604C116.171 125.852 116.251 126.127 116.251 126.43H115.348C115.348 126.283 115.304 126.141 115.216 126.005C115.131 125.865 115.006 125.749 114.84 125.658C114.677 125.567 114.477 125.521 114.239 125.521C113.989 125.521 113.785 125.56 113.629 125.639C113.476 125.713 113.364 125.809 113.292 125.927C113.224 126.044 113.189 126.167 113.189 126.298C113.189 126.395 113.206 126.483 113.238 126.561C113.274 126.636 113.336 126.706 113.424 126.771C113.512 126.833 113.635 126.892 113.795 126.947C113.954 127.002 114.158 127.058 114.405 127.113C114.838 127.211 115.195 127.328 115.475 127.465C115.755 127.601 115.963 127.769 116.1 127.968C116.236 128.166 116.305 128.407 116.305 128.69C116.305 128.921 116.256 129.133 116.158 129.325C116.064 129.517 115.925 129.683 115.743 129.823C115.564 129.96 115.349 130.067 115.099 130.145C114.851 130.22 114.573 130.258 114.264 130.258C113.798 130.258 113.404 130.175 113.082 130.009C112.76 129.843 112.516 129.628 112.35 129.364C112.184 129.1 112.101 128.822 112.101 128.529H113.009C113.022 128.777 113.093 128.973 113.224 129.12C113.354 129.263 113.513 129.366 113.702 129.428C113.891 129.486 114.078 129.515 114.264 129.515C114.511 129.515 114.718 129.483 114.884 129.418C115.053 129.353 115.182 129.263 115.27 129.149C115.357 129.035 115.401 128.905 115.401 128.759ZM118.565 123.051L118.502 128.153H117.687L117.618 123.051H118.565ZM117.589 129.706C117.589 129.559 117.633 129.436 117.721 129.335C117.812 129.234 117.945 129.183 118.121 129.183C118.294 129.183 118.425 129.234 118.517 129.335C118.611 129.436 118.658 129.559 118.658 129.706C118.658 129.846 118.611 129.966 118.517 130.067C118.425 130.168 118.294 130.219 118.121 130.219C117.945 130.219 117.812 130.168 117.721 130.067C117.633 129.966 117.589 129.846 117.589 129.706Z" fill="black"/>
<path d="M84.5 99L84.3735 89.0305L73.3458 92.4545L84.5 99ZM48.545 48.0565L78.4686 91.8648L80.3787 91.2717L50.455 47.4635L48.545 48.0565Z" fill="#666666"/>
<path d="M49.5 99L60.6542 92.4545L49.6265 89.0305L49.5 99ZM83.545 47.4635L53.6213 91.2717L55.5314 91.8648L85.455 48.0565L83.545 47.4635Z" fill="#666666"/>
<defs>
<clipPath id="clip0_2_59">
<rect width="25.6" height="25.6" fill="white" transform="translate(0 87.16)"/>
</clipPath>
</defs>
</svg>
